<svg xmlns="http://www.w3.org/2000/svg" xmlns:rdkit="http://www.rdkit.org/xml" xmlns:xlink="http://www.w3.org/1999/xlink" version="1.1" baseProfile="full" xml:space="preserve" width="1000px" height="200px" viewBox="0 0 1000 200">
<!-- END OF HEADER -->
<rect style="opacity:1.0;fill:#FFFFFF;stroke:none" width="1000.0" height="200.0" x="0.0" y="0.0"> </rect>
<path class="bond-0 atom-0 atom-1" d="M 105.4,81.9 L 102.2,87.9" style="fill:none;fill-rule:evenodd;stroke:#FF0000;stroke-width:2.0px;stroke-linecap:butt;stroke-linejoin:miter;stroke-opacity:1"/>
<path class="bond-0 atom-0 atom-1" d="M 102.2,87.9 L 99.0,93.8" style="fill:none;fill-rule:evenodd;stroke:#000000;stroke-width:2.0px;stroke-linecap:butt;stroke-linejoin:miter;stroke-opacity:1"/>
<path class="bond-0 atom-0 atom-1" d="M 103.3,80.8 L 100.1,86.7" style="fill:none;fill-rule:evenodd;stroke:#FF0000;stroke-width:2.0px;stroke-linecap:butt;stroke-linejoin:miter;stroke-opacity:1"/>
<path class="bond-0 atom-0 atom-1" d="M 100.1,86.7 L 96.8,92.7" style="fill:none;fill-rule:evenodd;stroke:#000000;stroke-width:2.0px;stroke-linecap:butt;stroke-linejoin:miter;stroke-opacity:1"/>
<path class="bond-1 atom-1 atom-2" d="M 98.2,92.6 L 91.5,92.8" style="fill:none;fill-rule:evenodd;stroke:#000000;stroke-width:2.0px;stroke-linecap:butt;stroke-linejoin:miter;stroke-opacity:1"/>
<path class="bond-1 atom-1 atom-2" d="M 91.5,92.8 L 84.7,93.0" style="fill:none;fill-rule:evenodd;stroke:#FF0000;stroke-width:2.0px;stroke-linecap:butt;stroke-linejoin:miter;stroke-opacity:1"/>
<path class="bond-2 atom-2 atom-3" d="M 80.3,90.2 L 77.0,84.7" style="fill:none;fill-rule:evenodd;stroke:#FF0000;stroke-width:2.0px;stroke-linecap:butt;stroke-linejoin:miter;stroke-opacity:1"/>
<path class="bond-2 atom-2 atom-3" d="M 77.0,84.7 L 73.6,79.3" style="fill:none;fill-rule:evenodd;stroke:#000000;stroke-width:2.0px;stroke-linecap:butt;stroke-linejoin:miter;stroke-opacity:1"/>
<path class="bond-3 atom-3 atom-4" d="M 73.6,79.3 L 57.5,79.7" style="fill:none;fill-rule:evenodd;stroke:#000000;stroke-width:2.0px;stroke-linecap:butt;stroke-linejoin:miter;stroke-opacity:1"/>
<path class="bond-4 atom-4 atom-5" d="M 57.5,79.7 L 48.3,93.0" style="fill:none;fill-rule:evenodd;stroke:#000000;stroke-width:2.0px;stroke-linecap:butt;stroke-linejoin:miter;stroke-opacity:1"/>
<path class="bond-4 atom-4 atom-5" d="M 54.5,79.8 L 47.3,90.2" style="fill:none;fill-rule:evenodd;stroke:#000000;stroke-width:2.0px;stroke-linecap:butt;stroke-linejoin:miter;stroke-opacity:1"/>
<path class="bond-5 atom-5 atom-6" d="M 48.3,93.0 L 32.8,88.4" style="fill:none;fill-rule:evenodd;stroke:#000000;stroke-width:2.0px;stroke-linecap:butt;stroke-linejoin:miter;stroke-opacity:1"/>
<path class="bond-6 atom-6 atom-7" d="M 32.8,88.4 L 32.4,72.2" style="fill:none;fill-rule:evenodd;stroke:#000000;stroke-width:2.0px;stroke-linecap:butt;stroke-linejoin:miter;stroke-opacity:1"/>
<path class="bond-6 atom-6 atom-7" d="M 35.2,86.6 L 34.9,73.9" style="fill:none;fill-rule:evenodd;stroke:#000000;stroke-width:2.0px;stroke-linecap:butt;stroke-linejoin:miter;stroke-opacity:1"/>
<path class="bond-7 atom-7 atom-8" d="M 32.4,72.2 L 39.0,69.9" style="fill:none;fill-rule:evenodd;stroke:#000000;stroke-width:2.0px;stroke-linecap:butt;stroke-linejoin:miter;stroke-opacity:1"/>
<path class="bond-7 atom-7 atom-8" d="M 39.0,69.9 L 45.6,67.6" style="fill:none;fill-rule:evenodd;stroke:#CCCC00;stroke-width:2.0px;stroke-linecap:butt;stroke-linejoin:miter;stroke-opacity:1"/>
<path class="bond-8 atom-1 atom-9" d="M 98.2,92.6 L 106.7,106.4" style="fill:none;fill-rule:evenodd;stroke:#000000;stroke-width:2.0px;stroke-linecap:butt;stroke-linejoin:miter;stroke-opacity:1"/>
<path class="bond-9 atom-9 atom-10" d="M 106.7,106.4 L 122.8,107.7" style="fill:none;fill-rule:evenodd;stroke:#000000;stroke-width:2.0px;stroke-linecap:butt;stroke-linejoin:miter;stroke-opacity:1"/>
<path class="bond-9 atom-9 atom-10" d="M 108.2,109.0 L 120.8,110.0" style="fill:none;fill-rule:evenodd;stroke:#000000;stroke-width:2.0px;stroke-linecap:butt;stroke-linejoin:miter;stroke-opacity:1"/>
<path class="bond-10 atom-10 atom-11" d="M 122.8,107.7 L 133.3,95.4" style="fill:none;fill-rule:evenodd;stroke:#000000;stroke-width:2.0px;stroke-linecap:butt;stroke-linejoin:miter;stroke-opacity:1"/>
<path class="bond-11 atom-11 atom-12" d="M 133.3,95.4 L 149.2,98.3" style="fill:none;fill-rule:evenodd;stroke:#000000;stroke-width:2.0px;stroke-linecap:butt;stroke-linejoin:miter;stroke-opacity:1"/>
<path class="bond-11 atom-11 atom-12" d="M 135.1,93.3 L 148.2,95.7" style="fill:none;fill-rule:evenodd;stroke:#000000;stroke-width:2.0px;stroke-linecap:butt;stroke-linejoin:miter;stroke-opacity:1"/>
<path class="bond-12 atom-12 atom-13" d="M 149.2,98.3 L 159.7,86.0" style="fill:none;fill-rule:evenodd;stroke:#000000;stroke-width:2.0px;stroke-linecap:butt;stroke-linejoin:miter;stroke-opacity:1"/>
<path class="bond-13 atom-13 atom-14" d="M 159.7,86.0 L 154.3,70.8" style="fill:none;fill-rule:evenodd;stroke:#000000;stroke-width:2.0px;stroke-linecap:butt;stroke-linejoin:miter;stroke-opacity:1"/>
<path class="bond-13 atom-13 atom-14" d="M 156.9,85.5 L 152.5,72.9" style="fill:none;fill-rule:evenodd;stroke:#000000;stroke-width:2.0px;stroke-linecap:butt;stroke-linejoin:miter;stroke-opacity:1"/>
<path class="bond-14 atom-14 atom-15" d="M 154.3,70.8 L 158.4,66.0" style="fill:none;fill-rule:evenodd;stroke:#000000;stroke-width:2.0px;stroke-linecap:butt;stroke-linejoin:miter;stroke-opacity:1"/>
<path class="bond-14 atom-14 atom-15" d="M 158.4,66.0 L 162.5,61.2" style="fill:none;fill-rule:evenodd;stroke:#00CC00;stroke-width:2.0px;stroke-linecap:butt;stroke-linejoin:miter;stroke-opacity:1"/>
<path class="bond-15 atom-14 atom-16" d="M 154.3,70.8 L 138.4,67.9" style="fill:none;fill-rule:evenodd;stroke:#000000;stroke-width:2.0px;stroke-linecap:butt;stroke-linejoin:miter;stroke-opacity:1"/>
<path class="bond-16 atom-16 atom-17" d="M 138.4,67.9 L 136.2,61.8" style="fill:none;fill-rule:evenodd;stroke:#000000;stroke-width:2.0px;stroke-linecap:butt;stroke-linejoin:miter;stroke-opacity:1"/>
<path class="bond-16 atom-16 atom-17" d="M 136.2,61.8 L 134.1,55.7" style="fill:none;fill-rule:evenodd;stroke:#00CC00;stroke-width:2.0px;stroke-linecap:butt;stroke-linejoin:miter;stroke-opacity:1"/>
<path class="bond-17 atom-16 atom-18" d="M 138.4,67.9 L 127.9,80.1" style="fill:none;fill-rule:evenodd;stroke:#000000;stroke-width:2.0px;stroke-linecap:butt;stroke-linejoin:miter;stroke-opacity:1"/>
<path class="bond-17 atom-16 atom-18" d="M 139.3,70.5 L 130.6,80.7" style="fill:none;fill-rule:evenodd;stroke:#000000;stroke-width:2.0px;stroke-linecap:butt;stroke-linejoin:miter;stroke-opacity:1"/>
<path class="bond-18 atom-10 atom-19" d="M 122.8,107.7 L 126.6,123.4" style="fill:none;fill-rule:evenodd;stroke:#000000;stroke-width:2.0px;stroke-linecap:butt;stroke-linejoin:miter;stroke-opacity:1"/>
<path class="bond-19 atom-19 atom-20" d="M 126.6,123.4 L 112.8,131.8" style="fill:none;fill-rule:evenodd;stroke:#000000;stroke-width:2.0px;stroke-linecap:butt;stroke-linejoin:miter;stroke-opacity:1"/>
<path class="bond-20 atom-20 atom-21" d="M 112.8,131.8 L 100.5,121.3" style="fill:none;fill-rule:evenodd;stroke:#000000;stroke-width:2.0px;stroke-linecap:butt;stroke-linejoin:miter;stroke-opacity:1"/>
<path class="bond-21 atom-8 atom-4" d="M 49.6,69.5 L 53.5,74.6" style="fill:none;fill-rule:evenodd;stroke:#CCCC00;stroke-width:2.0px;stroke-linecap:butt;stroke-linejoin:miter;stroke-opacity:1"/>
<path class="bond-21 atom-8 atom-4" d="M 53.5,74.6 L 57.5,79.7" style="fill:none;fill-rule:evenodd;stroke:#000000;stroke-width:2.0px;stroke-linecap:butt;stroke-linejoin:miter;stroke-opacity:1"/>
<path class="bond-22 atom-21 atom-9" d="M 100.5,121.3 L 106.7,106.4" style="fill:none;fill-rule:evenodd;stroke:#000000;stroke-width:2.0px;stroke-linecap:butt;stroke-linejoin:miter;stroke-opacity:1"/>
<path class="bond-23 atom-18 atom-11" d="M 127.9,80.1 L 133.3,95.4" style="fill:none;fill-rule:evenodd;stroke:#000000;stroke-width:2.0px;stroke-linecap:butt;stroke-linejoin:miter;stroke-opacity:1"/>
<path d="M 97.9,92.6 L 98.2,92.6 L 98.6,93.3" style="fill:none;stroke:#000000;stroke-width:2.0px;stroke-linecap:butt;stroke-linejoin:miter;stroke-opacity:1;"/>
<path d="M 73.8,79.5 L 73.6,79.3 L 72.8,79.3" style="fill:none;stroke:#000000;stroke-width:2.0px;stroke-linecap:butt;stroke-linejoin:miter;stroke-opacity:1;"/>
<path d="M 48.8,92.3 L 48.3,93.0 L 47.5,92.8" style="fill:none;stroke:#000000;stroke-width:2.0px;stroke-linecap:butt;stroke-linejoin:miter;stroke-opacity:1;"/>
<path d="M 33.6,88.6 L 32.8,88.4 L 32.8,87.6" style="fill:none;stroke:#000000;stroke-width:2.0px;stroke-linecap:butt;stroke-linejoin:miter;stroke-opacity:1;"/>
<path d="M 32.4,73.0 L 32.4,72.2 L 32.7,72.1" style="fill:none;stroke:#000000;stroke-width:2.0px;stroke-linecap:butt;stroke-linejoin:miter;stroke-opacity:1;"/>
<path d="M 148.4,98.2 L 149.2,98.3 L 149.7,97.7" style="fill:none;stroke:#000000;stroke-width:2.0px;stroke-linecap:butt;stroke-linejoin:miter;stroke-opacity:1;"/>
<path d="M 159.2,86.7 L 159.7,86.0 L 159.4,85.3" style="fill:none;stroke:#000000;stroke-width:2.0px;stroke-linecap:butt;stroke-linejoin:miter;stroke-opacity:1;"/>
<path d="M 128.4,79.5 L 127.9,80.1 L 128.2,80.9" style="fill:none;stroke:#000000;stroke-width:2.0px;stroke-linecap:butt;stroke-linejoin:miter;stroke-opacity:1;"/>
<path d="M 126.4,122.6 L 126.6,123.4 L 125.9,123.8" style="fill:none;stroke:#000000;stroke-width:2.0px;stroke-linecap:butt;stroke-linejoin:miter;stroke-opacity:1;"/>
<path d="M 113.5,131.4 L 112.8,131.8 L 112.2,131.3" style="fill:none;stroke:#000000;stroke-width:2.0px;stroke-linecap:butt;stroke-linejoin:miter;stroke-opacity:1;"/>
<path d="M 101.1,121.9 L 100.5,121.3 L 100.8,120.6" style="fill:none;stroke:#000000;stroke-width:2.0px;stroke-linecap:butt;stroke-linejoin:miter;stroke-opacity:1;"/>
<path class="atom-0" d="M 103.8 78.4 Q 103.8 77.3, 104.4 76.7 Q 104.9 76.1, 105.9 76.1 Q 107.0 76.1, 107.5 76.7 Q 108.0 77.3, 108.0 78.4 Q 108.0 79.5, 107.5 80.2 Q 106.9 80.8, 105.9 80.8 Q 104.9 80.8, 104.4 80.2 Q 103.8 79.5, 103.8 78.4 M 105.9 80.3 Q 106.6 80.3, 107.0 79.8 Q 107.4 79.3, 107.4 78.4 Q 107.4 77.5, 107.0 77.1 Q 106.6 76.6, 105.9 76.6 Q 105.2 76.6, 104.9 77.1 Q 104.5 77.5, 104.5 78.4 Q 104.5 79.4, 104.9 79.8 Q 105.2 80.3, 105.9 80.3 " fill="#FF0000"/>
<path class="atom-2" d="M 80.0 93.1 Q 80.0 92.0, 80.5 91.3 Q 81.1 90.7, 82.1 90.7 Q 83.1 90.7, 83.6 91.3 Q 84.2 92.0, 84.2 93.1 Q 84.2 94.2, 83.6 94.8 Q 83.1 95.4, 82.1 95.4 Q 81.1 95.4, 80.5 94.8 Q 80.0 94.2, 80.0 93.1 M 82.1 94.9 Q 82.8 94.9, 83.1 94.4 Q 83.5 94.0, 83.5 93.1 Q 83.5 92.2, 83.1 91.7 Q 82.8 91.2, 82.1 91.2 Q 81.4 91.2, 81.0 91.7 Q 80.6 92.1, 80.6 93.1 Q 80.6 94.0, 81.0 94.4 Q 81.4 94.9, 82.1 94.9 " fill="#FF0000"/>
<path class="atom-8" d="M 46.3 68.4 Q 46.4 68.4, 46.6 68.5 Q 46.8 68.6, 47.0 68.7 Q 47.3 68.7, 47.5 68.7 Q 48.0 68.7, 48.2 68.5 Q 48.5 68.3, 48.5 67.9 Q 48.5 67.7, 48.3 67.5 Q 48.2 67.4, 48.0 67.3 Q 47.8 67.2, 47.5 67.1 Q 47.1 67.0, 46.8 66.9 Q 46.6 66.8, 46.4 66.5 Q 46.3 66.3, 46.3 65.9 Q 46.3 65.3, 46.6 64.9 Q 47.0 64.6, 47.8 64.6 Q 48.3 64.6, 48.9 64.8 L 48.8 65.3 Q 48.2 65.1, 47.8 65.1 Q 47.4 65.1, 47.1 65.3 Q 46.9 65.5, 46.9 65.8 Q 46.9 66.0, 47.0 66.2 Q 47.2 66.3, 47.3 66.4 Q 47.5 66.5, 47.8 66.6 Q 48.2 66.7, 48.5 66.8 Q 48.7 67.0, 48.9 67.2 Q 49.1 67.5, 49.1 67.9 Q 49.1 68.6, 48.7 68.9 Q 48.2 69.3, 47.5 69.3 Q 47.1 69.3, 46.8 69.2 Q 46.5 69.1, 46.2 68.9 L 46.3 68.4 " fill="#CCCC00"/>
<path class="atom-15" d="M 163.0 58.7 Q 163.0 57.5, 163.6 56.9 Q 164.1 56.3, 165.1 56.3 Q 166.0 56.3, 166.6 57.0 L 166.1 57.4 Q 165.8 56.9, 165.1 56.9 Q 164.4 56.9, 164.0 57.3 Q 163.7 57.8, 163.7 58.7 Q 163.7 59.6, 164.1 60.0 Q 164.4 60.5, 165.2 60.5 Q 165.7 60.5, 166.3 60.2 L 166.4 60.7 Q 166.2 60.8, 165.8 60.9 Q 165.5 61.0, 165.1 61.0 Q 164.1 61.0, 163.6 60.4 Q 163.0 59.8, 163.0 58.7 " fill="#00CC00"/>
<path class="atom-15" d="M 167.0 56.1 L 167.6 56.1 L 167.6 61.0 L 167.0 61.0 L 167.0 56.1 " fill="#00CC00"/>
<path class="atom-17" d="M 131.2 52.8 Q 131.2 51.6, 131.8 51.0 Q 132.3 50.4, 133.3 50.4 Q 134.3 50.4, 134.8 51.1 L 134.3 51.5 Q 134.0 51.0, 133.3 51.0 Q 132.6 51.0, 132.3 51.4 Q 131.9 51.9, 131.9 52.8 Q 131.9 53.7, 132.3 54.1 Q 132.7 54.6, 133.4 54.6 Q 133.9 54.6, 134.5 54.3 L 134.7 54.8 Q 134.4 54.9, 134.1 55.0 Q 133.7 55.1, 133.3 55.1 Q 132.3 55.1, 131.8 54.5 Q 131.2 53.9, 131.2 52.8 " fill="#00CC00"/>
<path class="atom-17" d="M 135.2 50.2 L 135.8 50.2 L 135.8 55.1 L 135.2 55.1 L 135.2 50.2 " fill="#00CC00"/>
<path class="legend" d="M 12.8 179.2 L 10.0 179.2 L 10.0 178.2 L 16.6 178.2 L 16.6 179.2 L 14.0 179.2 L 14.0 187.2 L 12.8 187.2 L 12.8 179.2 " fill="#000000"/>
<path class="legend" d="M 18.0 180.6 L 18.1 181.5 Q 18.8 180.5, 19.9 180.5 Q 20.3 180.5, 20.8 180.6 L 20.6 181.7 Q 20.1 181.6, 19.7 181.6 Q 19.2 181.6, 18.9 181.8 Q 18.5 182.0, 18.2 182.5 L 18.2 187.2 L 17.0 187.2 L 17.0 180.6 L 18.0 180.6 " fill="#000000"/>
<path class="legend" d="M 26.9 180.6 L 26.9 187.2 L 26.0 187.2 L 25.8 186.3 Q 25.0 187.3, 23.6 187.3 Q 22.5 187.3, 21.9 186.7 Q 21.4 186.1, 21.4 185.0 L 21.4 180.6 L 22.6 180.6 L 22.6 184.9 Q 22.6 185.6, 22.9 186.0 Q 23.2 186.3, 23.8 186.3 Q 24.4 186.3, 24.9 186.1 Q 25.4 185.8, 25.7 185.3 L 25.7 180.6 L 26.9 180.6 " fill="#000000"/>
<path class="legend" d="M 28.4 183.9 Q 28.4 182.3, 29.2 181.4 Q 30.0 180.5, 31.4 180.5 Q 32.9 180.5, 33.5 181.4 Q 34.2 182.2, 34.2 183.9 L 34.2 184.1 L 29.6 184.1 Q 29.6 185.2, 30.1 185.7 Q 30.6 186.3, 31.5 186.3 Q 32.0 186.3, 32.5 186.2 Q 33.0 186.1, 33.6 185.8 L 33.9 186.7 Q 33.3 187.0, 32.7 187.1 Q 32.1 187.3, 31.5 187.3 Q 30.0 187.3, 29.2 186.4 Q 28.4 185.5, 28.4 183.9 M 31.4 181.5 Q 30.7 181.5, 30.2 181.9 Q 29.8 182.3, 29.6 183.2 L 32.9 183.2 Q 32.8 182.3, 32.5 181.9 Q 32.1 181.5, 31.4 181.5 " fill="#000000"/>
<path class="legend" d="M 35.0 185.7 L 36.3 185.7 L 36.3 187.0 L 35.0 187.0 L 35.0 185.7 M 35.0 181.3 L 36.3 181.3 L 36.3 182.6 L 35.0 182.6 L 35.0 181.3 " fill="#000000"/>
<path class="legend" d="" fill="#000000"/>
<path class="legend" d="M 42.8 186.2 L 44.8 186.2 L 44.8 179.4 L 42.6 180.1 L 42.3 179.3 L 45.0 178.1 L 45.9 178.3 L 45.9 186.2 L 47.7 186.2 L 47.7 187.2 L 42.8 187.2 L 42.8 186.2 " fill="#000000"/>
<path class="legend" d="M 48.6 185.9 L 49.9 185.9 L 49.9 187.2 L 48.6 187.2 L 48.6 185.9 " fill="#000000"/>
<path class="legend" d="M 54.4 187.3 Q 52.8 187.3, 51.9 186.1 Q 51.1 184.8, 51.1 182.7 Q 51.1 180.5, 51.9 179.3 Q 52.8 178.1, 54.4 178.1 Q 56.1 178.1, 56.9 179.3 Q 57.7 180.5, 57.7 182.7 Q 57.7 184.8, 56.9 186.1 Q 56.1 187.3, 54.4 187.3 M 54.4 186.3 Q 55.4 186.3, 55.9 185.4 Q 56.5 184.4, 56.5 182.7 Q 56.5 180.9, 55.9 180.0 Q 55.4 179.1, 54.4 179.1 Q 53.5 179.1, 52.9 180.0 Q 52.4 180.9, 52.4 182.7 Q 52.4 184.4, 52.9 185.4 Q 53.5 186.3, 54.4 186.3 " fill="#000000"/>
<path class="legend" d="M 58.9 185.9 L 60.2 185.9 L 60.2 186.9 L 60.0 188.7 L 59.5 188.7 L 59.5 187.2 L 58.9 187.2 L 58.9 185.9 " fill="#000000"/>
<path class="legend" d="" fill="#000000"/>
<path class="legend" d="M 68.7 178.2 Q 70.3 178.2, 71.0 178.9 Q 71.8 179.5, 71.8 180.8 Q 71.8 182.1, 71.0 182.8 Q 70.2 183.5, 68.7 183.5 L 67.3 183.5 L 67.3 187.2 L 66.1 187.2 L 66.1 178.2 L 68.7 178.2 M 68.7 182.5 Q 69.6 182.5, 70.1 182.0 Q 70.5 181.6, 70.5 180.8 Q 70.5 180.0, 70.1 179.6 Q 69.6 179.2, 68.7 179.2 L 67.3 179.2 L 67.3 182.5 L 68.7 182.5 " fill="#000000"/>
<path class="legend" d="M 73.8 180.6 L 73.9 181.5 Q 74.6 180.5, 75.7 180.5 Q 76.1 180.5, 76.6 180.6 L 76.4 181.7 Q 75.8 181.6, 75.5 181.6 Q 75.0 181.6, 74.6 181.8 Q 74.3 182.0, 74.0 182.5 L 74.0 187.2 L 72.8 187.2 L 72.8 180.6 L 73.8 180.6 " fill="#000000"/>
<path class="legend" d="M 77.1 183.9 Q 77.1 182.3, 77.9 181.4 Q 78.7 180.5, 80.2 180.5 Q 81.7 180.5, 82.3 181.4 Q 82.9 182.2, 82.9 183.9 L 82.9 184.1 L 78.4 184.1 Q 78.4 185.2, 78.9 185.7 Q 79.4 186.3, 80.3 186.3 Q 80.8 186.3, 81.3 186.2 Q 81.8 186.1, 82.3 185.8 L 82.7 186.7 Q 82.0 187.0, 81.4 187.1 Q 80.9 187.3, 80.3 187.3 Q 78.8 187.3, 78.0 186.4 Q 77.1 185.5, 77.1 183.9 M 80.2 181.5 Q 79.5 181.5, 79.0 181.9 Q 78.6 182.3, 78.4 183.2 L 81.7 183.2 Q 81.6 182.3, 81.2 181.9 Q 80.9 181.5, 80.2 181.5 " fill="#000000"/>
<path class="legend" d="M 89.8 177.5 L 89.8 187.2 L 88.8 187.2 L 88.6 186.4 Q 87.9 187.3, 86.7 187.3 Q 85.3 187.3, 84.6 186.4 Q 83.8 185.6, 83.8 184.0 Q 83.8 182.4, 84.7 181.4 Q 85.6 180.5, 87.2 180.5 Q 87.8 180.5, 88.6 180.7 L 88.6 177.5 L 89.8 177.5 M 86.8 186.3 Q 87.4 186.3, 87.9 186.0 Q 88.4 185.6, 88.6 185.0 L 88.6 181.7 Q 87.9 181.5, 87.2 181.5 Q 86.2 181.5, 85.6 182.1 Q 85.0 182.8, 85.0 184.0 Q 85.0 185.1, 85.5 185.7 Q 85.9 186.3, 86.8 186.3 " fill="#000000"/>
<path class="legend" d="M 91.2 185.7 L 92.4 185.7 L 92.4 187.0 L 91.2 187.0 L 91.2 185.7 M 91.2 181.3 L 92.4 181.3 L 92.4 182.6 L 91.2 182.6 L 91.2 181.3 " fill="#000000"/>
<path class="legend" d="" fill="#000000"/>
<path class="legend" d="M 101.7 187.3 Q 100.1 187.3, 99.2 186.1 Q 98.4 184.8, 98.4 182.7 Q 98.4 180.5, 99.2 179.3 Q 100.0 178.1, 101.7 178.1 Q 103.4 178.1, 104.2 179.3 Q 105.0 180.5, 105.0 182.7 Q 105.0 184.8, 104.2 186.1 Q 103.4 187.3, 101.7 187.3 M 101.7 186.3 Q 102.7 186.3, 103.2 185.4 Q 103.7 184.4, 103.7 182.7 Q 103.7 180.9, 103.2 180.0 Q 102.7 179.1, 101.7 179.1 Q 100.7 179.1, 100.2 180.0 Q 99.7 180.9, 99.7 182.7 Q 99.7 184.4, 100.2 185.4 Q 100.7 186.3, 101.7 186.3 " fill="#000000"/>
<path class="legend" d="" fill="#000000"/>
<path class="legend" d="M 110.9 183.5 Q 110.9 181.7, 111.4 180.2 Q 111.9 178.7, 112.9 177.1 L 113.7 177.6 Q 112.8 179.1, 112.4 180.4 Q 112.0 181.8, 112.0 183.5 Q 112.0 185.3, 112.4 186.6 Q 112.8 188.0, 113.7 189.5 L 112.9 190.0 Q 111.9 188.4, 111.4 186.9 Q 110.9 185.4, 110.9 183.5 " fill="#000000"/>
<path class="legend" d="M 117.0 178.2 Q 118.6 178.2, 119.3 178.9 Q 120.1 179.5, 120.1 180.8 Q 120.1 182.1, 119.3 182.8 Q 118.5 183.5, 117.0 183.5 L 115.6 183.5 L 115.6 187.2 L 114.4 187.2 L 114.4 178.2 L 117.0 178.2 M 117.0 182.5 Q 117.9 182.5, 118.4 182.0 Q 118.8 181.6, 118.8 180.8 Q 118.8 180.0, 118.4 179.6 Q 117.9 179.2, 117.0 179.2 L 115.6 179.2 L 115.6 182.5 L 117.0 182.5 " fill="#000000"/>
<path class="legend" d="M 122.1 180.6 L 122.2 181.5 Q 122.9 180.5, 124.0 180.5 Q 124.4 180.5, 124.9 180.6 L 124.7 181.7 Q 124.1 181.6, 123.8 181.6 Q 123.3 181.6, 122.9 181.8 Q 122.6 182.0, 122.3 182.5 L 122.3 187.2 L 121.1 187.2 L 121.1 180.6 L 122.1 180.6 " fill="#000000"/>
<path class="legend" d="M 125.4 183.9 Q 125.4 182.3, 126.2 181.4 Q 127.1 180.5, 128.5 180.5 Q 130.0 180.5, 130.8 181.4 Q 131.7 182.3, 131.7 183.9 Q 131.7 185.5, 130.8 186.4 Q 130.0 187.3, 128.5 187.3 Q 127.1 187.3, 126.2 186.4 Q 125.4 185.5, 125.4 183.9 M 126.7 183.9 Q 126.7 185.1, 127.1 185.7 Q 127.6 186.3, 128.5 186.3 Q 129.5 186.3, 129.9 185.7 Q 130.4 185.1, 130.4 183.9 Q 130.4 182.7, 129.9 182.1 Q 129.5 181.5, 128.5 181.5 Q 127.6 181.5, 127.1 182.1 Q 126.7 182.7, 126.7 183.9 " fill="#000000"/>
<path class="legend" d="M 135.7 180.5 Q 137.0 180.5, 137.8 181.4 Q 138.6 182.2, 138.6 183.8 Q 138.6 185.4, 137.7 186.4 Q 136.8 187.3, 135.2 187.3 Q 134.2 187.3, 133.2 186.9 L 132.6 186.8 L 132.6 177.5 L 133.8 177.5 L 133.8 181.3 Q 134.5 180.5, 135.7 180.5 M 135.2 186.3 Q 136.2 186.3, 136.8 185.7 Q 137.3 185.0, 137.3 183.8 Q 137.3 182.7, 136.9 182.1 Q 136.4 181.5, 135.6 181.5 Q 134.9 181.5, 134.5 181.8 Q 134.0 182.2, 133.8 182.8 L 133.8 186.1 Q 134.5 186.3, 135.2 186.3 " fill="#000000"/>
<path class="legend" d="M 139.5 185.7 L 140.8 185.7 L 140.8 187.0 L 139.5 187.0 L 139.5 185.7 M 139.5 181.3 L 140.8 181.3 L 140.8 182.6 L 139.5 182.6 L 139.5 181.3 " fill="#000000"/>
<path class="legend" d="" fill="#000000"/>
<path class="legend" d="M 150.1 187.3 Q 148.4 187.3, 147.6 186.1 Q 146.8 184.8, 146.8 182.7 Q 146.8 180.5, 147.6 179.3 Q 148.4 178.1, 150.1 178.1 Q 151.8 178.1, 152.6 179.3 Q 153.4 180.5, 153.4 182.7 Q 153.4 184.8, 152.6 186.1 Q 151.7 187.3, 150.1 187.3 M 150.1 186.3 Q 151.1 186.3, 151.6 185.4 Q 152.1 184.4, 152.1 182.7 Q 152.1 180.9, 151.6 180.0 Q 151.1 179.1, 150.1 179.1 Q 149.1 179.1, 148.6 180.0 Q 148.1 180.9, 148.1 182.7 Q 148.1 184.4, 148.6 185.4 Q 149.1 186.3, 150.1 186.3 " fill="#000000"/>
<path class="legend" d="M 154.6 185.9 L 155.9 185.9 L 155.9 187.2 L 154.6 187.2 L 154.6 185.9 " fill="#000000"/>
<path class="legend" d="M 162.9 184.1 L 164.0 184.1 L 164.0 185.1 L 162.9 185.1 L 162.9 187.2 L 161.7 187.2 L 161.7 185.1 L 157.1 185.1 L 157.1 184.3 L 161.0 178.2 L 162.9 178.2 L 162.9 184.1 M 158.6 184.1 L 161.7 184.1 L 161.7 179.0 L 158.6 184.1 " fill="#000000"/>
<path class="legend" d="M 168.3 181.5 Q 169.1 181.5, 169.7 181.9 Q 170.4 182.2, 170.8 182.8 Q 171.1 183.5, 171.1 184.3 Q 171.1 185.3, 170.7 185.9 Q 170.2 186.6, 169.5 186.9 Q 168.8 187.3, 167.9 187.3 Q 167.1 187.3, 166.3 187.0 Q 165.6 186.7, 165.0 186.1 L 165.8 185.3 Q 166.2 185.7, 166.8 186.0 Q 167.4 186.2, 168.0 186.2 Q 168.8 186.2, 169.3 185.7 Q 169.9 185.3, 169.9 184.3 Q 169.9 183.4, 169.3 182.9 Q 168.8 182.5, 167.9 182.5 Q 167.1 182.5, 166.2 182.8 L 165.5 182.5 L 165.9 178.2 L 170.6 178.2 L 170.4 179.2 L 167.0 179.2 L 166.7 181.9 Q 167.5 181.5, 168.3 181.5 " fill="#000000"/>
<path class="legend" d="M 175.2 178.1 Q 176.8 178.1, 177.6 179.2 Q 178.4 180.2, 178.4 182.4 Q 178.4 184.8, 177.4 186.0 Q 176.4 187.3, 174.5 187.3 Q 173.9 187.3, 173.4 187.1 Q 173.0 187.0, 172.5 186.8 L 173.0 185.9 Q 173.7 186.3, 174.5 186.3 Q 175.7 186.3, 176.4 185.4 Q 177.0 184.6, 177.1 182.9 Q 176.6 183.3, 176.1 183.6 Q 175.5 183.8, 174.9 183.8 Q 174.1 183.8, 173.4 183.4 Q 172.8 183.1, 172.5 182.5 Q 172.1 181.9, 172.1 181.1 Q 172.1 180.2, 172.5 179.5 Q 172.9 178.8, 173.6 178.4 Q 174.3 178.1, 175.2 178.1 M 173.4 181.1 Q 173.4 181.9, 173.9 182.3 Q 174.3 182.8, 175.1 182.8 Q 175.6 182.8, 176.2 182.6 Q 176.7 182.3, 177.1 181.9 Q 177.1 180.5, 176.6 179.8 Q 176.1 179.1, 175.2 179.1 Q 174.7 179.1, 174.3 179.4 Q 173.9 179.6, 173.6 180.1 Q 173.4 180.5, 173.4 181.1 " fill="#000000"/>
<path class="legend" d="M 184.2 182.4 Q 185.1 182.8, 185.5 183.3 Q 186.0 183.8, 186.0 184.7 Q 186.0 185.5, 185.6 186.1 Q 185.2 186.7, 184.5 187.0 Q 183.8 187.3, 182.9 187.3 Q 181.4 187.3, 180.5 186.6 Q 179.6 185.9, 179.6 184.7 Q 179.6 184.0, 180.0 183.4 Q 180.4 182.9, 181.2 182.4 Q 180.6 182.1, 180.3 181.6 Q 180.0 181.1, 180.0 180.4 Q 180.0 179.3, 180.7 178.7 Q 181.5 178.1, 182.8 178.1 Q 184.1 178.1, 184.9 178.7 Q 185.7 179.3, 185.7 180.4 Q 185.7 181.0, 185.3 181.5 Q 185.0 182.0, 184.2 182.4 M 182.8 179.0 Q 182.1 179.0, 181.7 179.4 Q 181.2 179.7, 181.2 180.4 Q 181.2 180.8, 181.5 181.2 Q 181.8 181.5, 182.2 181.6 Q 182.6 181.8, 183.4 182.1 Q 183.9 181.7, 184.2 181.3 Q 184.4 180.9, 184.4 180.4 Q 184.4 179.7, 184.0 179.4 Q 183.6 179.0, 182.8 179.0 M 182.9 186.3 Q 183.7 186.3, 184.2 185.9 Q 184.7 185.4, 184.7 184.7 Q 184.7 184.2, 184.5 183.9 Q 184.2 183.6, 183.8 183.4 Q 183.4 183.2, 182.7 183.0 L 182.1 182.8 Q 181.5 183.2, 181.2 183.7 Q 180.9 184.1, 180.9 184.7 Q 180.9 185.4, 181.5 185.9 Q 182.0 186.3, 182.9 186.3 " fill="#000000"/>
<path class="legend" d="M 190.0 183.5 Q 190.0 185.4, 189.5 186.9 Q 188.9 188.4, 187.9 190.0 L 187.2 189.5 Q 188.0 188.0, 188.4 186.6 Q 188.9 185.3, 188.9 183.5 Q 188.9 181.8, 188.4 180.4 Q 188.0 179.1, 187.2 177.6 L 187.9 177.1 Q 188.9 178.7, 189.5 180.2 Q 190.0 181.7, 190.0 183.5 " fill="#000000"/>
<path class="bond-0 atom-0 atom-1" d="M 290.2,122.3 L 291.7,115.8" style="fill:none;fill-rule:evenodd;stroke:#000000;stroke-width:2.0px;stroke-linecap:butt;stroke-linejoin:miter;stroke-opacity:1"/>
<path class="bond-0 atom-0 atom-1" d="M 291.7,115.8 L 293.2,109.4" style="fill:none;fill-rule:evenodd;stroke:#FF0000;stroke-width:2.0px;stroke-linecap:butt;stroke-linejoin:miter;stroke-opacity:1"/>
<path class="bond-1 atom-1 atom-2" d="M 291.2,104.0 L 286.6,99.8" style="fill:none;fill-rule:evenodd;stroke:#FF0000;stroke-width:2.0px;stroke-linecap:butt;stroke-linejoin:miter;stroke-opacity:1"/>
<path class="bond-1 atom-1 atom-2" d="M 286.6,99.8 L 282.0,95.5" style="fill:none;fill-rule:evenodd;stroke:#000000;stroke-width:2.0px;stroke-linecap:butt;stroke-linejoin:miter;stroke-opacity:1"/>
<path class="bond-2 atom-2 atom-3" d="M 282.0,95.5 L 266.6,100.2" style="fill:none;fill-rule:evenodd;stroke:#000000;stroke-width:2.0px;stroke-linecap:butt;stroke-linejoin:miter;stroke-opacity:1"/>
<path class="bond-2 atom-2 atom-3" d="M 280.0,93.6 L 267.2,97.5" style="fill:none;fill-rule:evenodd;stroke:#000000;stroke-width:2.0px;stroke-linecap:butt;stroke-linejoin:miter;stroke-opacity:1"/>
<path class="bond-3 atom-3 atom-4" d="M 266.6,100.2 L 254.8,89.1" style="fill:none;fill-rule:evenodd;stroke:#000000;stroke-width:2.0px;stroke-linecap:butt;stroke-linejoin:miter;stroke-opacity:1"/>
<path class="bond-4 atom-4 atom-5" d="M 254.8,89.1 L 258.4,73.4" style="fill:none;fill-rule:evenodd;stroke:#000000;stroke-width:2.0px;stroke-linecap:butt;stroke-linejoin:miter;stroke-opacity:1"/>
<path class="bond-4 atom-4 atom-5" d="M 257.4,88.3 L 260.5,75.3" style="fill:none;fill-rule:evenodd;stroke:#000000;stroke-width:2.0px;stroke-linecap:butt;stroke-linejoin:miter;stroke-opacity:1"/>
<path class="bond-5 atom-5 atom-6" d="M 258.4,73.4 L 253.5,68.8" style="fill:none;fill-rule:evenodd;stroke:#000000;stroke-width:2.0px;stroke-linecap:butt;stroke-linejoin:miter;stroke-opacity:1"/>
<path class="bond-5 atom-5 atom-6" d="M 253.5,68.8 L 248.5,64.1" style="fill:none;fill-rule:evenodd;stroke:#33CCCC;stroke-width:2.0px;stroke-linecap:butt;stroke-linejoin:miter;stroke-opacity:1"/>
<path class="bond-6 atom-5 atom-7" d="M 258.4,73.4 L 273.9,68.7" style="fill:none;fill-rule:evenodd;stroke:#000000;stroke-width:2.0px;stroke-linecap:butt;stroke-linejoin:miter;stroke-opacity:1"/>
<path class="bond-7 atom-7 atom-8" d="M 273.9,68.7 L 285.7,79.7" style="fill:none;fill-rule:evenodd;stroke:#000000;stroke-width:2.0px;stroke-linecap:butt;stroke-linejoin:miter;stroke-opacity:1"/>
<path class="bond-7 atom-7 atom-8" d="M 273.2,71.4 L 283.0,80.5" style="fill:none;fill-rule:evenodd;stroke:#000000;stroke-width:2.0px;stroke-linecap:butt;stroke-linejoin:miter;stroke-opacity:1"/>
<path class="bond-8 atom-8 atom-9" d="M 285.7,79.7 L 301.1,75.0" style="fill:none;fill-rule:evenodd;stroke:#000000;stroke-width:2.0px;stroke-linecap:butt;stroke-linejoin:miter;stroke-opacity:1"/>
<path class="bond-9 atom-9 atom-10" d="M 301.1,75.0 L 306.4,59.7" style="fill:none;fill-rule:evenodd;stroke:#000000;stroke-width:2.0px;stroke-linecap:butt;stroke-linejoin:miter;stroke-opacity:1"/>
<path class="bond-10 atom-10 atom-11" d="M 306.4,59.7 L 322.6,60.0" style="fill:none;fill-rule:evenodd;stroke:#000000;stroke-width:2.0px;stroke-linecap:butt;stroke-linejoin:miter;stroke-opacity:1"/>
<path class="bond-11 atom-11 atom-12" d="M 322.6,60.0 L 327.3,75.5" style="fill:none;fill-rule:evenodd;stroke:#000000;stroke-width:2.0px;stroke-linecap:butt;stroke-linejoin:miter;stroke-opacity:1"/>
<path class="bond-12 atom-12 atom-13" d="M 327.3,75.5 L 342.6,80.8" style="fill:none;fill-rule:evenodd;stroke:#000000;stroke-width:2.0px;stroke-linecap:butt;stroke-linejoin:miter;stroke-opacity:1"/>
<path class="bond-13 atom-13 atom-14" d="M 342.6,80.8 L 343.8,87.3" style="fill:none;fill-rule:evenodd;stroke:#000000;stroke-width:2.0px;stroke-linecap:butt;stroke-linejoin:miter;stroke-opacity:1"/>
<path class="bond-13 atom-13 atom-14" d="M 343.8,87.3 L 345.1,93.8" style="fill:none;fill-rule:evenodd;stroke:#0000FF;stroke-width:2.0px;stroke-linecap:butt;stroke-linejoin:miter;stroke-opacity:1"/>
<path class="bond-14 atom-12 atom-15" d="M 327.3,75.5 L 322.0,79.2" style="fill:none;fill-rule:evenodd;stroke:#000000;stroke-width:2.0px;stroke-linecap:butt;stroke-linejoin:miter;stroke-opacity:1"/>
<path class="bond-14 atom-12 atom-15" d="M 322.0,79.2 L 316.7,82.9" style="fill:none;fill-rule:evenodd;stroke:#FF0000;stroke-width:2.0px;stroke-linecap:butt;stroke-linejoin:miter;stroke-opacity:1"/>
<path class="bond-15 atom-8 atom-2" d="M 285.7,79.7 L 282.0,95.5" style="fill:none;fill-rule:evenodd;stroke:#000000;stroke-width:2.0px;stroke-linecap:butt;stroke-linejoin:miter;stroke-opacity:1"/>
<path class="bond-16 atom-15 atom-9" d="M 311.4,82.8 L 306.3,78.9" style="fill:none;fill-rule:evenodd;stroke:#FF0000;stroke-width:2.0px;stroke-linecap:butt;stroke-linejoin:miter;stroke-opacity:1"/>
<path class="bond-16 atom-15 atom-9" d="M 306.3,78.9 L 301.1,75.0" style="fill:none;fill-rule:evenodd;stroke:#000000;stroke-width:2.0px;stroke-linecap:butt;stroke-linejoin:miter;stroke-opacity:1"/>
<path d="M 267.3,99.9 L 266.6,100.2 L 266.0,99.6" style="fill:none;stroke:#000000;stroke-width:2.0px;stroke-linecap:butt;stroke-linejoin:miter;stroke-opacity:1;"/>
<path d="M 255.3,89.7 L 254.8,89.1 L 254.9,88.4" style="fill:none;stroke:#000000;stroke-width:2.0px;stroke-linecap:butt;stroke-linejoin:miter;stroke-opacity:1;"/>
<path d="M 273.1,68.9 L 273.9,68.7 L 274.5,69.2" style="fill:none;stroke:#000000;stroke-width:2.0px;stroke-linecap:butt;stroke-linejoin:miter;stroke-opacity:1;"/>
<path d="M 306.2,60.5 L 306.4,59.7 L 307.2,59.8" style="fill:none;stroke:#000000;stroke-width:2.0px;stroke-linecap:butt;stroke-linejoin:miter;stroke-opacity:1;"/>
<path d="M 321.8,60.0 L 322.6,60.0 L 322.8,60.8" style="fill:none;stroke:#000000;stroke-width:2.0px;stroke-linecap:butt;stroke-linejoin:miter;stroke-opacity:1;"/>
<path d="M 341.8,80.5 L 342.6,80.8 L 342.6,81.1" style="fill:none;stroke:#000000;stroke-width:2.0px;stroke-linecap:butt;stroke-linejoin:miter;stroke-opacity:1;"/>
<path class="atom-1" d="M 291.7 106.5 Q 291.7 105.4, 292.3 104.8 Q 292.8 104.2, 293.8 104.2 Q 294.9 104.2, 295.4 104.8 Q 295.9 105.4, 295.9 106.5 Q 295.9 107.6, 295.4 108.3 Q 294.8 108.9, 293.8 108.9 Q 292.8 108.9, 292.3 108.3 Q 291.7 107.6, 291.7 106.5 M 293.8 108.4 Q 294.5 108.4, 294.9 107.9 Q 295.3 107.4, 295.3 106.5 Q 295.3 105.6, 294.9 105.2 Q 294.5 104.7, 293.8 104.7 Q 293.1 104.7, 292.8 105.2 Q 292.4 105.6, 292.4 106.5 Q 292.4 107.4, 292.8 107.9 Q 293.1 108.4, 293.8 108.4 " fill="#FF0000"/>
<path class="atom-6" d="M 245.2 60.1 L 248.0 60.1 L 248.0 60.6 L 245.9 60.6 L 245.9 62.0 L 247.7 62.0 L 247.7 62.5 L 245.9 62.5 L 245.9 64.6 L 245.2 64.6 L 245.2 60.1 " fill="#33CCCC"/>
<path class="atom-14" d="M 344.6 94.4 L 346.1 96.8 Q 346.3 97.0, 346.5 97.5 Q 346.8 97.9, 346.8 97.9 L 346.8 94.4 L 347.4 94.4 L 347.4 98.9 L 346.8 98.9 L 345.1 96.3 Q 345.0 96.0, 344.8 95.6 Q 344.6 95.3, 344.5 95.2 L 344.5 98.9 L 343.9 98.9 L 343.9 94.4 L 344.6 94.4 " fill="#0000FF"/>
<path class="atom-14" d="M 348.3 94.4 L 348.9 94.4 L 348.9 96.3 L 351.2 96.3 L 351.2 94.4 L 351.8 94.4 L 351.8 98.9 L 351.2 98.9 L 351.2 96.8 L 348.9 96.8 L 348.9 98.9 L 348.3 98.9 L 348.3 94.4 " fill="#0000FF"/>
<path class="atom-14" d="M 352.7 98.8 Q 352.8 98.5, 353.1 98.3 Q 353.4 98.2, 353.7 98.2 Q 354.2 98.2, 354.5 98.4 Q 354.7 98.7, 354.7 99.1 Q 354.7 99.6, 354.4 100.0 Q 354.0 100.4, 353.4 100.9 L 354.8 100.9 L 354.8 101.2 L 352.7 101.2 L 352.7 101.0 Q 353.3 100.5, 353.6 100.3 Q 354.0 100.0, 354.1 99.7 Q 354.3 99.4, 354.3 99.1 Q 354.3 98.8, 354.1 98.7 Q 354.0 98.5, 353.7 98.5 Q 353.5 98.5, 353.3 98.6 Q 353.2 98.7, 353.1 98.9 L 352.7 98.8 " fill="#0000FF"/>
<path class="atom-15" d="M 311.9 84.8 Q 311.9 83.7, 312.5 83.1 Q 313.0 82.4, 314.0 82.4 Q 315.1 82.4, 315.6 83.1 Q 316.1 83.7, 316.1 84.8 Q 316.1 85.9, 315.6 86.5 Q 315.0 87.1, 314.0 87.1 Q 313.0 87.1, 312.5 86.5 Q 311.9 85.9, 311.9 84.8 M 314.0 86.6 Q 314.7 86.6, 315.1 86.2 Q 315.5 85.7, 315.5 84.8 Q 315.5 83.9, 315.1 83.4 Q 314.7 83.0, 314.0 83.0 Q 313.3 83.0, 313.0 83.4 Q 312.6 83.9, 312.6 84.8 Q 312.6 85.7, 313.0 86.2 Q 313.3 86.6, 314.0 86.6 " fill="#FF0000"/>
<path class="legend" d="M 212.8 179.2 L 210.0 179.2 L 210.0 178.1 L 216.7 178.1 L 216.7 179.2 L 214.0 179.2 L 214.0 187.2 L 212.8 187.2 L 212.8 179.2 " fill="#000000"/>
<path class="legend" d="M 218.0 180.6 L 218.2 181.5 Q 218.8 180.5, 220.0 180.5 Q 220.3 180.5, 220.8 180.6 L 220.6 181.7 Q 220.1 181.6, 219.8 181.6 Q 219.2 181.6, 218.9 181.8 Q 218.5 182.0, 218.2 182.5 L 218.2 187.2 L 217.0 187.2 L 217.0 180.6 L 218.0 180.6 " fill="#000000"/>
<path class="legend" d="M 227.0 180.6 L 227.0 187.2 L 226.0 187.2 L 225.8 186.3 Q 225.0 187.3, 223.6 187.3 Q 222.5 187.3, 221.9 186.7 Q 221.4 186.1, 221.4 185.0 L 221.4 180.6 L 222.6 180.6 L 222.6 184.9 Q 222.6 185.6, 222.9 186.0 Q 223.2 186.3, 223.8 186.3 Q 224.4 186.3, 224.9 186.1 Q 225.4 185.8, 225.8 185.3 L 225.8 180.6 L 227.0 180.6 " fill="#000000"/>
<path class="legend" d="M 228.4 183.9 Q 228.4 182.3, 229.2 181.4 Q 230.0 180.5, 231.5 180.5 Q 232.9 180.5, 233.5 181.4 Q 234.2 182.2, 234.2 183.8 L 234.2 184.0 L 229.6 184.0 Q 229.6 185.2, 230.1 185.7 Q 230.6 186.3, 231.6 186.3 Q 232.1 186.3, 232.5 186.2 Q 233.0 186.1, 233.6 185.8 L 233.9 186.6 Q 233.3 187.0, 232.7 187.1 Q 232.1 187.3, 231.5 187.3 Q 230.0 187.3, 229.2 186.4 Q 228.4 185.5, 228.4 183.9 M 231.5 181.4 Q 230.7 181.4, 230.3 181.9 Q 229.8 182.3, 229.7 183.2 L 232.9 183.2 Q 232.8 182.3, 232.5 181.9 Q 232.1 181.4, 231.5 181.4 " fill="#000000"/>
<path class="legend" d="M 235.1 185.7 L 236.3 185.7 L 236.3 187.0 L 235.1 187.0 L 235.1 185.7 M 235.1 181.3 L 236.3 181.3 L 236.3 182.6 L 235.1 182.6 L 235.1 181.3 " fill="#000000"/>
<path class="legend" d="" fill="#000000"/>
<path class="legend" d="M 245.6 187.3 Q 244.0 187.3, 243.1 186.0 Q 242.3 184.8, 242.3 182.6 Q 242.3 180.5, 243.1 179.3 Q 244.0 178.0, 245.6 178.0 Q 247.3 178.0, 248.1 179.3 Q 248.9 180.5, 248.9 182.6 Q 248.9 184.8, 248.1 186.0 Q 247.3 187.3, 245.6 187.3 M 245.6 186.3 Q 246.6 186.3, 247.1 185.3 Q 247.7 184.4, 247.7 182.6 Q 247.7 180.9, 247.1 180.0 Q 246.6 179.1, 245.6 179.1 Q 244.7 179.1, 244.1 180.0 Q 243.6 180.9, 243.6 182.6 Q 243.6 184.4, 244.1 185.3 Q 244.7 186.3, 245.6 186.3 " fill="#000000"/>
<path class="legend" d="M 250.2 185.9 L 251.4 185.9 L 251.4 187.2 L 250.2 187.2 L 250.2 185.9 " fill="#000000"/>
<path class="legend" d="M 255.9 187.3 Q 254.3 187.3, 253.5 186.0 Q 252.6 184.8, 252.6 182.6 Q 252.6 180.5, 253.5 179.3 Q 254.3 178.0, 255.9 178.0 Q 257.6 178.0, 258.4 179.3 Q 259.2 180.5, 259.2 182.6 Q 259.2 184.8, 258.4 186.0 Q 257.6 187.3, 255.9 187.3 M 255.9 186.3 Q 256.9 186.3, 257.5 185.3 Q 258.0 184.4, 258.0 182.6 Q 258.0 180.9, 257.5 180.0 Q 256.9 179.1, 255.9 179.1 Q 255.0 179.1, 254.4 180.0 Q 253.9 180.9, 253.9 182.6 Q 253.9 184.4, 254.4 185.3 Q 255.0 186.3, 255.9 186.3 " fill="#000000"/>
<path class="legend" d="M 260.5 185.9 L 261.7 185.9 L 261.7 186.9 L 261.5 188.7 L 261.0 188.7 L 261.0 187.2 L 260.5 187.2 L 260.5 185.9 " fill="#000000"/>
<path class="legend" d="" fill="#000000"/>
<path class="legend" d="M 270.3 178.1 Q 271.8 178.1, 272.6 178.8 Q 273.4 179.5, 273.4 180.8 Q 273.4 182.0, 272.6 182.8 Q 271.8 183.5, 270.3 183.5 L 268.8 183.5 L 268.8 187.2 L 267.6 187.2 L 267.6 178.1 L 270.3 178.1 M 270.3 182.4 Q 271.1 182.4, 271.6 182.0 Q 272.1 181.6, 272.1 180.8 Q 272.1 180.0, 271.6 179.6 Q 271.2 179.2, 270.3 179.2 L 268.8 179.2 L 268.8 182.4 L 270.3 182.4 " fill="#000000"/>
<path class="legend" d="M 275.3 180.6 L 275.5 181.5 Q 276.1 180.5, 277.3 180.5 Q 277.6 180.5, 278.1 180.6 L 277.9 181.7 Q 277.4 181.6, 277.1 181.6 Q 276.5 181.6, 276.2 181.8 Q 275.8 182.0, 275.5 182.5 L 275.5 187.2 L 274.3 187.2 L 274.3 180.6 L 275.3 180.6 " fill="#000000"/>
<path class="legend" d="M 278.7 183.9 Q 278.7 182.3, 279.5 181.4 Q 280.3 180.5, 281.8 180.5 Q 283.2 180.5, 283.8 181.4 Q 284.5 182.2, 284.5 183.8 L 284.5 184.0 L 279.9 184.0 Q 279.9 185.2, 280.4 185.7 Q 280.9 186.3, 281.9 186.3 Q 282.4 186.3, 282.8 186.2 Q 283.3 186.1, 283.9 185.8 L 284.2 186.6 Q 283.6 187.0, 283.0 187.1 Q 282.4 187.3, 281.8 187.3 Q 280.3 187.3, 279.5 186.4 Q 278.7 185.5, 278.7 183.9 M 281.8 181.4 Q 281.0 181.4, 280.6 181.9 Q 280.1 182.3, 280.0 183.2 L 283.2 183.2 Q 283.1 182.3, 282.8 181.9 Q 282.4 181.4, 281.8 181.4 " fill="#000000"/>
<path class="legend" d="M 291.3 177.5 L 291.3 187.2 L 290.4 187.2 L 290.2 186.4 Q 289.5 187.3, 288.2 187.3 Q 286.9 187.3, 286.1 186.4 Q 285.4 185.6, 285.4 184.0 Q 285.4 182.4, 286.3 181.4 Q 287.2 180.5, 288.7 180.5 Q 289.4 180.5, 290.1 180.7 L 290.1 177.5 L 291.3 177.5 M 288.3 186.3 Q 289.0 186.3, 289.5 186.0 Q 289.9 185.6, 290.1 185.0 L 290.1 181.6 Q 289.5 181.4, 288.7 181.4 Q 287.7 181.4, 287.2 182.1 Q 286.6 182.8, 286.6 184.0 Q 286.6 185.1, 287.0 185.7 Q 287.5 186.3, 288.3 186.3 " fill="#000000"/>
<path class="legend" d="M 292.7 185.7 L 294.0 185.7 L 294.0 187.0 L 292.7 187.0 L 292.7 185.7 M 292.7 181.3 L 294.0 181.3 L 294.0 182.6 L 292.7 182.6 L 292.7 181.3 " fill="#000000"/>
<path class="legend" d="" fill="#000000"/>
<path class="legend" d="M 300.5 186.1 L 302.5 186.1 L 302.5 179.4 L 300.3 180.1 L 300.0 179.3 L 302.8 178.1 L 303.7 178.2 L 303.7 186.1 L 305.4 186.1 L 305.4 187.2 L 300.5 187.2 L 300.5 186.1 " fill="#000000"/>
<path class="legend" d="" fill="#000000"/>
<path class="legend" d="M 311.0 183.5 Q 311.0 181.7, 311.5 180.2 Q 312.1 178.7, 313.1 177.1 L 313.8 177.5 Q 313.0 179.0, 312.6 180.4 Q 312.1 181.8, 312.1 183.5 Q 312.1 185.3, 312.6 186.6 Q 313.0 188.0, 313.8 189.5 L 313.1 190.0 Q 312.1 188.4, 311.5 186.9 Q 311.0 185.4, 311.0 183.5 " fill="#000000"/>
<path class="legend" d="M 317.2 178.1 Q 318.7 178.1, 319.5 178.8 Q 320.3 179.5, 320.3 180.8 Q 320.3 182.0, 319.5 182.8 Q 318.7 183.5, 317.2 183.5 L 315.7 183.5 L 315.7 187.2 L 314.5 187.2 L 314.5 178.1 L 317.2 178.1 M 317.2 182.4 Q 318.1 182.4, 318.5 182.0 Q 319.0 181.6, 319.0 180.8 Q 319.0 180.0, 318.5 179.6 Q 318.1 179.2, 317.2 179.2 L 315.7 179.2 L 315.7 182.4 L 317.2 182.4 " fill="#000000"/>
<path class="legend" d="M 322.2 180.6 L 322.4 181.5 Q 323.1 180.5, 324.2 180.5 Q 324.5 180.5, 325.0 180.6 L 324.8 181.7 Q 324.3 181.6, 324.0 181.6 Q 323.4 181.6, 323.1 181.8 Q 322.7 182.0, 322.5 182.5 L 322.5 187.2 L 321.3 187.2 L 321.3 180.6 L 322.2 180.6 " fill="#000000"/>
<path class="legend" d="M 325.6 183.9 Q 325.6 182.3, 326.4 181.4 Q 327.2 180.5, 328.7 180.5 Q 330.2 180.5, 331.0 181.4 Q 331.8 182.3, 331.8 183.9 Q 331.8 185.5, 331.0 186.4 Q 330.2 187.3, 328.7 187.3 Q 327.2 187.3, 326.4 186.4 Q 325.6 185.5, 325.6 183.9 M 326.8 183.9 Q 326.8 185.1, 327.3 185.7 Q 327.8 186.3, 328.7 186.3 Q 329.6 186.3, 330.1 185.7 Q 330.6 185.1, 330.6 183.9 Q 330.6 182.7, 330.1 182.1 Q 329.6 181.4, 328.7 181.4 Q 327.8 181.4, 327.3 182.1 Q 326.8 182.7, 326.8 183.9 " fill="#000000"/>
<path class="legend" d="M 335.9 180.5 Q 337.2 180.5, 338.0 181.4 Q 338.7 182.2, 338.7 183.8 Q 338.7 185.4, 337.8 186.4 Q 336.9 187.3, 335.4 187.3 Q 334.3 187.3, 333.4 186.9 L 332.8 186.7 L 332.8 177.5 L 334.0 177.5 L 334.0 181.3 Q 334.7 180.5, 335.9 180.5 M 335.4 186.3 Q 336.4 186.3, 336.9 185.7 Q 337.5 185.0, 337.5 183.8 Q 337.5 182.7, 337.1 182.1 Q 336.6 181.4, 335.8 181.4 Q 335.1 181.4, 334.7 181.8 Q 334.2 182.2, 334.0 182.8 L 334.0 186.1 Q 334.7 186.3, 335.4 186.3 " fill="#000000"/>
<path class="legend" d="M 339.7 185.7 L 341.0 185.7 L 341.0 187.0 L 339.7 187.0 L 339.7 185.7 M 339.7 181.3 L 341.0 181.3 L 341.0 182.6 L 339.7 182.6 L 339.7 181.3 " fill="#000000"/>
<path class="legend" d="" fill="#000000"/>
<path class="legend" d="M 350.3 187.3 Q 348.6 187.3, 347.8 186.0 Q 347.0 184.8, 347.0 182.6 Q 347.0 180.5, 347.8 179.3 Q 348.6 178.0, 350.3 178.0 Q 352.0 178.0, 352.8 179.3 Q 353.6 180.5, 353.6 182.6 Q 353.6 184.8, 352.8 186.0 Q 351.9 187.3, 350.3 187.3 M 350.3 186.3 Q 351.3 186.3, 351.8 185.3 Q 352.3 184.4, 352.3 182.6 Q 352.3 180.9, 351.8 180.0 Q 351.3 179.1, 350.3 179.1 Q 349.3 179.1, 348.8 180.0 Q 348.3 180.9, 348.3 182.6 Q 348.3 184.4, 348.8 185.3 Q 349.3 186.3, 350.3 186.3 " fill="#000000"/>
<path class="legend" d="M 354.8 185.9 L 356.1 185.9 L 356.1 187.2 L 354.8 187.2 L 354.8 185.9 " fill="#000000"/>
<path class="legend" d="M 360.3 178.0 Q 361.9 178.0, 362.7 179.1 Q 363.6 180.2, 363.6 182.4 Q 363.6 184.8, 362.5 186.0 Q 361.6 187.3, 359.6 187.3 Q 359.1 187.3, 358.6 187.1 Q 358.1 187.0, 357.7 186.7 L 358.1 185.9 Q 358.8 186.3, 359.6 186.3 Q 360.9 186.3, 361.5 185.4 Q 362.2 184.6, 362.3 182.9 Q 361.8 183.3, 361.2 183.6 Q 360.6 183.8, 360.0 183.8 Q 359.2 183.8, 358.6 183.4 Q 358.0 183.1, 357.6 182.5 Q 357.3 181.8, 357.3 181.0 Q 357.3 180.2, 357.7 179.5 Q 358.1 178.8, 358.8 178.4 Q 359.4 178.0, 360.3 178.0 M 358.6 181.0 Q 358.6 181.8, 359.0 182.3 Q 359.5 182.8, 360.3 182.8 Q 360.8 182.8, 361.3 182.5 Q 361.9 182.3, 362.3 181.9 Q 362.2 180.4, 361.7 179.8 Q 361.3 179.1, 360.3 179.1 Q 359.8 179.1, 359.4 179.3 Q 359.0 179.6, 358.8 180.0 Q 358.6 180.5, 358.6 181.0 " fill="#000000"/>
<path class="legend" d="M 368.1 187.3 Q 366.5 187.3, 365.6 186.0 Q 364.8 184.8, 364.8 182.6 Q 364.8 180.5, 365.6 179.3 Q 366.4 178.0, 368.1 178.0 Q 369.8 178.0, 370.6 179.3 Q 371.4 180.5, 371.4 182.6 Q 371.4 184.8, 370.6 186.0 Q 369.8 187.3, 368.1 187.3 M 368.1 186.3 Q 369.1 186.3, 369.6 185.3 Q 370.1 184.4, 370.1 182.6 Q 370.1 180.9, 369.6 180.0 Q 369.1 179.1, 368.1 179.1 Q 367.1 179.1, 366.6 180.0 Q 366.1 180.9, 366.1 182.6 Q 366.1 184.4, 366.6 185.3 Q 367.1 186.3, 368.1 186.3 " fill="#000000"/>
<path class="legend" d="M 377.0 182.4 Q 377.8 182.7, 378.3 183.2 Q 378.7 183.8, 378.7 184.7 Q 378.7 185.5, 378.3 186.1 Q 377.9 186.6, 377.2 187.0 Q 376.5 187.3, 375.6 187.3 Q 374.6 187.3, 373.9 187.0 Q 373.2 186.6, 372.6 185.9 L 373.4 185.2 Q 373.9 185.8, 374.4 186.0 Q 374.9 186.3, 375.6 186.3 Q 376.4 186.3, 376.9 185.8 Q 377.4 185.4, 377.4 184.7 Q 377.4 183.8, 376.9 183.4 Q 376.4 182.9, 375.3 182.9 L 374.6 182.9 L 374.6 182.0 L 375.2 182.0 Q 376.2 182.0, 376.7 181.6 Q 377.2 181.2, 377.2 180.3 Q 377.2 179.8, 376.8 179.4 Q 376.4 179.1, 375.6 179.1 Q 374.9 179.1, 374.4 179.3 Q 373.9 179.6, 373.6 180.3 L 372.7 179.8 Q 373.0 179.0, 373.8 178.6 Q 374.6 178.0, 375.6 178.0 Q 377.0 178.0, 377.7 178.7 Q 378.5 179.3, 378.5 180.3 Q 378.5 181.1, 378.1 181.6 Q 377.7 182.1, 377.0 182.4 " fill="#000000"/>
<path class="legend" d="M 383.4 181.5 Q 384.2 181.5, 384.8 181.9 Q 385.4 182.2, 385.8 182.8 Q 386.1 183.5, 386.1 184.3 Q 386.1 185.1, 385.7 185.8 Q 385.3 186.5, 384.6 186.9 Q 383.9 187.3, 383.1 187.3 Q 381.5 187.3, 380.6 186.2 Q 379.8 185.1, 379.8 182.9 Q 379.8 180.5, 380.8 179.3 Q 381.8 178.0, 383.8 178.0 Q 384.3 178.0, 384.8 178.2 Q 385.3 178.3, 385.7 178.6 L 385.3 179.4 Q 384.6 179.1, 383.8 179.1 Q 382.5 179.1, 381.9 179.9 Q 381.2 180.7, 381.1 182.4 Q 381.6 182.0, 382.2 181.8 Q 382.8 181.5, 383.4 181.5 M 383.1 186.2 Q 383.6 186.2, 384.0 186.0 Q 384.4 185.7, 384.6 185.3 Q 384.8 184.8, 384.8 184.3 Q 384.8 183.5, 384.4 183.0 Q 383.9 182.6, 383.1 182.6 Q 382.6 182.6, 382.0 182.8 Q 381.5 183.0, 381.1 183.4 Q 381.2 184.9, 381.7 185.6 Q 382.1 186.2, 383.1 186.2 " fill="#000000"/>
<path class="legend" d="M 390.0 183.5 Q 390.0 185.4, 389.5 186.9 Q 388.9 188.4, 387.9 190.0 L 387.2 189.5 Q 388.0 188.0, 388.4 186.6 Q 388.9 185.3, 388.9 183.5 Q 388.9 181.8, 388.4 180.4 Q 388.0 179.0, 387.2 177.5 L 387.9 177.1 Q 388.9 178.7, 389.5 180.2 Q 390.0 181.7, 390.0 183.5 " fill="#000000"/>
<path class="bond-0 atom-0 atom-1" d="M 499.9,117.8 L 497.9,111.6" style="fill:none;fill-rule:evenodd;stroke:#000000;stroke-width:2.0px;stroke-linecap:butt;stroke-linejoin:miter;stroke-opacity:1"/>
<path class="bond-0 atom-0 atom-1" d="M 497.9,111.6 L 495.8,105.4" style="fill:none;fill-rule:evenodd;stroke:#FF0000;stroke-width:2.0px;stroke-linecap:butt;stroke-linejoin:miter;stroke-opacity:1"/>
<path class="bond-1 atom-1 atom-2" d="M 492.2,102.0 L 485.6,100.6" style="fill:none;fill-rule:evenodd;stroke:#FF0000;stroke-width:2.0px;stroke-linecap:butt;stroke-linejoin:miter;stroke-opacity:1"/>
<path class="bond-1 atom-1 atom-2" d="M 485.6,100.6 L 479.0,99.3" style="fill:none;fill-rule:evenodd;stroke:#000000;stroke-width:2.0px;stroke-linecap:butt;stroke-linejoin:miter;stroke-opacity:1"/>
<path class="bond-2 atom-2 atom-3" d="M 479.0,99.3 L 468.3,111.4" style="fill:none;fill-rule:evenodd;stroke:#000000;stroke-width:2.0px;stroke-linecap:butt;stroke-linejoin:miter;stroke-opacity:1"/>
<path class="bond-2 atom-2 atom-3" d="M 476.2,98.7 L 467.4,108.7" style="fill:none;fill-rule:evenodd;stroke:#000000;stroke-width:2.0px;stroke-linecap:butt;stroke-linejoin:miter;stroke-opacity:1"/>
<path class="bond-3 atom-3 atom-4" d="M 468.3,111.4 L 452.4,108.1" style="fill:none;fill-rule:evenodd;stroke:#000000;stroke-width:2.0px;stroke-linecap:butt;stroke-linejoin:miter;stroke-opacity:1"/>
<path class="bond-4 atom-4 atom-5" d="M 452.4,108.1 L 447.3,92.8" style="fill:none;fill-rule:evenodd;stroke:#000000;stroke-width:2.0px;stroke-linecap:butt;stroke-linejoin:miter;stroke-opacity:1"/>
<path class="bond-4 atom-4 atom-5" d="M 454.3,106.0 L 450.0,93.4" style="fill:none;fill-rule:evenodd;stroke:#000000;stroke-width:2.0px;stroke-linecap:butt;stroke-linejoin:miter;stroke-opacity:1"/>
<path class="bond-5 atom-5 atom-6" d="M 447.3,92.8 L 440.3,91.4" style="fill:none;fill-rule:evenodd;stroke:#000000;stroke-width:2.0px;stroke-linecap:butt;stroke-linejoin:miter;stroke-opacity:1"/>
<path class="bond-5 atom-5 atom-6" d="M 440.3,91.4 L 433.4,90.0" style="fill:none;fill-rule:evenodd;stroke:#33CCCC;stroke-width:2.0px;stroke-linecap:butt;stroke-linejoin:miter;stroke-opacity:1"/>
<path class="bond-6 atom-5 atom-7" d="M 447.3,92.8 L 458.0,80.7" style="fill:none;fill-rule:evenodd;stroke:#000000;stroke-width:2.0px;stroke-linecap:butt;stroke-linejoin:miter;stroke-opacity:1"/>
<path class="bond-7 atom-7 atom-8" d="M 458.0,80.7 L 473.9,83.9" style="fill:none;fill-rule:evenodd;stroke:#000000;stroke-width:2.0px;stroke-linecap:butt;stroke-linejoin:miter;stroke-opacity:1"/>
<path class="bond-7 atom-7 atom-8" d="M 458.9,83.4 L 472.0,86.0" style="fill:none;fill-rule:evenodd;stroke:#000000;stroke-width:2.0px;stroke-linecap:butt;stroke-linejoin:miter;stroke-opacity:1"/>
<path class="bond-8 atom-8 atom-9" d="M 473.9,83.9 L 484.6,71.8" style="fill:none;fill-rule:evenodd;stroke:#000000;stroke-width:2.0px;stroke-linecap:butt;stroke-linejoin:miter;stroke-opacity:1"/>
<path class="bond-9 atom-9 atom-10" d="M 484.6,71.8 L 500.4,75.1" style="fill:none;fill-rule:evenodd;stroke:#000000;stroke-width:2.0px;stroke-linecap:butt;stroke-linejoin:miter;stroke-opacity:1"/>
<path class="bond-10 atom-10 atom-11" d="M 500.4,75.1 L 512.3,64.2" style="fill:none;fill-rule:evenodd;stroke:#000000;stroke-width:2.0px;stroke-linecap:butt;stroke-linejoin:miter;stroke-opacity:1"/>
<path class="bond-11 atom-11 atom-12" d="M 512.3,64.2 L 526.4,72.1" style="fill:none;fill-rule:evenodd;stroke:#000000;stroke-width:2.0px;stroke-linecap:butt;stroke-linejoin:miter;stroke-opacity:1"/>
<path class="bond-12 atom-12 atom-13" d="M 526.4,72.1 L 523.2,88.0" style="fill:none;fill-rule:evenodd;stroke:#000000;stroke-width:2.0px;stroke-linecap:butt;stroke-linejoin:miter;stroke-opacity:1"/>
<path class="bond-13 atom-13 atom-14" d="M 523.2,88.0 L 534.1,99.9" style="fill:none;fill-rule:evenodd;stroke:#000000;stroke-width:2.0px;stroke-linecap:butt;stroke-linejoin:miter;stroke-opacity:1"/>
<path class="bond-14 atom-14 atom-15" d="M 534.1,99.9 L 549.9,96.4" style="fill:none;fill-rule:evenodd;stroke:#000000;stroke-width:2.0px;stroke-linecap:butt;stroke-linejoin:miter;stroke-opacity:1"/>
<path class="bond-15 atom-15 atom-16" d="M 549.9,96.4 L 554.2,101.1" style="fill:none;fill-rule:evenodd;stroke:#000000;stroke-width:2.0px;stroke-linecap:butt;stroke-linejoin:miter;stroke-opacity:1"/>
<path class="bond-15 atom-15 atom-16" d="M 554.2,101.1 L 558.5,105.8" style="fill:none;fill-rule:evenodd;stroke:#0000FF;stroke-width:2.0px;stroke-linecap:butt;stroke-linejoin:miter;stroke-opacity:1"/>
<path class="bond-16 atom-13 atom-17" d="M 523.2,88.0 L 516.5,88.7" style="fill:none;fill-rule:evenodd;stroke:#000000;stroke-width:2.0px;stroke-linecap:butt;stroke-linejoin:miter;stroke-opacity:1"/>
<path class="bond-16 atom-13 atom-17" d="M 516.5,88.7 L 509.7,89.5" style="fill:none;fill-rule:evenodd;stroke:#FF0000;stroke-width:2.0px;stroke-linecap:butt;stroke-linejoin:miter;stroke-opacity:1"/>
<path class="bond-17 atom-8 atom-2" d="M 473.9,83.9 L 479.0,99.3" style="fill:none;fill-rule:evenodd;stroke:#000000;stroke-width:2.0px;stroke-linecap:butt;stroke-linejoin:miter;stroke-opacity:1"/>
<path class="bond-18 atom-17 atom-10" d="M 505.8,86.9 L 503.1,81.0" style="fill:none;fill-rule:evenodd;stroke:#FF0000;stroke-width:2.0px;stroke-linecap:butt;stroke-linejoin:miter;stroke-opacity:1"/>
<path class="bond-18 atom-17 atom-10" d="M 503.1,81.0 L 500.4,75.1" style="fill:none;fill-rule:evenodd;stroke:#000000;stroke-width:2.0px;stroke-linecap:butt;stroke-linejoin:miter;stroke-opacity:1"/>
<path d="M 468.8,110.8 L 468.3,111.4 L 467.5,111.2" style="fill:none;stroke:#000000;stroke-width:2.0px;stroke-linecap:butt;stroke-linejoin:miter;stroke-opacity:1;"/>
<path d="M 453.2,108.3 L 452.4,108.1 L 452.2,107.4" style="fill:none;stroke:#000000;stroke-width:2.0px;stroke-linecap:butt;stroke-linejoin:miter;stroke-opacity:1;"/>
<path d="M 457.5,81.3 L 458.0,80.7 L 458.8,80.9" style="fill:none;stroke:#000000;stroke-width:2.0px;stroke-linecap:butt;stroke-linejoin:miter;stroke-opacity:1;"/>
<path d="M 484.0,72.4 L 484.6,71.8 L 485.4,72.0" style="fill:none;stroke:#000000;stroke-width:2.0px;stroke-linecap:butt;stroke-linejoin:miter;stroke-opacity:1;"/>
<path d="M 511.7,64.7 L 512.3,64.2 L 513.0,64.6" style="fill:none;stroke:#000000;stroke-width:2.0px;stroke-linecap:butt;stroke-linejoin:miter;stroke-opacity:1;"/>
<path d="M 525.7,71.7 L 526.4,72.1 L 526.2,72.9" style="fill:none;stroke:#000000;stroke-width:2.0px;stroke-linecap:butt;stroke-linejoin:miter;stroke-opacity:1;"/>
<path d="M 533.5,99.3 L 534.1,99.9 L 534.9,99.7" style="fill:none;stroke:#000000;stroke-width:2.0px;stroke-linecap:butt;stroke-linejoin:miter;stroke-opacity:1;"/>
<path d="M 549.1,96.6 L 549.9,96.4 L 550.1,96.6" style="fill:none;stroke:#000000;stroke-width:2.0px;stroke-linecap:butt;stroke-linejoin:miter;stroke-opacity:1;"/>
<path class="atom-1" d="M 492.7 102.5 Q 492.7 101.4, 493.3 100.8 Q 493.8 100.2, 494.8 100.2 Q 495.8 100.2, 496.4 100.8 Q 496.9 101.4, 496.9 102.5 Q 496.9 103.6, 496.4 104.3 Q 495.8 104.9, 494.8 104.9 Q 493.8 104.9, 493.3 104.3 Q 492.7 103.6, 492.7 102.5 M 494.8 104.4 Q 495.5 104.4, 495.9 103.9 Q 496.3 103.4, 496.3 102.5 Q 496.3 101.6, 495.9 101.2 Q 495.5 100.7, 494.8 100.7 Q 494.1 100.7, 493.7 101.2 Q 493.4 101.6, 493.4 102.5 Q 493.4 103.4, 493.7 103.9 Q 494.1 104.4, 494.8 104.4 " fill="#FF0000"/>
<path class="atom-6" d="M 430.1 87.3 L 432.8 87.3 L 432.8 87.8 L 430.7 87.8 L 430.7 89.2 L 432.6 89.2 L 432.6 89.7 L 430.7 89.7 L 430.7 91.9 L 430.1 91.9 L 430.1 87.3 " fill="#33CCCC"/>
<path class="atom-16" d="M 559.8 106.0 L 561.3 108.5 Q 561.4 108.7, 561.7 109.1 Q 561.9 109.6, 561.9 109.6 L 561.9 106.0 L 562.5 106.0 L 562.5 110.6 L 561.9 110.6 L 560.3 108.0 Q 560.1 107.7, 559.9 107.3 Q 559.7 106.9, 559.6 106.8 L 559.6 110.6 L 559.0 110.6 L 559.0 106.0 L 559.8 106.0 " fill="#0000FF"/>
<path class="atom-16" d="M 563.4 106.0 L 564.0 106.0 L 564.0 108.0 L 566.4 108.0 L 566.4 106.0 L 567.0 106.0 L 567.0 110.6 L 566.4 110.6 L 566.4 108.5 L 564.0 108.5 L 564.0 110.6 L 563.4 110.6 L 563.4 106.0 " fill="#0000FF"/>
<path class="atom-16" d="M 567.9 110.5 Q 568.0 110.2, 568.2 110.0 Q 568.5 109.8, 568.9 109.8 Q 569.3 109.8, 569.6 110.1 Q 569.8 110.3, 569.8 110.8 Q 569.8 111.2, 569.5 111.6 Q 569.2 112.1, 568.5 112.6 L 569.9 112.6 L 569.9 112.9 L 567.9 112.9 L 567.9 112.6 Q 568.4 112.2, 568.8 111.9 Q 569.1 111.6, 569.3 111.3 Q 569.4 111.1, 569.4 110.8 Q 569.4 110.5, 569.3 110.4 Q 569.1 110.2, 568.9 110.2 Q 568.6 110.2, 568.5 110.3 Q 568.3 110.4, 568.2 110.6 L 567.9 110.5 " fill="#0000FF"/>
<path class="atom-17" d="M 505.0 89.8 Q 505.0 88.7, 505.6 88.1 Q 506.1 87.5, 507.1 87.5 Q 508.1 87.5, 508.7 88.1 Q 509.2 88.7, 509.2 89.8 Q 509.2 90.9, 508.7 91.5 Q 508.1 92.2, 507.1 92.2 Q 506.1 92.2, 505.6 91.5 Q 505.0 90.9, 505.0 89.8 M 507.1 91.7 Q 507.8 91.7, 508.2 91.2 Q 508.6 90.7, 508.6 89.8 Q 508.6 88.9, 508.2 88.4 Q 507.8 88.0, 507.1 88.0 Q 506.4 88.0, 506.0 88.4 Q 505.7 88.9, 505.7 89.8 Q 505.7 90.7, 506.0 91.2 Q 506.4 91.7, 507.1 91.7 " fill="#FF0000"/>
<path class="legend" d="M 412.8 179.1 L 410.0 179.1 L 410.0 178.0 L 416.7 178.0 L 416.7 179.1 L 414.1 179.1 L 414.1 187.1 L 412.8 187.1 L 412.8 179.1 " fill="#000000"/>
<path class="legend" d="M 418.1 180.5 L 418.2 181.4 Q 418.9 180.4, 420.1 180.4 Q 420.4 180.4, 420.9 180.5 L 420.7 181.6 Q 420.2 181.5, 419.8 181.5 Q 419.3 181.5, 418.9 181.7 Q 418.6 181.9, 418.3 182.4 L 418.3 187.1 L 417.1 187.1 L 417.1 180.5 L 418.1 180.5 " fill="#000000"/>
<path class="legend" d="M 427.1 180.5 L 427.1 187.1 L 426.1 187.1 L 426.0 186.2 Q 425.1 187.3, 423.7 187.3 Q 422.6 187.3, 422.1 186.7 Q 421.5 186.1, 421.5 184.9 L 421.5 180.5 L 422.7 180.5 L 422.7 184.8 Q 422.7 185.6, 423.0 186.0 Q 423.3 186.3, 424.0 186.3 Q 424.6 186.3, 425.1 186.0 Q 425.6 185.8, 425.9 185.3 L 425.9 180.5 L 427.1 180.5 " fill="#000000"/>
<path class="legend" d="M 428.6 183.8 Q 428.6 182.2, 429.4 181.3 Q 430.2 180.4, 431.7 180.4 Q 433.1 180.4, 433.8 181.3 Q 434.4 182.1, 434.4 183.8 L 434.4 184.0 L 429.8 184.0 Q 429.8 185.1, 430.3 185.7 Q 430.8 186.3, 431.8 186.3 Q 432.3 186.3, 432.8 186.2 Q 433.2 186.0, 433.8 185.8 L 434.2 186.6 Q 433.5 186.9, 432.9 187.1 Q 432.3 187.2, 431.7 187.2 Q 430.2 187.2, 429.4 186.3 Q 428.6 185.4, 428.6 183.8 M 431.7 181.4 Q 430.9 181.4, 430.4 181.8 Q 430.0 182.2, 429.8 183.1 L 433.1 183.1 Q 433.0 182.2, 432.7 181.8 Q 432.3 181.4, 431.7 181.4 " fill="#000000"/>
<path class="legend" d="M 435.3 185.6 L 436.6 185.6 L 436.6 186.9 L 435.3 186.9 L 435.3 185.6 M 435.3 181.2 L 436.6 181.2 L 436.6 182.5 L 435.3 182.5 L 435.3 181.2 " fill="#000000"/>
<path class="legend" d="" fill="#000000"/>
<path class="legend" d="M 445.9 187.2 Q 444.3 187.2, 443.4 186.0 Q 442.6 184.8, 442.6 182.6 Q 442.6 180.4, 443.4 179.1 Q 444.3 177.9, 445.9 177.9 Q 447.6 177.9, 448.5 179.1 Q 449.3 180.4, 449.3 182.6 Q 449.3 184.8, 448.4 186.0 Q 447.6 187.2, 445.9 187.2 M 445.9 186.2 Q 446.9 186.2, 447.5 185.3 Q 448.0 184.4, 448.0 182.6 Q 448.0 180.8, 447.5 179.9 Q 446.9 179.0, 445.9 179.0 Q 445.0 179.0, 444.4 179.9 Q 443.9 180.8, 443.9 182.6 Q 443.9 184.4, 444.4 185.3 Q 445.0 186.2, 445.9 186.2 " fill="#000000"/>
<path class="legend" d="M 450.5 185.9 L 451.8 185.9 L 451.8 187.1 L 450.5 187.1 L 450.5 185.9 " fill="#000000"/>
<path class="legend" d="M 456.4 187.2 Q 454.7 187.2, 453.8 186.0 Q 453.0 184.8, 453.0 182.6 Q 453.0 180.4, 453.8 179.1 Q 454.7 177.9, 456.4 177.9 Q 458.0 177.9, 458.9 179.1 Q 459.7 180.4, 459.7 182.6 Q 459.7 184.8, 458.8 186.0 Q 458.0 187.2, 456.4 187.2 M 456.4 186.2 Q 457.3 186.2, 457.9 185.3 Q 458.4 184.4, 458.4 182.6 Q 458.4 180.8, 457.9 179.9 Q 457.3 179.0, 456.4 179.0 Q 455.4 179.0, 454.8 179.9 Q 454.3 180.8, 454.3 182.6 Q 454.3 184.4, 454.8 185.3 Q 455.4 186.2, 456.4 186.2 " fill="#000000"/>
<path class="legend" d="M 460.9 185.9 L 462.2 185.9 L 462.2 186.9 L 462.0 188.7 L 461.5 188.7 L 461.5 187.1 L 460.9 187.1 L 460.9 185.9 " fill="#000000"/>
<path class="legend" d="" fill="#000000"/>
<path class="legend" d="M 470.8 178.0 Q 472.3 178.0, 473.1 178.7 Q 473.9 179.4, 473.9 180.7 Q 473.9 182.0, 473.1 182.7 Q 472.3 183.4, 470.8 183.4 L 469.3 183.4 L 469.3 187.1 L 468.1 187.1 L 468.1 178.0 L 470.8 178.0 M 470.8 182.4 Q 471.7 182.4, 472.2 181.9 Q 472.6 181.5, 472.6 180.7 Q 472.6 179.9, 472.2 179.5 Q 471.7 179.1, 470.8 179.1 L 469.3 179.1 L 469.3 182.4 L 470.8 182.4 " fill="#000000"/>
<path class="legend" d="M 475.9 180.5 L 476.0 181.4 Q 476.7 180.4, 477.9 180.4 Q 478.2 180.4, 478.7 180.5 L 478.5 181.6 Q 478.0 181.5, 477.7 181.5 Q 477.1 181.5, 476.8 181.7 Q 476.4 181.9, 476.1 182.4 L 476.1 187.1 L 474.9 187.1 L 474.9 180.5 L 475.9 180.5 " fill="#000000"/>
<path class="legend" d="M 479.3 183.8 Q 479.3 182.2, 480.1 181.3 Q 480.9 180.4, 482.4 180.4 Q 483.8 180.4, 484.5 181.3 Q 485.1 182.1, 485.1 183.8 L 485.1 184.0 L 480.5 184.0 Q 480.6 185.1, 481.1 185.7 Q 481.6 186.3, 482.5 186.3 Q 483.0 186.3, 483.5 186.2 Q 484.0 186.0, 484.5 185.8 L 484.9 186.6 Q 484.2 186.9, 483.6 187.1 Q 483.1 187.2, 482.4 187.2 Q 480.9 187.2, 480.1 186.3 Q 479.3 185.4, 479.3 183.8 M 482.4 181.4 Q 481.6 181.4, 481.2 181.8 Q 480.7 182.2, 480.6 183.1 L 483.9 183.1 Q 483.8 182.2, 483.4 181.8 Q 483.1 181.4, 482.4 181.4 " fill="#000000"/>
<path class="legend" d="M 492.0 177.4 L 492.0 187.1 L 491.1 187.1 L 490.9 186.3 Q 490.2 187.2, 488.9 187.2 Q 487.6 187.2, 486.8 186.4 Q 486.0 185.5, 486.0 183.9 Q 486.0 182.3, 486.9 181.4 Q 487.8 180.4, 489.4 180.4 Q 490.1 180.4, 490.8 180.6 L 490.8 177.4 L 492.0 177.4 M 489.0 186.3 Q 489.7 186.3, 490.2 185.9 Q 490.6 185.6, 490.8 184.9 L 490.8 181.6 Q 490.2 181.4, 489.4 181.4 Q 488.4 181.4, 487.8 182.0 Q 487.3 182.7, 487.3 183.9 Q 487.3 185.1, 487.7 185.7 Q 488.2 186.3, 489.0 186.3 " fill="#000000"/>
<path class="legend" d="M 493.5 185.6 L 494.7 185.6 L 494.7 186.9 L 493.5 186.9 L 493.5 185.6 M 493.5 181.2 L 494.7 181.2 L 494.7 182.5 L 493.5 182.5 L 493.5 181.2 " fill="#000000"/>
<path class="legend" d="" fill="#000000"/>
<path class="legend" d="M 501.3 186.1 L 503.3 186.1 L 503.3 179.3 L 501.1 180.0 L 500.8 179.2 L 503.6 178.0 L 504.5 178.1 L 504.5 186.1 L 506.3 186.1 L 506.3 187.1 L 501.3 187.1 L 501.3 186.1 " fill="#000000"/>
<path class="legend" d="" fill="#000000"/>
<path class="legend" d="M 511.9 183.5 Q 511.9 181.6, 512.4 180.1 Q 513.0 178.6, 514.0 176.9 L 514.7 177.4 Q 513.9 178.9, 513.5 180.3 Q 513.0 181.7, 513.0 183.5 Q 513.0 185.2, 513.5 186.6 Q 513.9 188.0, 514.7 189.5 L 514.0 190.0 Q 513.0 188.4, 512.4 186.9 Q 511.9 185.3, 511.9 183.5 " fill="#000000"/>
<path class="legend" d="M 518.1 178.0 Q 519.7 178.0, 520.5 178.7 Q 521.2 179.4, 521.2 180.7 Q 521.2 182.0, 520.4 182.7 Q 519.6 183.4, 518.1 183.4 L 516.7 183.4 L 516.7 187.1 L 515.4 187.1 L 515.4 178.0 L 518.1 178.0 M 518.1 182.4 Q 519.0 182.4, 519.5 181.9 Q 520.0 181.5, 520.0 180.7 Q 520.0 179.9, 519.5 179.5 Q 519.0 179.1, 518.1 179.1 L 516.7 179.1 L 516.7 182.4 L 518.1 182.4 " fill="#000000"/>
<path class="legend" d="M 523.2 180.5 L 523.4 181.4 Q 524.1 180.4, 525.2 180.4 Q 525.5 180.4, 526.0 180.5 L 525.8 181.6 Q 525.3 181.5, 525.0 181.5 Q 524.4 181.5, 524.1 181.7 Q 523.7 181.9, 523.4 182.4 L 523.4 187.1 L 522.2 187.1 L 522.2 180.5 L 523.2 180.5 " fill="#000000"/>
<path class="legend" d="M 526.6 183.8 Q 526.6 182.2, 527.4 181.3 Q 528.2 180.4, 529.8 180.4 Q 531.3 180.4, 532.1 181.3 Q 532.9 182.2, 532.9 183.8 Q 532.9 185.4, 532.1 186.3 Q 531.3 187.2, 529.8 187.2 Q 528.2 187.2, 527.4 186.3 Q 526.6 185.4, 526.6 183.8 M 527.9 183.8 Q 527.9 185.0, 528.3 185.7 Q 528.8 186.3, 529.8 186.3 Q 530.7 186.3, 531.2 185.7 Q 531.7 185.0, 531.7 183.8 Q 531.7 182.6, 531.2 182.0 Q 530.7 181.4, 529.8 181.4 Q 528.8 181.4, 528.3 182.0 Q 527.9 182.6, 527.9 183.8 " fill="#000000"/>
<path class="legend" d="M 537.0 180.4 Q 538.3 180.4, 539.1 181.3 Q 539.9 182.1, 539.9 183.7 Q 539.9 185.4, 539.0 186.3 Q 538.1 187.2, 536.5 187.2 Q 535.4 187.2, 534.5 186.9 L 533.9 186.7 L 533.9 177.4 L 535.1 177.4 L 535.1 181.2 Q 535.8 180.4, 537.0 180.4 M 536.5 186.3 Q 537.5 186.3, 538.1 185.6 Q 538.6 184.9, 538.6 183.7 Q 538.6 182.6, 538.2 182.0 Q 537.7 181.4, 536.9 181.4 Q 536.2 181.4, 535.7 181.7 Q 535.3 182.1, 535.1 182.7 L 535.1 186.1 Q 535.7 186.3, 536.5 186.3 " fill="#000000"/>
<path class="legend" d="M 540.9 185.6 L 542.1 185.6 L 542.1 186.9 L 540.9 186.9 L 540.9 185.6 M 540.9 181.2 L 542.1 181.2 L 542.1 182.5 L 540.9 182.5 L 540.9 181.2 " fill="#000000"/>
<path class="legend" d="" fill="#000000"/>
<path class="legend" d="M 551.5 187.2 Q 549.8 187.2, 549.0 186.0 Q 548.2 184.8, 548.2 182.6 Q 548.2 180.4, 549.0 179.1 Q 549.8 177.9, 551.5 177.9 Q 553.2 177.9, 554.0 179.1 Q 554.8 180.4, 554.8 182.6 Q 554.8 184.8, 554.0 186.0 Q 553.2 187.2, 551.5 187.2 M 551.5 186.2 Q 552.5 186.2, 553.0 185.3 Q 553.6 184.4, 553.6 182.6 Q 553.6 180.8, 553.0 179.9 Q 552.5 179.0, 551.5 179.0 Q 550.5 179.0, 550.0 179.9 Q 549.5 180.8, 549.5 182.6 Q 549.5 184.4, 550.0 185.3 Q 550.5 186.2, 551.5 186.2 " fill="#000000"/>
<path class="legend" d="M 556.1 185.9 L 557.4 185.9 L 557.4 187.1 L 556.1 187.1 L 556.1 185.9 " fill="#000000"/>
<path class="legend" d="M 561.6 177.9 Q 563.3 177.9, 564.1 179.0 Q 564.9 180.1, 564.9 182.3 Q 564.9 184.7, 563.9 186.0 Q 562.9 187.2, 560.9 187.2 Q 560.4 187.2, 559.9 187.1 Q 559.4 187.0, 558.9 186.7 L 559.4 185.9 Q 560.1 186.2, 560.9 186.2 Q 562.2 186.2, 562.9 185.4 Q 563.5 184.6, 563.6 182.8 Q 563.1 183.3, 562.5 183.5 Q 562.0 183.7, 561.3 183.7 Q 560.5 183.7, 559.9 183.4 Q 559.3 183.0, 558.9 182.4 Q 558.6 181.8, 558.6 181.0 Q 558.6 180.1, 559.0 179.4 Q 559.4 178.7, 560.1 178.3 Q 560.8 177.9, 561.6 177.9 M 559.9 181.0 Q 559.9 181.8, 560.3 182.2 Q 560.8 182.7, 561.6 182.7 Q 562.1 182.7, 562.7 182.5 Q 563.2 182.2, 563.6 181.9 Q 563.6 180.3, 563.1 179.7 Q 562.6 179.0, 561.6 179.0 Q 561.1 179.0, 560.7 179.2 Q 560.3 179.5, 560.1 179.9 Q 559.9 180.4, 559.9 181.0 " fill="#000000"/>
<path class="legend" d="M 570.5 182.3 Q 571.4 182.6, 571.9 183.2 Q 572.3 183.7, 572.3 184.6 Q 572.3 185.4, 571.9 186.0 Q 571.5 186.6, 570.8 186.9 Q 570.1 187.3, 569.2 187.3 Q 568.2 187.3, 567.5 186.9 Q 566.7 186.6, 566.2 185.9 L 566.9 185.1 Q 567.5 185.8, 567.9 186.0 Q 568.4 186.2, 569.2 186.2 Q 570.0 186.2, 570.5 185.8 Q 571.0 185.4, 571.0 184.6 Q 571.0 183.7, 570.5 183.3 Q 570.0 182.9, 568.8 182.9 L 568.2 182.9 L 568.2 181.9 L 568.8 181.9 Q 569.8 181.9, 570.3 181.5 Q 570.8 181.1, 570.8 180.3 Q 570.8 179.7, 570.4 179.3 Q 569.9 179.0, 569.2 179.0 Q 568.4 179.0, 568.0 179.2 Q 567.5 179.5, 567.1 180.2 L 566.2 179.7 Q 566.6 178.9, 567.3 178.4 Q 568.1 177.9, 569.2 177.9 Q 570.5 177.9, 571.3 178.6 Q 572.1 179.2, 572.1 180.3 Q 572.1 181.0, 571.7 181.5 Q 571.3 182.0, 570.5 182.3 " fill="#000000"/>
<path class="legend" d="M 573.9 186.1 L 575.9 186.1 L 575.9 179.3 L 573.7 180.0 L 573.4 179.2 L 576.2 178.0 L 577.1 178.1 L 577.1 186.1 L 578.9 186.1 L 578.9 187.1 L 573.9 187.1 L 573.9 186.1 " fill="#000000"/>
<path class="legend" d="M 579.9 179.8 Q 580.2 178.9, 581.0 178.4 Q 581.8 177.9, 582.9 177.9 Q 584.3 177.9, 585.1 178.7 Q 585.9 179.4, 585.9 180.7 Q 585.9 182.1, 584.8 183.4 Q 583.9 184.6, 581.8 186.1 L 586.0 186.1 L 586.0 187.1 L 579.9 187.1 L 579.9 186.3 Q 581.6 185.1, 582.6 184.2 Q 583.6 183.3, 584.1 182.5 Q 584.6 181.6, 584.6 180.8 Q 584.6 179.9, 584.1 179.4 Q 583.7 179.0, 582.9 179.0 Q 582.2 179.0, 581.7 179.3 Q 581.2 179.5, 580.9 180.2 L 579.9 179.8 " fill="#000000"/>
<path class="legend" d="M 590.0 183.5 Q 590.0 185.3, 589.5 186.9 Q 588.9 188.4, 587.9 190.0 L 587.2 189.5 Q 588.0 188.0, 588.4 186.6 Q 588.8 185.2, 588.8 183.5 Q 588.8 181.7, 588.4 180.3 Q 588.0 178.9, 587.2 177.4 L 587.9 176.9 Q 588.9 178.6, 589.5 180.1 Q 590.0 181.6, 590.0 183.5 " fill="#000000"/>
<path class="bond-0 atom-0 atom-1" d="M 627.5,128.8 L 631.4,123.9" style="fill:none;fill-rule:evenodd;stroke:#000000;stroke-width:2.0px;stroke-linecap:butt;stroke-linejoin:miter;stroke-opacity:1"/>
<path class="bond-0 atom-0 atom-1" d="M 631.4,123.9 L 635.4,119.1" style="fill:none;fill-rule:evenodd;stroke:#0000FF;stroke-width:2.0px;stroke-linecap:butt;stroke-linejoin:miter;stroke-opacity:1"/>
<path class="bond-1 atom-1 atom-2" d="M 639.9,116.6 L 646.8,117.7" style="fill:none;fill-rule:evenodd;stroke:#0000FF;stroke-width:2.0px;stroke-linecap:butt;stroke-linejoin:miter;stroke-opacity:1"/>
<path class="bond-1 atom-1 atom-2" d="M 646.8,117.7 L 653.6,118.7" style="fill:none;fill-rule:evenodd;stroke:#000000;stroke-width:2.0px;stroke-linecap:butt;stroke-linejoin:miter;stroke-opacity:1"/>
<path class="bond-2 atom-2 atom-3" d="M 653.6,118.7 L 663.7,106.1" style="fill:none;fill-rule:evenodd;stroke:#000000;stroke-width:2.0px;stroke-linecap:butt;stroke-linejoin:miter;stroke-opacity:1"/>
<path class="bond-3 atom-3 atom-4" d="M 663.7,106.1 L 670.4,107.2" style="fill:none;fill-rule:evenodd;stroke:#000000;stroke-width:2.0px;stroke-linecap:butt;stroke-linejoin:miter;stroke-opacity:1"/>
<path class="bond-3 atom-3 atom-4" d="M 670.4,107.2 L 677.1,108.2" style="fill:none;fill-rule:evenodd;stroke:#FF0000;stroke-width:2.0px;stroke-linecap:butt;stroke-linejoin:miter;stroke-opacity:1"/>
<path class="bond-4 atom-4 atom-5" d="M 682.0,105.8 L 685.9,100.9" style="fill:none;fill-rule:evenodd;stroke:#FF0000;stroke-width:2.0px;stroke-linecap:butt;stroke-linejoin:miter;stroke-opacity:1"/>
<path class="bond-4 atom-4 atom-5" d="M 685.9,100.9 L 689.9,96.0" style="fill:none;fill-rule:evenodd;stroke:#000000;stroke-width:2.0px;stroke-linecap:butt;stroke-linejoin:miter;stroke-opacity:1"/>
<path class="bond-5 atom-5 atom-6" d="M 689.9,96.0 L 705.8,98.5" style="fill:none;fill-rule:evenodd;stroke:#000000;stroke-width:2.0px;stroke-linecap:butt;stroke-linejoin:miter;stroke-opacity:1"/>
<path class="bond-5 atom-5 atom-6" d="M 691.6,93.9 L 704.8,95.9" style="fill:none;fill-rule:evenodd;stroke:#000000;stroke-width:2.0px;stroke-linecap:butt;stroke-linejoin:miter;stroke-opacity:1"/>
<path class="bond-6 atom-6 atom-7" d="M 705.8,98.5 L 716.0,85.9" style="fill:none;fill-rule:evenodd;stroke:#000000;stroke-width:2.0px;stroke-linecap:butt;stroke-linejoin:miter;stroke-opacity:1"/>
<path class="bond-7 atom-7 atom-8" d="M 716.0,85.9 L 710.1,70.9" style="fill:none;fill-rule:evenodd;stroke:#000000;stroke-width:2.0px;stroke-linecap:butt;stroke-linejoin:miter;stroke-opacity:1"/>
<path class="bond-7 atom-7 atom-8" d="M 713.2,85.5 L 708.4,73.0" style="fill:none;fill-rule:evenodd;stroke:#000000;stroke-width:2.0px;stroke-linecap:butt;stroke-linejoin:miter;stroke-opacity:1"/>
<path class="bond-8 atom-8 atom-9" d="M 710.1,70.9 L 720.3,58.3" style="fill:none;fill-rule:evenodd;stroke:#000000;stroke-width:2.0px;stroke-linecap:butt;stroke-linejoin:miter;stroke-opacity:1"/>
<path class="bond-9 atom-9 atom-10" d="M 720.3,58.3 L 736.3,60.8" style="fill:none;fill-rule:evenodd;stroke:#000000;stroke-width:2.0px;stroke-linecap:butt;stroke-linejoin:miter;stroke-opacity:1"/>
<path class="bond-10 atom-10 atom-11" d="M 736.3,60.8 L 738.6,66.9" style="fill:none;fill-rule:evenodd;stroke:#000000;stroke-width:2.0px;stroke-linecap:butt;stroke-linejoin:miter;stroke-opacity:1"/>
<path class="bond-10 atom-10 atom-11" d="M 738.6,66.9 L 741.0,73.0" style="fill:none;fill-rule:evenodd;stroke:#0000FF;stroke-width:2.0px;stroke-linecap:butt;stroke-linejoin:miter;stroke-opacity:1"/>
<path class="bond-11 atom-11 atom-12" d="M 744.4,76.2 L 751.2,77.3" style="fill:none;fill-rule:evenodd;stroke:#0000FF;stroke-width:2.0px;stroke-linecap:butt;stroke-linejoin:miter;stroke-opacity:1"/>
<path class="bond-11 atom-11 atom-12" d="M 751.2,77.3 L 758.1,78.3" style="fill:none;fill-rule:evenodd;stroke:#000000;stroke-width:2.0px;stroke-linecap:butt;stroke-linejoin:miter;stroke-opacity:1"/>
<path class="bond-12 atom-12 atom-13" d="M 758.1,78.3 L 768.2,65.7" style="fill:none;fill-rule:evenodd;stroke:#000000;stroke-width:2.0px;stroke-linecap:butt;stroke-linejoin:miter;stroke-opacity:1"/>
<path class="bond-12 atom-12 atom-13" d="M 760.8,78.8 L 769.2,68.3" style="fill:none;fill-rule:evenodd;stroke:#000000;stroke-width:2.0px;stroke-linecap:butt;stroke-linejoin:miter;stroke-opacity:1"/>
<path class="bond-13 atom-13 atom-14" d="M 768.2,65.7 L 784.2,68.2" style="fill:none;fill-rule:evenodd;stroke:#000000;stroke-width:2.0px;stroke-linecap:butt;stroke-linejoin:miter;stroke-opacity:1"/>
<path class="bond-14 atom-14 atom-15" d="M 784.2,68.2 L 790.0,83.3" style="fill:none;fill-rule:evenodd;stroke:#000000;stroke-width:2.0px;stroke-linecap:butt;stroke-linejoin:miter;stroke-opacity:1"/>
<path class="bond-14 atom-14 atom-15" d="M 782.4,70.4 L 787.2,82.9" style="fill:none;fill-rule:evenodd;stroke:#000000;stroke-width:2.0px;stroke-linecap:butt;stroke-linejoin:miter;stroke-opacity:1"/>
<path class="bond-15 atom-15 atom-16" d="M 790.0,83.3 L 779.9,95.9" style="fill:none;fill-rule:evenodd;stroke:#000000;stroke-width:2.0px;stroke-linecap:butt;stroke-linejoin:miter;stroke-opacity:1"/>
<path class="bond-16 atom-16 atom-17" d="M 779.9,95.9 L 763.9,93.4" style="fill:none;fill-rule:evenodd;stroke:#000000;stroke-width:2.0px;stroke-linecap:butt;stroke-linejoin:miter;stroke-opacity:1"/>
<path class="bond-16 atom-16 atom-17" d="M 778.8,93.3 L 765.6,91.2" style="fill:none;fill-rule:evenodd;stroke:#000000;stroke-width:2.0px;stroke-linecap:butt;stroke-linejoin:miter;stroke-opacity:1"/>
<path class="bond-17 atom-17 atom-18" d="M 763.9,93.4 L 753.7,106.0" style="fill:none;fill-rule:evenodd;stroke:#000000;stroke-width:2.0px;stroke-linecap:butt;stroke-linejoin:miter;stroke-opacity:1"/>
<path class="bond-18 atom-18 atom-19" d="M 754.6,104.9 L 747.6,103.8" style="fill:none;fill-rule:evenodd;stroke:#000000;stroke-width:2.0px;stroke-linecap:butt;stroke-linejoin:miter;stroke-opacity:1"/>
<path class="bond-18 atom-18 atom-19" d="M 747.6,103.8 L 740.6,102.7" style="fill:none;fill-rule:evenodd;stroke:#FF0000;stroke-width:2.0px;stroke-linecap:butt;stroke-linejoin:miter;stroke-opacity:1"/>
<path class="bond-18 atom-18 atom-19" d="M 754.3,107.3 L 747.2,106.2" style="fill:none;fill-rule:evenodd;stroke:#000000;stroke-width:2.0px;stroke-linecap:butt;stroke-linejoin:miter;stroke-opacity:1"/>
<path class="bond-18 atom-18 atom-19" d="M 747.2,106.2 L 740.2,105.1" style="fill:none;fill-rule:evenodd;stroke:#FF0000;stroke-width:2.0px;stroke-linecap:butt;stroke-linejoin:miter;stroke-opacity:1"/>
<path class="bond-19 atom-18 atom-20" d="M 753.7,106.0 L 759.6,121.1" style="fill:none;fill-rule:evenodd;stroke:#000000;stroke-width:2.0px;stroke-linecap:butt;stroke-linejoin:miter;stroke-opacity:1"/>
<path class="bond-20 atom-20 atom-21" d="M 759.6,121.1 L 775.6,123.6" style="fill:none;fill-rule:evenodd;stroke:#000000;stroke-width:2.0px;stroke-linecap:butt;stroke-linejoin:miter;stroke-opacity:1"/>
<path class="bond-20 atom-20 atom-21" d="M 760.6,123.7 L 773.8,125.7" style="fill:none;fill-rule:evenodd;stroke:#000000;stroke-width:2.0px;stroke-linecap:butt;stroke-linejoin:miter;stroke-opacity:1"/>
<path class="bond-21 atom-21 atom-22" d="M 775.6,123.6 L 781.4,138.6" style="fill:none;fill-rule:evenodd;stroke:#000000;stroke-width:2.0px;stroke-linecap:butt;stroke-linejoin:miter;stroke-opacity:1"/>
<path class="bond-22 atom-22 atom-23" d="M 781.4,138.6 L 771.2,151.2" style="fill:none;fill-rule:evenodd;stroke:#000000;stroke-width:2.0px;stroke-linecap:butt;stroke-linejoin:miter;stroke-opacity:1"/>
<path class="bond-22 atom-22 atom-23" d="M 778.6,138.2 L 770.2,148.6" style="fill:none;fill-rule:evenodd;stroke:#000000;stroke-width:2.0px;stroke-linecap:butt;stroke-linejoin:miter;stroke-opacity:1"/>
<path class="bond-23 atom-23 atom-24" d="M 771.2,151.2 L 755.3,148.7" style="fill:none;fill-rule:evenodd;stroke:#000000;stroke-width:2.0px;stroke-linecap:butt;stroke-linejoin:miter;stroke-opacity:1"/>
<path class="bond-24 atom-24 atom-25" d="M 755.3,148.7 L 749.4,133.7" style="fill:none;fill-rule:evenodd;stroke:#000000;stroke-width:2.0px;stroke-linecap:butt;stroke-linejoin:miter;stroke-opacity:1"/>
<path class="bond-24 atom-24 atom-25" d="M 757.0,146.5 L 752.2,134.1" style="fill:none;fill-rule:evenodd;stroke:#000000;stroke-width:2.0px;stroke-linecap:butt;stroke-linejoin:miter;stroke-opacity:1"/>
<path class="bond-25 atom-10 atom-26" d="M 736.3,60.8 L 746.4,48.2" style="fill:none;fill-rule:evenodd;stroke:#000000;stroke-width:2.0px;stroke-linecap:butt;stroke-linejoin:miter;stroke-opacity:1"/>
<path class="bond-26 atom-26 atom-27" d="M 747.8,48.4 L 745.3,42.0" style="fill:none;fill-rule:evenodd;stroke:#000000;stroke-width:2.0px;stroke-linecap:butt;stroke-linejoin:miter;stroke-opacity:1"/>
<path class="bond-26 atom-26 atom-27" d="M 745.3,42.0 L 742.8,35.6" style="fill:none;fill-rule:evenodd;stroke:#FF0000;stroke-width:2.0px;stroke-linecap:butt;stroke-linejoin:miter;stroke-opacity:1"/>
<path class="bond-26 atom-26 atom-27" d="M 745.5,49.3 L 743.0,42.9" style="fill:none;fill-rule:evenodd;stroke:#000000;stroke-width:2.0px;stroke-linecap:butt;stroke-linejoin:miter;stroke-opacity:1"/>
<path class="bond-26 atom-26 atom-27" d="M 743.0,42.9 L 740.6,36.5" style="fill:none;fill-rule:evenodd;stroke:#FF0000;stroke-width:2.0px;stroke-linecap:butt;stroke-linejoin:miter;stroke-opacity:1"/>
<path class="bond-27 atom-26 atom-28" d="M 746.4,48.2 L 753.1,49.2" style="fill:none;fill-rule:evenodd;stroke:#000000;stroke-width:2.0px;stroke-linecap:butt;stroke-linejoin:miter;stroke-opacity:1"/>
<path class="bond-27 atom-26 atom-28" d="M 753.1,49.2 L 759.7,50.3" style="fill:none;fill-rule:evenodd;stroke:#FF0000;stroke-width:2.0px;stroke-linecap:butt;stroke-linejoin:miter;stroke-opacity:1"/>
<path class="bond-28 atom-8 atom-29" d="M 710.1,70.9 L 694.2,68.4" style="fill:none;fill-rule:evenodd;stroke:#000000;stroke-width:2.0px;stroke-linecap:butt;stroke-linejoin:miter;stroke-opacity:1"/>
<path class="bond-29 atom-29 atom-30" d="M 694.2,68.4 L 684.0,81.0" style="fill:none;fill-rule:evenodd;stroke:#000000;stroke-width:2.0px;stroke-linecap:butt;stroke-linejoin:miter;stroke-opacity:1"/>
<path class="bond-29 atom-29 atom-30" d="M 695.2,71.0 L 686.8,81.4" style="fill:none;fill-rule:evenodd;stroke:#000000;stroke-width:2.0px;stroke-linecap:butt;stroke-linejoin:miter;stroke-opacity:1"/>
<path class="bond-30 atom-1 atom-31" d="M 636.5,113.4 L 634.2,107.3" style="fill:none;fill-rule:evenodd;stroke:#0000FF;stroke-width:2.0px;stroke-linecap:butt;stroke-linejoin:miter;stroke-opacity:1"/>
<path class="bond-30 atom-1 atom-31" d="M 634.2,107.3 L 631.8,101.2" style="fill:none;fill-rule:evenodd;stroke:#000000;stroke-width:2.0px;stroke-linecap:butt;stroke-linejoin:miter;stroke-opacity:1"/>
<path class="bond-31 atom-31 atom-32" d="M 631.8,101.2 L 641.9,88.6" style="fill:none;fill-rule:evenodd;stroke:#000000;stroke-width:2.0px;stroke-linecap:butt;stroke-linejoin:miter;stroke-opacity:1"/>
<path class="bond-31 atom-31 atom-32" d="M 630.8,98.6 L 639.2,88.1" style="fill:none;fill-rule:evenodd;stroke:#000000;stroke-width:2.0px;stroke-linecap:butt;stroke-linejoin:miter;stroke-opacity:1"/>
<path class="bond-32 atom-32 atom-33" d="M 641.9,88.6 L 636.1,73.5" style="fill:none;fill-rule:evenodd;stroke:#000000;stroke-width:2.0px;stroke-linecap:butt;stroke-linejoin:miter;stroke-opacity:1"/>
<path class="bond-33 atom-33 atom-34" d="M 636.1,73.5 L 620.1,71.0" style="fill:none;fill-rule:evenodd;stroke:#000000;stroke-width:2.0px;stroke-linecap:butt;stroke-linejoin:miter;stroke-opacity:1"/>
<path class="bond-33 atom-33 atom-34" d="M 634.4,75.7 L 621.2,73.6" style="fill:none;fill-rule:evenodd;stroke:#000000;stroke-width:2.0px;stroke-linecap:butt;stroke-linejoin:miter;stroke-opacity:1"/>
<path class="bond-34 atom-34 atom-35" d="M 620.1,71.0 L 610.0,83.6" style="fill:none;fill-rule:evenodd;stroke:#000000;stroke-width:2.0px;stroke-linecap:butt;stroke-linejoin:miter;stroke-opacity:1"/>
<path class="bond-35 atom-35 atom-36" d="M 610.0,83.6 L 612.4,89.7" style="fill:none;fill-rule:evenodd;stroke:#000000;stroke-width:2.0px;stroke-linecap:butt;stroke-linejoin:miter;stroke-opacity:1"/>
<path class="bond-35 atom-35 atom-36" d="M 612.4,89.7 L 614.7,95.9" style="fill:none;fill-rule:evenodd;stroke:#0000FF;stroke-width:2.0px;stroke-linecap:butt;stroke-linejoin:miter;stroke-opacity:1"/>
<path class="bond-35 atom-35 atom-36" d="M 612.8,84.0 L 614.9,89.5" style="fill:none;fill-rule:evenodd;stroke:#000000;stroke-width:2.0px;stroke-linecap:butt;stroke-linejoin:miter;stroke-opacity:1"/>
<path class="bond-35 atom-35 atom-36" d="M 614.9,89.5 L 617.0,95.0" style="fill:none;fill-rule:evenodd;stroke:#0000FF;stroke-width:2.0px;stroke-linecap:butt;stroke-linejoin:miter;stroke-opacity:1"/>
<path class="bond-36 atom-30 atom-5" d="M 684.0,81.0 L 689.9,96.0" style="fill:none;fill-rule:evenodd;stroke:#000000;stroke-width:2.0px;stroke-linecap:butt;stroke-linejoin:miter;stroke-opacity:1"/>
<path class="bond-37 atom-36 atom-31" d="M 618.1,99.0 L 625.0,100.1" style="fill:none;fill-rule:evenodd;stroke:#0000FF;stroke-width:2.0px;stroke-linecap:butt;stroke-linejoin:miter;stroke-opacity:1"/>
<path class="bond-37 atom-36 atom-31" d="M 625.0,100.1 L 631.8,101.2" style="fill:none;fill-rule:evenodd;stroke:#000000;stroke-width:2.0px;stroke-linecap:butt;stroke-linejoin:miter;stroke-opacity:1"/>
<path class="bond-38 atom-17 atom-12" d="M 763.9,93.4 L 758.1,78.3" style="fill:none;fill-rule:evenodd;stroke:#000000;stroke-width:2.0px;stroke-linecap:butt;stroke-linejoin:miter;stroke-opacity:1"/>
<path class="bond-39 atom-25 atom-20" d="M 749.4,133.7 L 759.6,121.1" style="fill:none;fill-rule:evenodd;stroke:#000000;stroke-width:2.0px;stroke-linecap:butt;stroke-linejoin:miter;stroke-opacity:1"/>
<path d="M 653.3,118.7 L 653.6,118.7 L 654.1,118.1" style="fill:none;stroke:#000000;stroke-width:2.0px;stroke-linecap:butt;stroke-linejoin:miter;stroke-opacity:1;"/>
<path d="M 663.2,106.8 L 663.7,106.1 L 664.1,106.2" style="fill:none;stroke:#000000;stroke-width:2.0px;stroke-linecap:butt;stroke-linejoin:miter;stroke-opacity:1;"/>
<path d="M 705.0,98.4 L 705.8,98.5 L 706.3,97.9" style="fill:none;stroke:#000000;stroke-width:2.0px;stroke-linecap:butt;stroke-linejoin:miter;stroke-opacity:1;"/>
<path d="M 715.5,86.6 L 716.0,85.9 L 715.7,85.2" style="fill:none;stroke:#000000;stroke-width:2.0px;stroke-linecap:butt;stroke-linejoin:miter;stroke-opacity:1;"/>
<path d="M 719.8,58.9 L 720.3,58.3 L 721.1,58.4" style="fill:none;stroke:#000000;stroke-width:2.0px;stroke-linecap:butt;stroke-linejoin:miter;stroke-opacity:1;"/>
<path d="M 767.7,66.4 L 768.2,65.7 L 769.0,65.9" style="fill:none;stroke:#000000;stroke-width:2.0px;stroke-linecap:butt;stroke-linejoin:miter;stroke-opacity:1;"/>
<path d="M 783.4,68.1 L 784.2,68.2 L 784.5,69.0" style="fill:none;stroke:#000000;stroke-width:2.0px;stroke-linecap:butt;stroke-linejoin:miter;stroke-opacity:1;"/>
<path d="M 789.7,82.5 L 790.0,83.3 L 789.5,83.9" style="fill:none;stroke:#000000;stroke-width:2.0px;stroke-linecap:butt;stroke-linejoin:miter;stroke-opacity:1;"/>
<path d="M 780.4,95.3 L 779.9,95.9 L 779.1,95.8" style="fill:none;stroke:#000000;stroke-width:2.0px;stroke-linecap:butt;stroke-linejoin:miter;stroke-opacity:1;"/>
<path d="M 754.3,105.4 L 753.7,106.0 L 754.0,106.7" style="fill:none;stroke:#000000;stroke-width:2.0px;stroke-linecap:butt;stroke-linejoin:miter;stroke-opacity:1;"/>
<path d="M 774.8,123.4 L 775.6,123.6 L 775.8,124.3" style="fill:none;stroke:#000000;stroke-width:2.0px;stroke-linecap:butt;stroke-linejoin:miter;stroke-opacity:1;"/>
<path d="M 781.1,137.9 L 781.4,138.6 L 780.9,139.3" style="fill:none;stroke:#000000;stroke-width:2.0px;stroke-linecap:butt;stroke-linejoin:miter;stroke-opacity:1;"/>
<path d="M 771.7,150.6 L 771.2,151.2 L 770.4,151.1" style="fill:none;stroke:#000000;stroke-width:2.0px;stroke-linecap:butt;stroke-linejoin:miter;stroke-opacity:1;"/>
<path d="M 756.1,148.9 L 755.3,148.7 L 755.0,148.0" style="fill:none;stroke:#000000;stroke-width:2.0px;stroke-linecap:butt;stroke-linejoin:miter;stroke-opacity:1;"/>
<path d="M 749.7,134.4 L 749.4,133.7 L 749.9,133.0" style="fill:none;stroke:#000000;stroke-width:2.0px;stroke-linecap:butt;stroke-linejoin:miter;stroke-opacity:1;"/>
<path d="M 745.9,48.8 L 746.4,48.2 L 746.7,48.2" style="fill:none;stroke:#000000;stroke-width:2.0px;stroke-linecap:butt;stroke-linejoin:miter;stroke-opacity:1;"/>
<path d="M 695.0,68.5 L 694.2,68.4 L 693.7,69.0" style="fill:none;stroke:#000000;stroke-width:2.0px;stroke-linecap:butt;stroke-linejoin:miter;stroke-opacity:1;"/>
<path d="M 684.5,80.3 L 684.0,81.0 L 684.3,81.7" style="fill:none;stroke:#000000;stroke-width:2.0px;stroke-linecap:butt;stroke-linejoin:miter;stroke-opacity:1;"/>
<path d="M 641.4,89.2 L 641.9,88.6 L 641.7,87.8" style="fill:none;stroke:#000000;stroke-width:2.0px;stroke-linecap:butt;stroke-linejoin:miter;stroke-opacity:1;"/>
<path d="M 636.4,74.3 L 636.1,73.5 L 635.3,73.4" style="fill:none;stroke:#000000;stroke-width:2.0px;stroke-linecap:butt;stroke-linejoin:miter;stroke-opacity:1;"/>
<path d="M 620.9,71.1 L 620.1,71.0 L 619.6,71.6" style="fill:none;stroke:#000000;stroke-width:2.0px;stroke-linecap:butt;stroke-linejoin:miter;stroke-opacity:1;"/>
<path d="M 610.5,83.0 L 610.0,83.6 L 610.1,83.9" style="fill:none;stroke:#000000;stroke-width:2.0px;stroke-linecap:butt;stroke-linejoin:miter;stroke-opacity:1;"/>
<path class="atom-1" d="M 636.6 114.0 L 638.1 116.4 Q 638.3 116.6, 638.5 117.0 Q 638.8 117.5, 638.8 117.5 L 638.8 114.0 L 639.4 114.0 L 639.4 118.5 L 638.7 118.5 L 637.1 115.9 Q 636.9 115.6, 636.7 115.2 Q 636.6 114.9, 636.5 114.7 L 636.5 118.5 L 635.9 118.5 L 635.9 114.0 L 636.6 114.0 " fill="#0000FF"/>
<path class="atom-4" d="M 677.6 108.6 Q 677.6 107.5, 678.2 106.9 Q 678.7 106.3, 679.7 106.3 Q 680.7 106.3, 681.3 106.9 Q 681.8 107.5, 681.8 108.6 Q 681.8 109.8, 681.3 110.4 Q 680.7 111.0, 679.7 111.0 Q 678.7 111.0, 678.2 110.4 Q 677.6 109.8, 677.6 108.6 M 679.7 110.5 Q 680.4 110.5, 680.8 110.0 Q 681.2 109.6, 681.2 108.6 Q 681.2 107.7, 680.8 107.3 Q 680.4 106.8, 679.7 106.8 Q 679.0 106.8, 678.6 107.3 Q 678.3 107.7, 678.3 108.6 Q 678.3 109.6, 678.6 110.0 Q 679.0 110.5, 679.7 110.5 " fill="#FF0000"/>
<path class="atom-11" d="M 735.9 73.5 L 736.5 73.5 L 736.5 75.5 L 738.8 75.5 L 738.8 73.5 L 739.4 73.5 L 739.4 78.1 L 738.8 78.1 L 738.8 76.0 L 736.5 76.0 L 736.5 78.1 L 735.9 78.1 L 735.9 73.5 " fill="#0000FF"/>
<path class="atom-11" d="M 741.1 73.5 L 742.6 76.0 Q 742.7 76.2, 743.0 76.6 Q 743.2 77.1, 743.2 77.1 L 743.2 73.5 L 743.8 73.5 L 743.8 78.1 L 743.2 78.1 L 741.6 75.5 Q 741.4 75.2, 741.2 74.8 Q 741.0 74.5, 740.9 74.3 L 740.9 78.1 L 740.3 78.1 L 740.3 73.5 L 741.1 73.5 " fill="#0000FF"/>
<path class="atom-19" d="M 735.7 103.5 Q 735.7 102.4, 736.2 101.8 Q 736.8 101.2, 737.8 101.2 Q 738.8 101.2, 739.3 101.8 Q 739.9 102.4, 739.9 103.5 Q 739.9 104.6, 739.3 105.3 Q 738.8 105.9, 737.8 105.9 Q 736.8 105.9, 736.2 105.3 Q 735.7 104.6, 735.7 103.5 M 737.8 105.4 Q 738.5 105.4, 738.8 104.9 Q 739.2 104.4, 739.2 103.5 Q 739.2 102.6, 738.8 102.2 Q 738.5 101.7, 737.8 101.7 Q 737.1 101.7, 736.7 102.2 Q 736.3 102.6, 736.3 103.5 Q 736.3 104.4, 736.7 104.9 Q 737.1 105.4, 737.8 105.4 " fill="#FF0000"/>
<path class="atom-27" d="M 738.5 33.1 Q 738.5 32.0, 739.0 31.4 Q 739.5 30.8, 740.6 30.8 Q 741.6 30.8, 742.1 31.4 Q 742.7 32.0, 742.7 33.1 Q 742.7 34.2, 742.1 34.9 Q 741.6 35.5, 740.6 35.5 Q 739.6 35.5, 739.0 34.9 Q 738.5 34.2, 738.5 33.1 M 740.6 35.0 Q 741.3 35.0, 741.6 34.5 Q 742.0 34.0, 742.0 33.1 Q 742.0 32.2, 741.6 31.8 Q 741.3 31.3, 740.6 31.3 Q 739.9 31.3, 739.5 31.8 Q 739.1 32.2, 739.1 33.1 Q 739.1 34.0, 739.5 34.5 Q 739.9 35.0, 740.6 35.0 " fill="#FF0000"/>
<path class="atom-28" d="M 760.3 50.7 Q 760.3 49.6, 760.8 49.0 Q 761.3 48.3, 762.4 48.3 Q 763.4 48.3, 763.9 49.0 Q 764.5 49.6, 764.5 50.7 Q 764.5 51.8, 763.9 52.4 Q 763.4 53.0, 762.4 53.0 Q 761.4 53.0, 760.8 52.4 Q 760.3 51.8, 760.3 50.7 M 762.4 52.5 Q 763.1 52.5, 763.4 52.1 Q 763.8 51.6, 763.8 50.7 Q 763.8 49.8, 763.4 49.3 Q 763.1 48.9, 762.4 48.9 Q 761.7 48.9, 761.3 49.3 Q 760.9 49.8, 760.9 50.7 Q 760.9 51.6, 761.3 52.1 Q 761.7 52.5, 762.4 52.5 " fill="#FF0000"/>
<path class="atom-28" d="M 765.2 48.4 L 765.8 48.4 L 765.8 50.3 L 768.1 50.3 L 768.1 48.4 L 768.8 48.4 L 768.8 53.0 L 768.1 53.0 L 768.1 50.9 L 765.8 50.9 L 765.8 53.0 L 765.2 53.0 L 765.2 48.4 " fill="#FF0000"/>
<path class="atom-36" d="M 614.8 96.4 L 616.3 98.8 Q 616.5 99.1, 616.7 99.5 Q 616.9 99.9, 617.0 99.9 L 617.0 96.4 L 617.6 96.4 L 617.6 101.0 L 616.9 101.0 L 615.3 98.3 Q 615.1 98.0, 614.9 97.6 Q 614.7 97.3, 614.7 97.2 L 614.7 101.0 L 614.1 101.0 L 614.1 96.4 L 614.8 96.4 " fill="#0000FF"/>
<path class="legend" d="M 612.8 179.2 L 610.0 179.2 L 610.0 178.2 L 616.6 178.2 L 616.6 179.2 L 614.0 179.2 L 614.0 187.2 L 612.8 187.2 L 612.8 179.2 " fill="#000000"/>
<path class="legend" d="M 618.0 180.7 L 618.1 181.6 Q 618.8 180.5, 619.9 180.5 Q 620.3 180.5, 620.8 180.7 L 620.6 181.7 Q 620.0 181.6, 619.7 181.6 Q 619.2 181.6, 618.8 181.8 Q 618.5 182.0, 618.2 182.5 L 618.2 187.2 L 617.0 187.2 L 617.0 180.7 L 618.0 180.7 " fill="#000000"/>
<path class="legend" d="M 626.9 180.7 L 626.9 187.2 L 625.9 187.2 L 625.8 186.3 Q 624.9 187.3, 623.6 187.3 Q 622.5 187.3, 621.9 186.7 Q 621.3 186.1, 621.3 185.0 L 621.3 180.7 L 622.5 180.7 L 622.5 184.9 Q 622.5 185.7, 622.8 186.0 Q 623.1 186.4, 623.8 186.4 Q 624.4 186.4, 624.9 186.1 Q 625.4 185.8, 625.7 185.3 L 625.7 180.7 L 626.9 180.7 " fill="#000000"/>
<path class="legend" d="M 628.3 183.9 Q 628.3 182.3, 629.1 181.4 Q 629.9 180.5, 631.4 180.5 Q 632.8 180.5, 633.5 181.4 Q 634.1 182.3, 634.1 183.9 L 634.1 184.1 L 629.5 184.1 Q 629.6 185.2, 630.1 185.8 Q 630.6 186.3, 631.5 186.3 Q 632.0 186.3, 632.5 186.2 Q 632.9 186.1, 633.5 185.8 L 633.8 186.7 Q 633.2 187.0, 632.6 187.1 Q 632.0 187.3, 631.4 187.3 Q 630.0 187.3, 629.1 186.4 Q 628.3 185.5, 628.3 183.9 M 631.4 181.5 Q 630.6 181.5, 630.2 181.9 Q 629.7 182.3, 629.6 183.2 L 632.8 183.2 Q 632.8 182.3, 632.4 181.9 Q 632.0 181.5, 631.4 181.5 " fill="#000000"/>
<path class="legend" d="M 635.0 185.7 L 636.2 185.7 L 636.2 187.0 L 635.0 187.0 L 635.0 185.7 M 635.0 181.3 L 636.2 181.3 L 636.2 182.6 L 635.0 182.6 L 635.0 181.3 " fill="#000000"/>
<path class="legend" d="" fill="#000000"/>
<path class="legend" d="M 645.5 187.3 Q 643.8 187.3, 643.0 186.1 Q 642.2 184.8, 642.2 182.7 Q 642.2 180.5, 643.0 179.3 Q 643.8 178.1, 645.5 178.1 Q 647.2 178.1, 648.0 179.3 Q 648.8 180.5, 648.8 182.7 Q 648.8 184.8, 648.0 186.1 Q 647.1 187.3, 645.5 187.3 M 645.5 186.3 Q 646.5 186.3, 647.0 185.4 Q 647.5 184.5, 647.5 182.7 Q 647.5 180.9, 647.0 180.0 Q 646.5 179.1, 645.5 179.1 Q 644.5 179.1, 644.0 180.0 Q 643.5 180.9, 643.5 182.7 Q 643.5 184.5, 644.0 185.4 Q 644.5 186.3, 645.5 186.3 " fill="#000000"/>
<path class="legend" d="M 650.0 185.9 L 651.3 185.9 L 651.3 187.2 L 650.0 187.2 L 650.0 185.9 " fill="#000000"/>
<path class="legend" d="M 655.8 187.3 Q 654.1 187.3, 653.3 186.1 Q 652.5 184.8, 652.5 182.7 Q 652.5 180.5, 653.3 179.3 Q 654.1 178.1, 655.8 178.1 Q 657.4 178.1, 658.3 179.3 Q 659.1 180.5, 659.1 182.7 Q 659.1 184.8, 658.2 186.1 Q 657.4 187.3, 655.8 187.3 M 655.8 186.3 Q 656.8 186.3, 657.3 185.4 Q 657.8 184.5, 657.8 182.7 Q 657.8 180.9, 657.3 180.0 Q 656.8 179.1, 655.8 179.1 Q 654.8 179.1, 654.3 180.0 Q 653.8 180.9, 653.8 182.7 Q 653.8 184.5, 654.3 185.4 Q 654.8 186.3, 655.8 186.3 " fill="#000000"/>
<path class="legend" d="M 660.3 185.9 L 661.6 185.9 L 661.6 186.9 L 661.3 188.7 L 660.9 188.7 L 660.9 187.2 L 660.3 187.2 L 660.3 185.9 " fill="#000000"/>
<path class="legend" d="" fill="#000000"/>
<path class="legend" d="M 670.0 178.2 Q 671.6 178.2, 672.4 178.9 Q 673.1 179.6, 673.1 180.8 Q 673.1 182.1, 672.3 182.8 Q 671.5 183.5, 670.0 183.5 L 668.6 183.5 L 668.6 187.2 L 667.4 187.2 L 667.4 178.2 L 670.0 178.2 M 670.0 182.5 Q 670.9 182.5, 671.4 182.1 Q 671.9 181.6, 671.9 180.8 Q 671.9 180.0, 671.4 179.6 Q 670.9 179.2, 670.0 179.2 L 668.6 179.2 L 668.6 182.5 L 670.0 182.5 " fill="#000000"/>
<path class="legend" d="M 675.1 180.7 L 675.2 181.6 Q 675.9 180.5, 677.0 180.5 Q 677.4 180.5, 677.9 180.7 L 677.7 181.7 Q 677.1 181.6, 676.8 181.6 Q 676.3 181.6, 675.9 181.8 Q 675.6 182.0, 675.3 182.5 L 675.3 187.2 L 674.1 187.2 L 674.1 180.7 L 675.1 180.7 " fill="#000000"/>
<path class="legend" d="M 678.4 183.9 Q 678.4 182.3, 679.2 181.4 Q 680.0 180.5, 681.5 180.5 Q 682.9 180.5, 683.6 181.4 Q 684.2 182.3, 684.2 183.9 L 684.2 184.1 L 679.7 184.1 Q 679.7 185.2, 680.2 185.8 Q 680.7 186.3, 681.6 186.3 Q 682.1 186.3, 682.6 186.2 Q 683.1 186.1, 683.6 185.8 L 684.0 186.7 Q 683.3 187.0, 682.7 187.1 Q 682.1 187.3, 681.5 187.3 Q 680.1 187.3, 679.3 186.4 Q 678.4 185.5, 678.4 183.9 M 681.5 181.5 Q 680.8 181.5, 680.3 181.9 Q 679.9 182.3, 679.7 183.2 L 683.0 183.2 Q 682.9 182.3, 682.5 181.9 Q 682.2 181.5, 681.5 181.5 " fill="#000000"/>
<path class="legend" d="M 691.0 177.5 L 691.0 187.2 L 690.1 187.2 L 689.9 186.4 Q 689.2 187.3, 688.0 187.3 Q 686.6 187.3, 685.8 186.4 Q 685.1 185.6, 685.1 184.0 Q 685.1 182.4, 686.0 181.5 Q 686.9 180.5, 688.4 180.5 Q 689.1 180.5, 689.8 180.7 L 689.8 177.5 L 691.0 177.5 M 688.0 186.3 Q 688.7 186.3, 689.2 186.0 Q 689.7 185.6, 689.8 185.0 L 689.8 181.7 Q 689.2 181.5, 688.5 181.5 Q 687.5 181.5, 686.9 182.2 Q 686.3 182.8, 686.3 184.0 Q 686.3 185.1, 686.8 185.7 Q 687.2 186.3, 688.0 186.3 " fill="#000000"/>
<path class="legend" d="M 692.4 185.7 L 693.7 185.7 L 693.7 187.0 L 692.4 187.0 L 692.4 185.7 M 692.4 181.3 L 693.7 181.3 L 693.7 182.6 L 692.4 182.6 L 692.4 181.3 " fill="#000000"/>
<path class="legend" d="" fill="#000000"/>
<path class="legend" d="M 700.2 186.2 L 702.1 186.2 L 702.1 179.4 L 700.0 180.1 L 699.7 179.4 L 702.4 178.1 L 703.3 178.3 L 703.3 186.2 L 705.1 186.2 L 705.1 187.2 L 700.2 187.2 L 700.2 186.2 " fill="#000000"/>
<path class="legend" d="" fill="#000000"/>
<path class="legend" d="M 710.6 183.6 Q 710.6 181.7, 711.2 180.2 Q 711.7 178.8, 712.7 177.1 L 713.4 177.6 Q 712.6 179.1, 712.2 180.5 Q 711.8 181.8, 711.8 183.6 Q 711.8 185.3, 712.2 186.6 Q 712.6 188.0, 713.4 189.5 L 712.7 190.0 Q 711.7 188.4, 711.2 186.9 Q 710.6 185.4, 710.6 183.6 " fill="#000000"/>
<path class="legend" d="M 716.8 178.2 Q 718.3 178.2, 719.1 178.9 Q 719.9 179.6, 719.9 180.8 Q 719.9 182.1, 719.1 182.8 Q 718.3 183.5, 716.8 183.5 L 715.3 183.5 L 715.3 187.2 L 714.1 187.2 L 714.1 178.2 L 716.8 178.2 M 716.8 182.5 Q 717.7 182.5, 718.1 182.1 Q 718.6 181.6, 718.6 180.8 Q 718.6 180.0, 718.1 179.6 Q 717.7 179.2, 716.8 179.2 L 715.3 179.2 L 715.3 182.5 L 716.8 182.5 " fill="#000000"/>
<path class="legend" d="M 721.8 180.7 L 722.0 181.6 Q 722.6 180.5, 723.8 180.5 Q 724.1 180.5, 724.6 180.7 L 724.4 181.7 Q 723.9 181.6, 723.6 181.6 Q 723.0 181.6, 722.7 181.8 Q 722.3 182.0, 722.1 182.5 L 722.1 187.2 L 720.9 187.2 L 720.9 180.7 L 721.8 180.7 " fill="#000000"/>
<path class="legend" d="M 725.2 183.9 Q 725.2 182.3, 726.0 181.4 Q 726.8 180.5, 728.3 180.5 Q 729.8 180.5, 730.6 181.4 Q 731.4 182.3, 731.4 183.9 Q 731.4 185.5, 730.6 186.4 Q 729.8 187.3, 728.3 187.3 Q 726.8 187.3, 726.0 186.4 Q 725.2 185.5, 725.2 183.9 M 726.4 183.9 Q 726.4 185.1, 726.9 185.7 Q 727.4 186.3, 728.3 186.3 Q 729.2 186.3, 729.7 185.7 Q 730.2 185.1, 730.2 183.9 Q 730.2 182.7, 729.7 182.1 Q 729.2 181.5, 728.3 181.5 Q 727.4 181.5, 726.9 182.1 Q 726.4 182.7, 726.4 183.9 " fill="#000000"/>
<path class="legend" d="M 735.4 180.5 Q 736.8 180.5, 737.5 181.4 Q 738.3 182.2, 738.3 183.8 Q 738.3 185.4, 737.4 186.4 Q 736.5 187.3, 734.9 187.3 Q 733.9 187.3, 732.9 186.9 L 732.4 186.8 L 732.4 177.5 L 733.5 177.5 L 733.5 181.4 Q 734.2 180.5, 735.4 180.5 M 734.9 186.3 Q 735.9 186.3, 736.5 185.7 Q 737.1 185.0, 737.1 183.8 Q 737.1 182.7, 736.6 182.1 Q 736.2 181.5, 735.3 181.5 Q 734.7 181.5, 734.2 181.8 Q 733.7 182.2, 733.5 182.8 L 733.5 186.2 Q 734.2 186.3, 734.9 186.3 " fill="#000000"/>
<path class="legend" d="M 739.2 185.7 L 740.5 185.7 L 740.5 187.0 L 739.2 187.0 L 739.2 185.7 M 739.2 181.3 L 740.5 181.3 L 740.5 182.6 L 739.2 182.6 L 739.2 181.3 " fill="#000000"/>
<path class="legend" d="" fill="#000000"/>
<path class="legend" d="M 749.8 187.3 Q 748.1 187.3, 747.3 186.1 Q 746.5 184.8, 746.5 182.7 Q 746.5 180.5, 747.3 179.3 Q 748.1 178.1, 749.8 178.1 Q 751.4 178.1, 752.2 179.3 Q 753.1 180.5, 753.1 182.7 Q 753.1 184.8, 752.2 186.1 Q 751.4 187.3, 749.8 187.3 M 749.8 186.3 Q 750.7 186.3, 751.3 185.4 Q 751.8 184.5, 751.8 182.7 Q 751.8 180.9, 751.3 180.0 Q 750.7 179.1, 749.8 179.1 Q 748.8 179.1, 748.3 180.0 Q 747.7 180.9, 747.7 182.7 Q 747.7 184.5, 748.3 185.4 Q 748.8 186.3, 749.8 186.3 " fill="#000000"/>
<path class="legend" d="M 754.3 185.9 L 755.5 185.9 L 755.5 187.2 L 754.3 187.2 L 754.3 185.9 " fill="#000000"/>
<path class="legend" d="M 759.8 178.1 Q 761.4 178.1, 762.2 179.2 Q 763.0 180.3, 763.0 182.4 Q 763.0 184.8, 762.0 186.1 Q 761.0 187.3, 759.1 187.3 Q 758.5 187.3, 758.0 187.2 Q 757.6 187.0, 757.1 186.8 L 757.6 185.9 Q 758.3 186.3, 759.1 186.3 Q 760.3 186.3, 761.0 185.5 Q 761.6 184.6, 761.7 182.9 Q 761.3 183.4, 760.7 183.6 Q 760.1 183.8, 759.5 183.8 Q 758.7 183.8, 758.1 183.5 Q 757.4 183.1, 757.1 182.5 Q 756.8 181.9, 756.8 181.1 Q 756.8 180.2, 757.1 179.5 Q 757.5 178.9, 758.2 178.5 Q 758.9 178.1, 759.8 178.1 M 758.0 181.1 Q 758.0 181.9, 758.5 182.3 Q 758.9 182.8, 759.7 182.8 Q 760.3 182.8, 760.8 182.6 Q 761.3 182.3, 761.7 182.0 Q 761.7 180.5, 761.2 179.8 Q 760.7 179.1, 759.8 179.1 Q 759.3 179.1, 758.9 179.4 Q 758.5 179.6, 758.3 180.1 Q 758.0 180.5, 758.0 181.1 " fill="#000000"/>
<path class="legend" d="M 767.3 178.1 Q 768.9 178.1, 769.7 179.2 Q 770.5 180.3, 770.5 182.4 Q 770.5 184.8, 769.5 186.1 Q 768.5 187.3, 766.6 187.3 Q 766.0 187.3, 765.5 187.2 Q 765.1 187.0, 764.6 186.8 L 765.1 185.9 Q 765.8 186.3, 766.6 186.3 Q 767.8 186.3, 768.5 185.5 Q 769.1 184.6, 769.2 182.9 Q 768.7 183.4, 768.2 183.6 Q 767.6 183.8, 767.0 183.8 Q 766.2 183.8, 765.6 183.5 Q 764.9 183.1, 764.6 182.5 Q 764.2 181.9, 764.2 181.1 Q 764.2 180.2, 764.6 179.5 Q 765.0 178.9, 765.7 178.5 Q 766.4 178.1, 767.3 178.1 M 765.5 181.1 Q 765.5 181.9, 766.0 182.3 Q 766.4 182.8, 767.2 182.8 Q 767.7 182.8, 768.3 182.6 Q 768.8 182.3, 769.2 182.0 Q 769.1 180.5, 768.7 179.8 Q 768.2 179.1, 767.3 179.1 Q 766.8 179.1, 766.4 179.4 Q 766.0 179.6, 765.7 180.1 Q 765.5 180.5, 765.5 181.1 " fill="#000000"/>
<path class="legend" d="M 776.3 182.4 Q 777.1 182.8, 777.6 183.3 Q 778.1 183.8, 778.1 184.7 Q 778.1 185.5, 777.7 186.1 Q 777.3 186.7, 776.6 187.0 Q 775.9 187.3, 775.0 187.3 Q 773.5 187.3, 772.6 186.6 Q 771.7 185.9, 771.7 184.7 Q 771.7 184.0, 772.1 183.4 Q 772.5 182.9, 773.3 182.5 Q 772.7 182.1, 772.4 181.6 Q 772.1 181.1, 772.1 180.4 Q 772.1 179.3, 772.8 178.7 Q 773.6 178.1, 774.9 178.1 Q 776.2 178.1, 777.0 178.7 Q 777.8 179.3, 777.8 180.4 Q 777.8 181.0, 777.4 181.5 Q 777.0 182.0, 776.3 182.4 M 774.9 179.0 Q 774.2 179.0, 773.7 179.4 Q 773.3 179.8, 773.3 180.4 Q 773.3 180.9, 773.6 181.2 Q 773.9 181.5, 774.3 181.7 Q 774.7 181.8, 775.5 182.1 Q 776.0 181.7, 776.2 181.3 Q 776.5 180.9, 776.5 180.4 Q 776.5 179.8, 776.1 179.4 Q 775.7 179.0, 774.9 179.0 M 775.0 186.4 Q 775.8 186.4, 776.3 185.9 Q 776.8 185.5, 776.8 184.7 Q 776.8 184.2, 776.5 183.9 Q 776.3 183.6, 775.9 183.4 Q 775.5 183.3, 774.8 183.0 L 774.2 182.8 Q 773.6 183.2, 773.3 183.7 Q 773.0 184.1, 773.0 184.7 Q 773.0 185.5, 773.5 185.9 Q 774.1 186.4, 775.0 186.4 " fill="#000000"/>
<path class="legend" d="M 785.1 184.1 L 786.2 184.1 L 786.2 185.1 L 785.1 185.1 L 785.1 187.2 L 783.9 187.2 L 783.9 185.1 L 779.3 185.1 L 779.3 184.3 L 783.2 178.2 L 785.1 178.2 L 785.1 184.1 M 780.7 184.1 L 783.9 184.1 L 783.9 179.0 L 780.7 184.1 " fill="#000000"/>
<path class="legend" d="M 790.0 183.6 Q 790.0 185.4, 789.5 186.9 Q 788.9 188.4, 787.9 190.0 L 787.2 189.5 Q 788.0 188.0, 788.4 186.6 Q 788.9 185.3, 788.9 183.6 Q 788.9 181.8, 788.4 180.5 Q 788.0 179.1, 787.2 177.6 L 787.9 177.1 Q 788.9 178.8, 789.5 180.2 Q 790.0 181.7, 790.0 183.6 " fill="#000000"/>
</svg>