<svg xmlns="http://www.w3.org/2000/svg" xmlns:rdkit="http://www.rdkit.org/xml" xmlns:xlink="http://www.w3.org/1999/xlink" version="1.1" baseProfile="full" xml:space="preserve" width="1000px" height="500px" viewBox="0 0 1000 500">
<!-- END OF HEADER -->
<rect style="opacity:1.0;fill:#FFFFFF;stroke:none" width="1000.0" height="500.0" x="0.0" y="0.0"> </rect>
<path class="bond-0 atom-0 atom-1" d="M 385.7,475.0 L 377.8,456.2" style="fill:none;fill-rule:evenodd;stroke:#000000;stroke-width:2.0px;stroke-linecap:butt;stroke-linejoin:miter;stroke-opacity:1"/>
<path class="bond-0 atom-0 atom-1" d="M 377.8,456.2 L 369.8,437.4" style="fill:none;fill-rule:evenodd;stroke:#FF0000;stroke-width:2.0px;stroke-linecap:butt;stroke-linejoin:miter;stroke-opacity:1"/>
<path class="bond-1 atom-1 atom-2" d="M 357.7,427.3 L 336.7,424.7" style="fill:none;fill-rule:evenodd;stroke:#FF0000;stroke-width:2.0px;stroke-linecap:butt;stroke-linejoin:miter;stroke-opacity:1"/>
<path class="bond-1 atom-1 atom-2" d="M 336.7,424.7 L 315.7,422.0" style="fill:none;fill-rule:evenodd;stroke:#000000;stroke-width:2.0px;stroke-linecap:butt;stroke-linejoin:miter;stroke-opacity:1"/>
<path class="bond-2 atom-2 atom-3" d="M 314.0,418.0 L 301.4,434.6" style="fill:none;fill-rule:evenodd;stroke:#000000;stroke-width:2.0px;stroke-linecap:butt;stroke-linejoin:miter;stroke-opacity:1"/>
<path class="bond-2 atom-2 atom-3" d="M 301.4,434.6 L 288.8,451.3" style="fill:none;fill-rule:evenodd;stroke:#FF0000;stroke-width:2.0px;stroke-linecap:butt;stroke-linejoin:miter;stroke-opacity:1"/>
<path class="bond-2 atom-2 atom-3" d="M 320.0,422.6 L 307.5,439.2" style="fill:none;fill-rule:evenodd;stroke:#000000;stroke-width:2.0px;stroke-linecap:butt;stroke-linejoin:miter;stroke-opacity:1"/>
<path class="bond-2 atom-2 atom-3" d="M 307.5,439.2 L 294.9,455.9" style="fill:none;fill-rule:evenodd;stroke:#FF0000;stroke-width:2.0px;stroke-linecap:butt;stroke-linejoin:miter;stroke-opacity:1"/>
<path class="bond-3 atom-4 atom-2" d="M 297.1,378.8 L 297.6,378.6" style="fill:none;fill-rule:evenodd;stroke:#000000;stroke-width:1.0px;stroke-linecap:butt;stroke-linejoin:miter;stroke-opacity:1"/>
<path class="bond-3 atom-4 atom-2" d="M 298.2,382.3 L 299.3,381.8" style="fill:none;fill-rule:evenodd;stroke:#000000;stroke-width:1.0px;stroke-linecap:butt;stroke-linejoin:miter;stroke-opacity:1"/>
<path class="bond-3 atom-4 atom-2" d="M 299.3,385.7 L 301.0,385.0" style="fill:none;fill-rule:evenodd;stroke:#000000;stroke-width:1.0px;stroke-linecap:butt;stroke-linejoin:miter;stroke-opacity:1"/>
<path class="bond-3 atom-4 atom-2" d="M 300.5,389.2 L 302.6,388.2" style="fill:none;fill-rule:evenodd;stroke:#000000;stroke-width:1.0px;stroke-linecap:butt;stroke-linejoin:miter;stroke-opacity:1"/>
<path class="bond-3 atom-4 atom-2" d="M 301.6,392.6 L 304.3,391.5" style="fill:none;fill-rule:evenodd;stroke:#000000;stroke-width:1.0px;stroke-linecap:butt;stroke-linejoin:miter;stroke-opacity:1"/>
<path class="bond-3 atom-4 atom-2" d="M 302.8,396.0 L 306.0,394.7" style="fill:none;fill-rule:evenodd;stroke:#000000;stroke-width:1.0px;stroke-linecap:butt;stroke-linejoin:miter;stroke-opacity:1"/>
<path class="bond-3 atom-4 atom-2" d="M 303.9,399.5 L 307.7,397.9" style="fill:none;fill-rule:evenodd;stroke:#000000;stroke-width:1.0px;stroke-linecap:butt;stroke-linejoin:miter;stroke-opacity:1"/>
<path class="bond-3 atom-4 atom-2" d="M 305.1,402.9 L 309.4,401.1" style="fill:none;fill-rule:evenodd;stroke:#000000;stroke-width:1.0px;stroke-linecap:butt;stroke-linejoin:miter;stroke-opacity:1"/>
<path class="bond-3 atom-4 atom-2" d="M 306.2,406.4 L 311.0,404.3" style="fill:none;fill-rule:evenodd;stroke:#000000;stroke-width:1.0px;stroke-linecap:butt;stroke-linejoin:miter;stroke-opacity:1"/>
<path class="bond-3 atom-4 atom-2" d="M 307.3,409.8 L 312.7,407.6" style="fill:none;fill-rule:evenodd;stroke:#000000;stroke-width:1.0px;stroke-linecap:butt;stroke-linejoin:miter;stroke-opacity:1"/>
<path class="bond-3 atom-4 atom-2" d="M 308.5,413.3 L 314.4,410.8" style="fill:none;fill-rule:evenodd;stroke:#000000;stroke-width:1.0px;stroke-linecap:butt;stroke-linejoin:miter;stroke-opacity:1"/>
<path class="bond-3 atom-4 atom-2" d="M 309.6,416.7 L 316.1,414.0" style="fill:none;fill-rule:evenodd;stroke:#000000;stroke-width:1.0px;stroke-linecap:butt;stroke-linejoin:miter;stroke-opacity:1"/>
<path class="bond-3 atom-4 atom-2" d="M 310.8,420.2 L 317.8,417.2" style="fill:none;fill-rule:evenodd;stroke:#000000;stroke-width:1.0px;stroke-linecap:butt;stroke-linejoin:miter;stroke-opacity:1"/>
<path class="bond-4 atom-4 atom-5" d="M 295.9,375.4 L 245.6,369.1" style="fill:none;fill-rule:evenodd;stroke:#000000;stroke-width:2.0px;stroke-linecap:butt;stroke-linejoin:miter;stroke-opacity:1"/>
<path class="bond-5 atom-5 atom-6" d="M 245.6,369.1 L 225.9,322.5" style="fill:none;fill-rule:evenodd;stroke:#000000;stroke-width:2.0px;stroke-linecap:butt;stroke-linejoin:miter;stroke-opacity:1"/>
<path class="bond-6 atom-6 atom-7" d="M 222.6,321.7 L 222.5,322.4" style="fill:none;fill-rule:evenodd;stroke:#000000;stroke-width:1.0px;stroke-linecap:butt;stroke-linejoin:miter;stroke-opacity:1"/>
<path class="bond-6 atom-6 atom-7" d="M 219.2,320.9 L 219.1,322.3" style="fill:none;fill-rule:evenodd;stroke:#000000;stroke-width:1.0px;stroke-linecap:butt;stroke-linejoin:miter;stroke-opacity:1"/>
<path class="bond-6 atom-6 atom-7" d="M 215.9,320.2 L 215.7,322.2" style="fill:none;fill-rule:evenodd;stroke:#000000;stroke-width:1.0px;stroke-linecap:butt;stroke-linejoin:miter;stroke-opacity:1"/>
<path class="bond-6 atom-6 atom-7" d="M 212.6,319.4 L 212.3,322.2" style="fill:none;fill-rule:evenodd;stroke:#000000;stroke-width:1.0px;stroke-linecap:butt;stroke-linejoin:miter;stroke-opacity:1"/>
<path class="bond-6 atom-6 atom-7" d="M 209.3,318.7 L 208.9,322.1" style="fill:none;fill-rule:evenodd;stroke:#000000;stroke-width:1.0px;stroke-linecap:butt;stroke-linejoin:miter;stroke-opacity:1"/>
<path class="bond-6 atom-6 atom-7" d="M 206.0,317.9 L 205.5,322.0" style="fill:none;fill-rule:evenodd;stroke:#000000;stroke-width:1.0px;stroke-linecap:butt;stroke-linejoin:miter;stroke-opacity:1"/>
<path class="bond-6 atom-6 atom-7" d="M 202.6,317.1 L 202.0,321.9" style="fill:none;fill-rule:evenodd;stroke:#FF0000;stroke-width:1.0px;stroke-linecap:butt;stroke-linejoin:miter;stroke-opacity:1"/>
<path class="bond-6 atom-6 atom-7" d="M 199.3,316.4 L 198.6,321.9" style="fill:none;fill-rule:evenodd;stroke:#FF0000;stroke-width:1.0px;stroke-linecap:butt;stroke-linejoin:miter;stroke-opacity:1"/>
<path class="bond-6 atom-6 atom-7" d="M 196.0,315.6 L 195.2,321.8" style="fill:none;fill-rule:evenodd;stroke:#FF0000;stroke-width:1.0px;stroke-linecap:butt;stroke-linejoin:miter;stroke-opacity:1"/>
<path class="bond-6 atom-6 atom-7" d="M 192.7,314.9 L 191.8,321.7" style="fill:none;fill-rule:evenodd;stroke:#FF0000;stroke-width:1.0px;stroke-linecap:butt;stroke-linejoin:miter;stroke-opacity:1"/>
<path class="bond-6 atom-6 atom-7" d="M 189.4,314.1 L 188.4,321.6" style="fill:none;fill-rule:evenodd;stroke:#FF0000;stroke-width:1.0px;stroke-linecap:butt;stroke-linejoin:miter;stroke-opacity:1"/>
<path class="bond-7 atom-7 atom-8" d="M 171.8,307.3 L 163.8,288.4" style="fill:none;fill-rule:evenodd;stroke:#FF0000;stroke-width:2.0px;stroke-linecap:butt;stroke-linejoin:miter;stroke-opacity:1"/>
<path class="bond-7 atom-7 atom-8" d="M 163.8,288.4 L 155.8,269.6" style="fill:none;fill-rule:evenodd;stroke:#000000;stroke-width:2.0px;stroke-linecap:butt;stroke-linejoin:miter;stroke-opacity:1"/>
<path class="bond-8 atom-8 atom-9" d="M 157.5,273.6 L 170.0,257.1" style="fill:none;fill-rule:evenodd;stroke:#000000;stroke-width:2.0px;stroke-linecap:butt;stroke-linejoin:miter;stroke-opacity:1"/>
<path class="bond-8 atom-8 atom-9" d="M 170.0,257.1 L 182.5,240.6" style="fill:none;fill-rule:evenodd;stroke:#FF0000;stroke-width:2.0px;stroke-linecap:butt;stroke-linejoin:miter;stroke-opacity:1"/>
<path class="bond-8 atom-8 atom-9" d="M 151.5,269.0 L 163.9,252.5" style="fill:none;fill-rule:evenodd;stroke:#000000;stroke-width:2.0px;stroke-linecap:butt;stroke-linejoin:miter;stroke-opacity:1"/>
<path class="bond-8 atom-8 atom-9" d="M 163.9,252.5 L 176.4,236.0" style="fill:none;fill-rule:evenodd;stroke:#FF0000;stroke-width:2.0px;stroke-linecap:butt;stroke-linejoin:miter;stroke-opacity:1"/>
<path class="bond-9 atom-8 atom-10" d="M 155.8,269.6 L 105.5,263.3" style="fill:none;fill-rule:evenodd;stroke:#000000;stroke-width:2.0px;stroke-linecap:butt;stroke-linejoin:miter;stroke-opacity:1"/>
<path class="bond-10 atom-10 atom-11" d="M 105.5,263.3 L 70.9,300.4" style="fill:none;fill-rule:evenodd;stroke:#000000;stroke-width:2.0px;stroke-linecap:butt;stroke-linejoin:miter;stroke-opacity:1"/>
<path class="bond-11 atom-11 atom-12" d="M 70.9,300.4 L 25.0,278.9" style="fill:none;fill-rule:evenodd;stroke:#000000;stroke-width:2.0px;stroke-linecap:butt;stroke-linejoin:miter;stroke-opacity:1"/>
<path class="bond-11 atom-11 atom-12" d="M 69.1,291.1 L 33.2,274.3" style="fill:none;fill-rule:evenodd;stroke:#000000;stroke-width:2.0px;stroke-linecap:butt;stroke-linejoin:miter;stroke-opacity:1"/>
<path class="bond-12 atom-12 atom-13" d="M 25.0,278.9 L 27.5,258.3" style="fill:none;fill-rule:evenodd;stroke:#000000;stroke-width:2.0px;stroke-linecap:butt;stroke-linejoin:miter;stroke-opacity:1"/>
<path class="bond-12 atom-12 atom-13" d="M 27.5,258.3 L 30.1,237.8" style="fill:none;fill-rule:evenodd;stroke:#CCCC00;stroke-width:2.0px;stroke-linecap:butt;stroke-linejoin:miter;stroke-opacity:1"/>
<path class="bond-13 atom-13 atom-14" d="M 37.5,227.4 L 59.3,223.2" style="fill:none;fill-rule:evenodd;stroke:#CCCC00;stroke-width:2.0px;stroke-linecap:butt;stroke-linejoin:miter;stroke-opacity:1"/>
<path class="bond-13 atom-13 atom-14" d="M 59.3,223.2 L 81.0,219.0" style="fill:none;fill-rule:evenodd;stroke:#000000;stroke-width:2.0px;stroke-linecap:butt;stroke-linejoin:miter;stroke-opacity:1"/>
<path class="bond-14 atom-6 atom-15" d="M 225.9,322.5 L 256.4,282.0" style="fill:none;fill-rule:evenodd;stroke:#000000;stroke-width:2.0px;stroke-linecap:butt;stroke-linejoin:miter;stroke-opacity:1"/>
<path class="bond-15 atom-15 atom-16" d="M 260.8,282.6 L 252.4,262.8" style="fill:none;fill-rule:evenodd;stroke:#000000;stroke-width:2.0px;stroke-linecap:butt;stroke-linejoin:miter;stroke-opacity:1"/>
<path class="bond-15 atom-15 atom-16" d="M 252.4,262.8 L 244.0,243.0" style="fill:none;fill-rule:evenodd;stroke:#FF0000;stroke-width:2.0px;stroke-linecap:butt;stroke-linejoin:miter;stroke-opacity:1"/>
<path class="bond-15 atom-15 atom-16" d="M 253.8,285.5 L 245.4,265.7" style="fill:none;fill-rule:evenodd;stroke:#000000;stroke-width:2.0px;stroke-linecap:butt;stroke-linejoin:miter;stroke-opacity:1"/>
<path class="bond-15 atom-15 atom-16" d="M 245.4,265.7 L 237.0,246.0" style="fill:none;fill-rule:evenodd;stroke:#FF0000;stroke-width:2.0px;stroke-linecap:butt;stroke-linejoin:miter;stroke-opacity:1"/>
<path class="bond-16 atom-15 atom-17" d="M 256.4,282.0 L 306.7,288.2" style="fill:none;fill-rule:evenodd;stroke:#000000;stroke-width:2.0px;stroke-linecap:butt;stroke-linejoin:miter;stroke-opacity:1"/>
<path class="bond-17 atom-17 atom-18" d="M 306.7,288.2 L 326.5,334.9" style="fill:none;fill-rule:evenodd;stroke:#000000;stroke-width:2.0px;stroke-linecap:butt;stroke-linejoin:miter;stroke-opacity:1"/>
<path class="bond-18 atom-18 atom-19" d="M 328.1,338.2 L 327.6,338.4" style="fill:none;fill-rule:evenodd;stroke:#000000;stroke-width:1.0px;stroke-linecap:butt;stroke-linejoin:miter;stroke-opacity:1"/>
<path class="bond-18 atom-18 atom-19" d="M 329.8,341.4 L 328.8,341.8" style="fill:none;fill-rule:evenodd;stroke:#000000;stroke-width:1.0px;stroke-linecap:butt;stroke-linejoin:miter;stroke-opacity:1"/>
<path class="bond-18 atom-18 atom-19" d="M 331.5,344.6 L 330.0,345.2" style="fill:none;fill-rule:evenodd;stroke:#000000;stroke-width:1.0px;stroke-linecap:butt;stroke-linejoin:miter;stroke-opacity:1"/>
<path class="bond-18 atom-18 atom-19" d="M 333.1,347.8 L 331.1,348.7" style="fill:none;fill-rule:evenodd;stroke:#000000;stroke-width:1.0px;stroke-linecap:butt;stroke-linejoin:miter;stroke-opacity:1"/>
<path class="bond-18 atom-18 atom-19" d="M 334.8,351.1 L 332.3,352.1" style="fill:none;fill-rule:evenodd;stroke:#000000;stroke-width:1.0px;stroke-linecap:butt;stroke-linejoin:miter;stroke-opacity:1"/>
<path class="bond-18 atom-18 atom-19" d="M 336.4,354.3 L 333.4,355.6" style="fill:none;fill-rule:evenodd;stroke:#000000;stroke-width:1.0px;stroke-linecap:butt;stroke-linejoin:miter;stroke-opacity:1"/>
<path class="bond-18 atom-18 atom-19" d="M 338.1,357.5 L 334.6,359.0" style="fill:none;fill-rule:evenodd;stroke:#000000;stroke-width:1.0px;stroke-linecap:butt;stroke-linejoin:miter;stroke-opacity:1"/>
<path class="bond-18 atom-18 atom-19" d="M 339.8,360.8 L 335.8,362.4" style="fill:none;fill-rule:evenodd;stroke:#000000;stroke-width:1.0px;stroke-linecap:butt;stroke-linejoin:miter;stroke-opacity:1"/>
<path class="bond-18 atom-18 atom-19" d="M 341.4,364.0 L 336.9,365.9" style="fill:none;fill-rule:evenodd;stroke:#000000;stroke-width:1.0px;stroke-linecap:butt;stroke-linejoin:miter;stroke-opacity:1"/>
<path class="bond-18 atom-18 atom-19" d="M 343.1,367.2 L 338.1,369.3" style="fill:none;fill-rule:evenodd;stroke:#000000;stroke-width:1.0px;stroke-linecap:butt;stroke-linejoin:miter;stroke-opacity:1"/>
<path class="bond-18 atom-18 atom-19" d="M 344.7,370.4 L 339.2,372.8" style="fill:none;fill-rule:evenodd;stroke:#000000;stroke-width:1.0px;stroke-linecap:butt;stroke-linejoin:miter;stroke-opacity:1"/>
<path class="bond-18 atom-18 atom-19" d="M 346.4,373.7 L 340.4,376.2" style="fill:none;fill-rule:evenodd;stroke:#000000;stroke-width:1.0px;stroke-linecap:butt;stroke-linejoin:miter;stroke-opacity:1"/>
<path class="bond-18 atom-18 atom-19" d="M 348.1,376.9 L 341.6,379.6" style="fill:none;fill-rule:evenodd;stroke:#000000;stroke-width:1.0px;stroke-linecap:butt;stroke-linejoin:miter;stroke-opacity:1"/>
<path class="bond-18 atom-18 atom-19" d="M 349.7,380.1 L 342.7,383.1" style="fill:none;fill-rule:evenodd;stroke:#000000;stroke-width:1.0px;stroke-linecap:butt;stroke-linejoin:miter;stroke-opacity:1"/>
<path class="bond-19 atom-18 atom-20" d="M 326.5,334.9 L 376.8,341.2" style="fill:none;fill-rule:evenodd;stroke:#000000;stroke-width:2.0px;stroke-linecap:butt;stroke-linejoin:miter;stroke-opacity:1"/>
<path class="bond-20 atom-20 atom-21" d="M 376.8,341.2 L 407.3,300.7" style="fill:none;fill-rule:evenodd;stroke:#000000;stroke-width:2.0px;stroke-linecap:butt;stroke-linejoin:miter;stroke-opacity:1"/>
<path class="bond-21 atom-21 atom-22" d="M 407.3,300.7 L 387.6,254.0" style="fill:none;fill-rule:evenodd;stroke:#000000;stroke-width:2.0px;stroke-linecap:butt;stroke-linejoin:miter;stroke-opacity:1"/>
<path class="bond-22 atom-22 atom-23" d="M 387.6,254.0 L 418.1,213.6" style="fill:none;fill-rule:evenodd;stroke:#000000;stroke-width:2.0px;stroke-linecap:butt;stroke-linejoin:miter;stroke-opacity:1"/>
<path class="bond-23 atom-23 atom-24" d="M 415.5,217.1 L 437.6,219.8" style="fill:none;fill-rule:evenodd;stroke:#000000;stroke-width:2.0px;stroke-linecap:butt;stroke-linejoin:miter;stroke-opacity:1"/>
<path class="bond-23 atom-23 atom-24" d="M 437.6,219.8 L 459.7,222.6" style="fill:none;fill-rule:evenodd;stroke:#FF0000;stroke-width:2.0px;stroke-linecap:butt;stroke-linejoin:miter;stroke-opacity:1"/>
<path class="bond-23 atom-23 atom-24" d="M 416.4,209.5 L 438.5,212.3" style="fill:none;fill-rule:evenodd;stroke:#000000;stroke-width:2.0px;stroke-linecap:butt;stroke-linejoin:miter;stroke-opacity:1"/>
<path class="bond-23 atom-23 atom-24" d="M 438.5,212.3 L 460.6,215.0" style="fill:none;fill-rule:evenodd;stroke:#FF0000;stroke-width:2.0px;stroke-linecap:butt;stroke-linejoin:miter;stroke-opacity:1"/>
<path class="bond-24 atom-23 atom-25" d="M 418.1,213.6 L 410.2,194.8" style="fill:none;fill-rule:evenodd;stroke:#000000;stroke-width:2.0px;stroke-linecap:butt;stroke-linejoin:miter;stroke-opacity:1"/>
<path class="bond-24 atom-23 atom-25" d="M 410.2,194.8 L 402.2,176.1" style="fill:none;fill-rule:evenodd;stroke:#FF0000;stroke-width:2.0px;stroke-linecap:butt;stroke-linejoin:miter;stroke-opacity:1"/>
<path class="bond-25 atom-25 atom-26" d="M 390.1,165.9 L 369.1,163.3" style="fill:none;fill-rule:evenodd;stroke:#FF0000;stroke-width:2.0px;stroke-linecap:butt;stroke-linejoin:miter;stroke-opacity:1"/>
<path class="bond-25 atom-25 atom-26" d="M 369.1,163.3 L 348.1,160.7" style="fill:none;fill-rule:evenodd;stroke:#000000;stroke-width:2.0px;stroke-linecap:butt;stroke-linejoin:miter;stroke-opacity:1"/>
<path class="bond-26 atom-26 atom-27" d="M 348.1,160.7 L 323.5,112.9 L 328.3,114.0 Z" style="fill:#000000;fill-rule:evenodd;fill-opacity:1;stroke:#000000;stroke-width:0.5px;stroke-linecap:butt;stroke-linejoin:miter;stroke-opacity:1;"/>
<path class="bond-26 atom-26 atom-27" d="M 348.1,160.7 L 328.3,114.0 L 330.9,109.7 Z" style="fill:#000000;fill-rule:evenodd;fill-opacity:1;stroke:#000000;stroke-width:0.5px;stroke-linecap:butt;stroke-linejoin:miter;stroke-opacity:1;"/>
<path class="bond-27 atom-27 atom-28" d="M 328.3,114.0 L 278.9,102.6" style="fill:none;fill-rule:evenodd;stroke:#000000;stroke-width:2.0px;stroke-linecap:butt;stroke-linejoin:miter;stroke-opacity:1"/>
<path class="bond-28 atom-28 atom-29" d="M 278.9,102.6 L 274.6,52.1" style="fill:none;fill-rule:evenodd;stroke:#000000;stroke-width:2.0px;stroke-linecap:butt;stroke-linejoin:miter;stroke-opacity:1"/>
<path class="bond-28 atom-28 atom-29" d="M 286.0,96.4 L 282.6,56.9" style="fill:none;fill-rule:evenodd;stroke:#000000;stroke-width:2.0px;stroke-linecap:butt;stroke-linejoin:miter;stroke-opacity:1"/>
<path class="bond-29 atom-29 atom-30" d="M 274.6,52.1 L 293.8,43.9" style="fill:none;fill-rule:evenodd;stroke:#000000;stroke-width:2.0px;stroke-linecap:butt;stroke-linejoin:miter;stroke-opacity:1"/>
<path class="bond-29 atom-29 atom-30" d="M 293.8,43.9 L 313.0,35.8" style="fill:none;fill-rule:evenodd;stroke:#FF0000;stroke-width:2.0px;stroke-linecap:butt;stroke-linejoin:miter;stroke-opacity:1"/>
<path class="bond-30 atom-30 atom-31" d="M 329.2,41.5 L 341.8,56.0" style="fill:none;fill-rule:evenodd;stroke:#FF0000;stroke-width:2.0px;stroke-linecap:butt;stroke-linejoin:miter;stroke-opacity:1"/>
<path class="bond-30 atom-30 atom-31" d="M 341.8,56.0 L 354.5,70.6" style="fill:none;fill-rule:evenodd;stroke:#000000;stroke-width:2.0px;stroke-linecap:butt;stroke-linejoin:miter;stroke-opacity:1"/>
<path class="bond-31 atom-26 atom-32" d="M 348.1,160.7 L 317.5,201.1" style="fill:none;fill-rule:evenodd;stroke:#000000;stroke-width:2.0px;stroke-linecap:butt;stroke-linejoin:miter;stroke-opacity:1"/>
<path class="bond-32 atom-32 atom-33" d="M 317.5,201.1 L 337.3,247.8" style="fill:none;fill-rule:evenodd;stroke:#000000;stroke-width:2.0px;stroke-linecap:butt;stroke-linejoin:miter;stroke-opacity:1"/>
<path class="bond-33 atom-33 atom-34" d="M 338.9,251.0 L 338.4,251.2" style="fill:none;fill-rule:evenodd;stroke:#000000;stroke-width:1.0px;stroke-linecap:butt;stroke-linejoin:miter;stroke-opacity:1"/>
<path class="bond-33 atom-33 atom-34" d="M 340.6,254.3 L 339.6,254.7" style="fill:none;fill-rule:evenodd;stroke:#000000;stroke-width:1.0px;stroke-linecap:butt;stroke-linejoin:miter;stroke-opacity:1"/>
<path class="bond-33 atom-33 atom-34" d="M 342.2,257.5 L 340.7,258.1" style="fill:none;fill-rule:evenodd;stroke:#000000;stroke-width:1.0px;stroke-linecap:butt;stroke-linejoin:miter;stroke-opacity:1"/>
<path class="bond-33 atom-33 atom-34" d="M 343.9,260.7 L 341.9,261.6" style="fill:none;fill-rule:evenodd;stroke:#000000;stroke-width:1.0px;stroke-linecap:butt;stroke-linejoin:miter;stroke-opacity:1"/>
<path class="bond-33 atom-33 atom-34" d="M 345.6,263.9 L 343.1,265.0" style="fill:none;fill-rule:evenodd;stroke:#000000;stroke-width:1.0px;stroke-linecap:butt;stroke-linejoin:miter;stroke-opacity:1"/>
<path class="bond-33 atom-33 atom-34" d="M 347.2,267.2 L 344.2,268.4" style="fill:none;fill-rule:evenodd;stroke:#000000;stroke-width:1.0px;stroke-linecap:butt;stroke-linejoin:miter;stroke-opacity:1"/>
<path class="bond-33 atom-33 atom-34" d="M 348.9,270.4 L 345.4,271.9" style="fill:none;fill-rule:evenodd;stroke:#000000;stroke-width:1.0px;stroke-linecap:butt;stroke-linejoin:miter;stroke-opacity:1"/>
<path class="bond-33 atom-33 atom-34" d="M 350.6,273.6 L 346.6,275.3" style="fill:none;fill-rule:evenodd;stroke:#000000;stroke-width:1.0px;stroke-linecap:butt;stroke-linejoin:miter;stroke-opacity:1"/>
<path class="bond-33 atom-33 atom-34" d="M 352.2,276.9 L 347.7,278.8" style="fill:none;fill-rule:evenodd;stroke:#000000;stroke-width:1.0px;stroke-linecap:butt;stroke-linejoin:miter;stroke-opacity:1"/>
<path class="bond-33 atom-33 atom-34" d="M 353.9,280.1 L 348.9,282.2" style="fill:none;fill-rule:evenodd;stroke:#000000;stroke-width:1.0px;stroke-linecap:butt;stroke-linejoin:miter;stroke-opacity:1"/>
<path class="bond-33 atom-33 atom-34" d="M 355.5,283.3 L 350.0,285.6" style="fill:none;fill-rule:evenodd;stroke:#000000;stroke-width:1.0px;stroke-linecap:butt;stroke-linejoin:miter;stroke-opacity:1"/>
<path class="bond-33 atom-33 atom-34" d="M 357.2,286.5 L 351.2,289.1" style="fill:none;fill-rule:evenodd;stroke:#000000;stroke-width:1.0px;stroke-linecap:butt;stroke-linejoin:miter;stroke-opacity:1"/>
<path class="bond-33 atom-33 atom-34" d="M 358.9,289.8 L 352.4,292.5" style="fill:none;fill-rule:evenodd;stroke:#000000;stroke-width:1.0px;stroke-linecap:butt;stroke-linejoin:miter;stroke-opacity:1"/>
<path class="bond-33 atom-33 atom-34" d="M 360.5,293.0 L 353.5,296.0" style="fill:none;fill-rule:evenodd;stroke:#000000;stroke-width:1.0px;stroke-linecap:butt;stroke-linejoin:miter;stroke-opacity:1"/>
<path class="bond-34 atom-18 atom-4" d="M 326.5,334.9 L 295.9,375.4" style="fill:none;fill-rule:evenodd;stroke:#000000;stroke-width:2.0px;stroke-linecap:butt;stroke-linejoin:miter;stroke-opacity:1"/>
<path class="bond-35 atom-33 atom-22" d="M 337.3,247.8 L 387.6,254.0" style="fill:none;fill-rule:evenodd;stroke:#000000;stroke-width:2.0px;stroke-linecap:butt;stroke-linejoin:miter;stroke-opacity:1"/>
<path class="bond-36 atom-14 atom-10" d="M 81.0,219.0 L 105.5,263.3" style="fill:none;fill-rule:evenodd;stroke:#000000;stroke-width:2.0px;stroke-linecap:butt;stroke-linejoin:miter;stroke-opacity:1"/>
<path class="bond-36 atom-14 atom-10" d="M 77.0,227.5 L 96.2,262.2" style="fill:none;fill-rule:evenodd;stroke:#000000;stroke-width:2.0px;stroke-linecap:butt;stroke-linejoin:miter;stroke-opacity:1"/>
<path class="bond-37 atom-33 atom-17" d="M 337.3,247.8 L 306.7,288.2" style="fill:none;fill-rule:evenodd;stroke:#000000;stroke-width:2.0px;stroke-linecap:butt;stroke-linejoin:miter;stroke-opacity:1"/>
<path class="bond-38 atom-31 atom-27" d="M 354.5,70.6 L 328.3,114.0" style="fill:none;fill-rule:evenodd;stroke:#000000;stroke-width:2.0px;stroke-linecap:butt;stroke-linejoin:miter;stroke-opacity:1"/>
<path class="bond-38 atom-31 atom-27" d="M 345.1,71.4 L 324.6,105.4" style="fill:none;fill-rule:evenodd;stroke:#000000;stroke-width:2.0px;stroke-linecap:butt;stroke-linejoin:miter;stroke-opacity:1"/>
<path class="bond-39 atom-17 atom-35" d="M 306.7,288.2 L 287.9,253.6 L 294.9,250.6 Z" style="fill:#000000;fill-rule:evenodd;fill-opacity:1;stroke:#000000;stroke-width:0.5px;stroke-linecap:butt;stroke-linejoin:miter;stroke-opacity:1;"/>
<path class="bond-40 atom-22 atom-36" d="M 387.6,254.0 L 429.4,255.4 L 428.4,262.9 Z" style="fill:#000000;fill-rule:evenodd;fill-opacity:1;stroke:#000000;stroke-width:0.5px;stroke-linecap:butt;stroke-linejoin:miter;stroke-opacity:1;"/>
<path d="M 293.4,375.1 L 295.9,375.4 L 297.5,373.3" style="fill:none;stroke:#000000;stroke-width:2.0px;stroke-linecap:butt;stroke-linejoin:miter;stroke-opacity:1;"/>
<path d="M 248.1,369.4 L 245.6,369.1 L 244.6,366.8" style="fill:none;stroke:#000000;stroke-width:2.0px;stroke-linecap:butt;stroke-linejoin:miter;stroke-opacity:1;"/>
<path d="M 226.9,324.8 L 225.9,322.5 L 227.4,320.4" style="fill:none;stroke:#000000;stroke-width:2.0px;stroke-linecap:butt;stroke-linejoin:miter;stroke-opacity:1;"/>
<path d="M 156.2,270.5 L 155.8,269.6 L 153.3,269.2" style="fill:none;stroke:#000000;stroke-width:2.0px;stroke-linecap:butt;stroke-linejoin:miter;stroke-opacity:1;"/>
<path d="M 72.6,298.5 L 70.9,300.4 L 68.6,299.3" style="fill:none;stroke:#000000;stroke-width:2.0px;stroke-linecap:butt;stroke-linejoin:miter;stroke-opacity:1;"/>
<path d="M 27.3,280.0 L 25.0,278.9 L 25.1,277.9" style="fill:none;stroke:#000000;stroke-width:2.0px;stroke-linecap:butt;stroke-linejoin:miter;stroke-opacity:1;"/>
<path d="M 79.9,219.2 L 81.0,219.0 L 82.2,221.2" style="fill:none;stroke:#000000;stroke-width:2.0px;stroke-linecap:butt;stroke-linejoin:miter;stroke-opacity:1;"/>
<path d="M 254.9,284.0 L 256.4,282.0 L 258.9,282.3" style="fill:none;stroke:#000000;stroke-width:2.0px;stroke-linecap:butt;stroke-linejoin:miter;stroke-opacity:1;"/>
<path d="M 374.3,340.8 L 376.8,341.2 L 378.3,339.1" style="fill:none;stroke:#000000;stroke-width:2.0px;stroke-linecap:butt;stroke-linejoin:miter;stroke-opacity:1;"/>
<path d="M 405.8,302.7 L 407.3,300.7 L 406.3,298.4" style="fill:none;stroke:#000000;stroke-width:2.0px;stroke-linecap:butt;stroke-linejoin:miter;stroke-opacity:1;"/>
<path d="M 416.6,215.6 L 418.1,213.6 L 417.7,212.7" style="fill:none;stroke:#000000;stroke-width:2.0px;stroke-linecap:butt;stroke-linejoin:miter;stroke-opacity:1;"/>
<path d="M 349.1,160.8 L 348.1,160.7 L 346.5,162.7" style="fill:none;stroke:#000000;stroke-width:2.0px;stroke-linecap:butt;stroke-linejoin:miter;stroke-opacity:1;"/>
<path d="M 325.8,113.4 L 328.3,114.0 L 329.6,111.8" style="fill:none;stroke:#000000;stroke-width:2.0px;stroke-linecap:butt;stroke-linejoin:miter;stroke-opacity:1;"/>
<path d="M 281.4,103.1 L 278.9,102.6 L 278.7,100.0" style="fill:none;stroke:#000000;stroke-width:2.0px;stroke-linecap:butt;stroke-linejoin:miter;stroke-opacity:1;"/>
<path d="M 274.8,54.6 L 274.6,52.1 L 275.5,51.6" style="fill:none;stroke:#000000;stroke-width:2.0px;stroke-linecap:butt;stroke-linejoin:miter;stroke-opacity:1;"/>
<path d="M 353.8,69.9 L 354.5,70.6 L 353.2,72.8" style="fill:none;stroke:#000000;stroke-width:2.0px;stroke-linecap:butt;stroke-linejoin:miter;stroke-opacity:1;"/>
<path d="M 319.0,199.1 L 317.5,201.1 L 318.5,203.5" style="fill:none;stroke:#000000;stroke-width:2.0px;stroke-linecap:butt;stroke-linejoin:miter;stroke-opacity:1;"/>
<path class="atom-1" d="M 359.4 428.3 Q 359.4 424.9, 361.1 422.9 Q 362.8 421.0, 366.0 421.0 Q 369.2 421.0, 370.9 422.9 Q 372.6 424.9, 372.6 428.3 Q 372.6 431.8, 370.8 433.8 Q 369.1 435.8, 366.0 435.8 Q 362.8 435.8, 361.1 433.8 Q 359.4 431.8, 359.4 428.3 M 366.0 434.1 Q 368.2 434.1, 369.3 432.7 Q 370.5 431.2, 370.5 428.3 Q 370.5 425.5, 369.3 424.1 Q 368.2 422.6, 366.0 422.6 Q 363.8 422.6, 362.6 424.1 Q 361.4 425.5, 361.4 428.3 Q 361.4 431.2, 362.6 432.7 Q 363.8 434.1, 366.0 434.1 " fill="#FF0000"/>
<path class="atom-3" d="M 278.5 462.5 Q 278.5 459.1, 280.2 457.2 Q 281.9 455.2, 285.1 455.2 Q 288.3 455.2, 290.0 457.2 Q 291.7 459.1, 291.7 462.5 Q 291.7 466.0, 290.0 468.0 Q 288.3 470.0, 285.1 470.0 Q 282.0 470.0, 280.2 468.0 Q 278.5 466.0, 278.5 462.5 M 285.1 468.4 Q 287.3 468.4, 288.5 466.9 Q 289.7 465.4, 289.7 462.5 Q 289.7 459.7, 288.5 458.3 Q 287.3 456.9, 285.1 456.9 Q 282.9 456.9, 281.7 458.3 Q 280.6 459.7, 280.6 462.5 Q 280.6 465.4, 281.7 466.9 Q 282.9 468.4, 285.1 468.4 " fill="#FF0000"/>
<path class="atom-7" d="M 169.0 316.3 Q 169.0 312.8, 170.7 310.9 Q 172.4 309.0, 175.6 309.0 Q 178.8 309.0, 180.5 310.9 Q 182.2 312.8, 182.2 316.3 Q 182.2 319.8, 180.4 321.7 Q 178.7 323.7, 175.6 323.7 Q 172.4 323.7, 170.7 321.7 Q 169.0 319.8, 169.0 316.3 M 175.6 322.1 Q 177.8 322.1, 178.9 320.6 Q 180.1 319.1, 180.1 316.3 Q 180.1 313.5, 178.9 312.0 Q 177.8 310.6, 175.6 310.6 Q 173.4 310.6, 172.2 312.0 Q 171.0 313.4, 171.0 316.3 Q 171.0 319.2, 172.2 320.6 Q 173.4 322.1, 175.6 322.1 " fill="#FF0000"/>
<path class="atom-9" d="M 179.8 229.1 Q 179.8 225.7, 181.5 223.8 Q 183.2 221.8, 186.4 221.8 Q 189.5 221.8, 191.3 223.8 Q 193.0 225.7, 193.0 229.1 Q 193.0 232.6, 191.2 234.6 Q 189.5 236.6, 186.4 236.6 Q 183.2 236.6, 181.5 234.6 Q 179.8 232.7, 179.8 229.1 M 186.4 235.0 Q 188.6 235.0, 189.7 233.5 Q 190.9 232.0, 190.9 229.1 Q 190.9 226.3, 189.7 224.9 Q 188.6 223.5, 186.4 223.5 Q 184.2 223.5, 183.0 224.9 Q 181.8 226.3, 181.8 229.1 Q 181.8 232.0, 183.0 233.5 Q 184.2 235.0, 186.4 235.0 " fill="#FF0000"/>
<path class="atom-13" d="M 27.2 233.5 Q 27.3 233.6, 28.0 233.9 Q 28.7 234.1, 29.4 234.3 Q 30.2 234.5, 30.9 234.5 Q 32.2 234.5, 33.0 233.8 Q 33.8 233.2, 33.8 232.0 Q 33.8 231.2, 33.4 230.7 Q 33.0 230.2, 32.4 230.0 Q 31.8 229.7, 30.8 229.4 Q 29.5 229.0, 28.8 228.7 Q 28.0 228.3, 27.5 227.5 Q 26.9 226.8, 26.9 225.5 Q 26.9 223.7, 28.2 222.5 Q 29.4 221.4, 31.8 221.4 Q 33.5 221.4, 35.4 222.2 L 34.9 223.8 Q 33.2 223.1, 31.9 223.1 Q 30.5 223.1, 29.7 223.7 Q 28.9 224.2, 29.0 225.2 Q 29.0 226.0, 29.3 226.5 Q 29.8 226.9, 30.3 227.2 Q 30.9 227.4, 31.9 227.7 Q 33.2 228.2, 33.9 228.6 Q 34.7 229.0, 35.3 229.8 Q 35.8 230.6, 35.8 232.0 Q 35.8 234.0, 34.5 235.1 Q 33.2 236.1, 31.0 236.1 Q 29.7 236.1, 28.7 235.8 Q 27.8 235.6, 26.6 235.1 L 27.2 233.5 " fill="#CCCC00"/>
<path class="atom-16" d="M 230.1 235.4 Q 230.1 231.9, 231.8 230.0 Q 233.5 228.1, 236.7 228.1 Q 239.8 228.1, 241.6 230.0 Q 243.3 231.9, 243.3 235.4 Q 243.3 238.9, 241.5 240.9 Q 239.8 242.8, 236.7 242.8 Q 233.5 242.8, 231.8 240.9 Q 230.1 238.9, 230.1 235.4 M 236.7 241.2 Q 238.9 241.2, 240.0 239.7 Q 241.2 238.3, 241.2 235.4 Q 241.2 232.6, 240.0 231.1 Q 238.9 229.7, 236.7 229.7 Q 234.5 229.7, 233.3 231.1 Q 232.1 232.5, 232.1 235.4 Q 232.1 238.3, 233.3 239.7 Q 234.5 241.2, 236.7 241.2 " fill="#FF0000"/>
<path class="atom-24" d="M 461.8 219.9 Q 461.8 216.4, 463.5 214.5 Q 465.2 212.6, 468.4 212.6 Q 471.6 212.6, 473.3 214.5 Q 475.0 216.4, 475.0 219.9 Q 475.0 223.4, 473.3 225.3 Q 471.6 227.3, 468.4 227.3 Q 465.2 227.3, 463.5 225.3 Q 461.8 223.4, 461.8 219.9 M 468.4 225.7 Q 470.6 225.7, 471.8 224.2 Q 473.0 222.7, 473.0 219.9 Q 473.0 217.0, 471.8 215.6 Q 470.6 214.2, 468.4 214.2 Q 466.2 214.2, 465.0 215.6 Q 463.8 217.0, 463.8 219.9 Q 463.8 222.8, 465.0 224.2 Q 466.2 225.7, 468.4 225.7 " fill="#FF0000"/>
<path class="atom-25" d="M 391.8 167.0 Q 391.8 163.5, 393.5 161.6 Q 395.2 159.7, 398.4 159.7 Q 401.5 159.7, 403.2 161.6 Q 404.9 163.5, 404.9 167.0 Q 404.9 170.4, 403.2 172.4 Q 401.5 174.4, 398.4 174.4 Q 395.2 174.4, 393.5 172.4 Q 391.8 170.5, 391.8 167.0 M 398.4 172.8 Q 400.5 172.8, 401.7 171.3 Q 402.9 169.8, 402.9 167.0 Q 402.9 164.1, 401.7 162.7 Q 400.5 161.3, 398.4 161.3 Q 396.2 161.3, 395.0 162.7 Q 393.8 164.1, 393.8 167.0 Q 393.8 169.9, 395.0 171.3 Q 396.2 172.8, 398.4 172.8 " fill="#FF0000"/>
<path class="atom-30" d="M 314.7 32.3 Q 314.7 28.9, 316.4 27.0 Q 318.1 25.0, 321.2 25.0 Q 324.4 25.0, 326.1 27.0 Q 327.8 28.9, 327.8 32.3 Q 327.8 35.8, 326.1 37.8 Q 324.4 39.8, 321.2 39.8 Q 318.1 39.8, 316.4 37.8 Q 314.7 35.8, 314.7 32.3 M 321.2 38.2 Q 323.4 38.2, 324.6 36.7 Q 325.8 35.2, 325.8 32.3 Q 325.8 29.5, 324.6 28.1 Q 323.4 26.7, 321.2 26.7 Q 319.1 26.7, 317.9 28.1 Q 316.7 29.5, 316.7 32.3 Q 316.7 35.2, 317.9 36.7 Q 319.1 38.2, 321.2 38.2 " fill="#FF0000"/>
<path class="atom-35" d="M 281.3 234.4 L 283.3 234.4 L 283.3 240.5 L 290.6 240.5 L 290.6 234.4 L 292.6 234.4 L 292.6 248.7 L 290.6 248.7 L 290.6 242.1 L 283.3 242.1 L 283.3 248.7 L 281.3 248.7 L 281.3 234.4 " fill="#000000"/>
<path class="atom-36" d="M 432.2 253.1 L 434.2 253.1 L 434.2 259.2 L 441.5 259.2 L 441.5 253.1 L 443.5 253.1 L 443.5 267.4 L 441.5 267.4 L 441.5 260.8 L 434.2 260.8 L 434.2 267.4 L 432.2 267.4 L 432.2 253.1 " fill="#000000"/>
<path class="note" d="M 280.5 390.0 Q 280.5 388.5, 280.9 387.3 Q 281.3 386.1, 282.1 384.8 L 282.7 385.2 Q 282.1 386.4, 281.7 387.5 Q 281.4 388.6, 281.4 390.0 Q 281.4 391.3, 281.7 392.4 Q 282.1 393.5, 282.7 394.8 L 282.1 395.1 Q 281.3 393.8, 280.9 392.6 Q 280.5 391.4, 280.5 390.0 " fill="#000000"/>
<path class="note" d="M 287.1 392.9 L 285.4 389.9 L 285.4 389.9 L 284.3 389.9 L 284.3 392.9 L 283.3 392.9 L 283.3 385.7 L 285.4 385.7 Q 286.6 385.7, 287.2 386.2 Q 287.9 386.8, 287.9 387.8 Q 287.9 388.6, 287.5 389.1 Q 287.1 389.6, 286.4 389.8 L 288.2 392.9 L 287.1 392.9 M 284.3 389.1 L 285.4 389.1 Q 286.1 389.1, 286.5 388.8 Q 286.8 388.4, 286.8 387.8 Q 286.8 387.2, 286.5 386.8 Q 286.1 386.5, 285.4 386.5 L 284.3 386.5 L 284.3 389.1 " fill="#000000"/>
<path class="note" d="M 291.0 390.0 Q 291.0 391.4, 290.6 392.6 Q 290.2 393.8, 289.3 395.1 L 288.8 394.8 Q 289.4 393.5, 289.8 392.4 Q 290.1 391.3, 290.1 390.0 Q 290.1 388.6, 289.8 387.5 Q 289.4 386.4, 288.8 385.2 L 289.3 384.8 Q 290.2 386.1, 290.6 387.3 Q 291.0 388.5, 291.0 390.0 " fill="#000000"/>
<path class="note" d="M 210.5 337.1 Q 210.5 335.6, 210.9 334.4 Q 211.3 333.2, 212.2 331.9 L 212.7 332.3 Q 212.1 333.5, 211.7 334.6 Q 211.4 335.7, 211.4 337.1 Q 211.4 338.4, 211.7 339.5 Q 212.1 340.6, 212.7 341.8 L 212.2 342.2 Q 211.3 340.9, 210.9 339.7 Q 210.5 338.5, 210.5 337.1 " fill="#000000"/>
<path class="note" d="M 213.5 338.8 Q 213.6 338.9, 214.0 339.0 Q 214.3 339.2, 214.7 339.2 Q 215.0 339.3, 215.4 339.3 Q 216.1 339.3, 216.5 339.0 Q 216.9 338.7, 216.9 338.1 Q 216.9 337.7, 216.7 337.5 Q 216.5 337.2, 216.2 337.1 Q 215.9 336.9, 215.4 336.8 Q 214.7 336.6, 214.3 336.4 Q 214.0 336.2, 213.7 335.9 Q 213.4 335.5, 213.4 334.8 Q 213.4 333.9, 214.0 333.4 Q 214.7 332.8, 215.9 332.8 Q 216.7 332.8, 217.6 333.2 L 217.4 334.0 Q 216.6 333.6, 215.9 333.6 Q 215.2 333.6, 214.8 333.9 Q 214.4 334.2, 214.4 334.7 Q 214.4 335.1, 214.6 335.3 Q 214.8 335.5, 215.1 335.7 Q 215.4 335.8, 215.9 336.0 Q 216.6 336.2, 216.9 336.4 Q 217.3 336.6, 217.6 337.0 Q 217.9 337.4, 217.9 338.1 Q 217.9 339.1, 217.2 339.6 Q 216.6 340.1, 215.4 340.1 Q 214.8 340.1, 214.3 340.0 Q 213.8 339.9, 213.3 339.6 L 213.5 338.8 " fill="#000000"/>
<path class="note" d="M 220.9 337.1 Q 220.9 338.5, 220.5 339.7 Q 220.0 340.9, 219.2 342.2 L 218.7 341.8 Q 219.3 340.6, 219.6 339.5 Q 220.0 338.4, 220.0 337.1 Q 220.0 335.7, 219.6 334.6 Q 219.3 333.5, 218.7 332.3 L 219.2 331.9 Q 220.0 333.2, 220.5 334.4 Q 220.9 335.6, 220.9 337.1 " fill="#000000"/>
<path class="note" d="M 291.3 302.9 Q 291.3 301.4, 291.8 300.2 Q 292.2 299.0, 293.0 297.7 L 293.6 298.1 Q 292.9 299.3, 292.6 300.4 Q 292.2 301.5, 292.2 302.9 Q 292.2 304.2, 292.6 305.3 Q 292.9 306.4, 293.6 307.6 L 293.0 308.0 Q 292.2 306.7, 291.8 305.5 Q 291.3 304.3, 291.3 302.9 " fill="#000000"/>
<path class="note" d="M 294.4 304.6 Q 294.5 304.7, 294.8 304.8 Q 295.1 304.9, 295.5 305.0 Q 295.9 305.1, 296.3 305.1 Q 296.9 305.1, 297.3 304.8 Q 297.7 304.5, 297.7 303.9 Q 297.7 303.5, 297.5 303.2 Q 297.3 303.0, 297.0 302.9 Q 296.7 302.7, 296.2 302.6 Q 295.6 302.4, 295.2 302.2 Q 294.8 302.0, 294.5 301.6 Q 294.3 301.3, 294.3 300.6 Q 294.3 299.7, 294.9 299.1 Q 295.5 298.6, 296.7 298.6 Q 297.5 298.6, 298.5 299.0 L 298.3 299.8 Q 297.4 299.4, 296.7 299.4 Q 296.0 299.4, 295.7 299.7 Q 295.3 300.0, 295.3 300.5 Q 295.3 300.9, 295.5 301.1 Q 295.7 301.3, 296.0 301.5 Q 296.3 301.6, 296.7 301.8 Q 297.4 302.0, 297.8 302.2 Q 298.2 302.4, 298.4 302.8 Q 298.7 303.2, 298.7 303.9 Q 298.7 304.9, 298.1 305.4 Q 297.4 305.9, 296.3 305.9 Q 295.7 305.9, 295.2 305.8 Q 294.7 305.7, 294.1 305.4 L 294.4 304.6 " fill="#000000"/>
<path class="note" d="M 301.7 302.9 Q 301.7 304.3, 301.3 305.5 Q 300.9 306.7, 300.1 308.0 L 299.5 307.6 Q 300.2 306.4, 300.5 305.3 Q 300.8 304.2, 300.8 302.9 Q 300.8 301.5, 300.5 300.4 Q 300.2 299.3, 299.5 298.1 L 300.1 297.7 Q 300.9 299.0, 301.3 300.2 Q 301.7 301.4, 301.7 302.9 " fill="#000000"/>
<path class="note" d="M 331.4 322.6 Q 331.4 321.1, 331.8 319.9 Q 332.2 318.7, 333.1 317.4 L 333.6 317.8 Q 333.0 319.0, 332.6 320.1 Q 332.3 321.2, 332.3 322.6 Q 332.3 323.9, 332.6 325.0 Q 333.0 326.1, 333.6 327.3 L 333.1 327.7 Q 332.2 326.4, 331.8 325.2 Q 331.4 324.0, 331.4 322.6 " fill="#000000"/>
<path class="note" d="M 338.1 325.5 L 336.3 322.5 L 336.3 322.5 L 335.2 322.5 L 335.2 325.5 L 334.2 325.5 L 334.2 318.3 L 336.3 318.3 Q 337.5 318.3, 338.2 318.8 Q 338.8 319.4, 338.8 320.4 Q 338.8 321.2, 338.4 321.7 Q 338.0 322.2, 337.3 322.4 L 339.1 325.5 L 338.1 325.5 M 335.2 321.7 L 336.3 321.7 Q 337.0 321.7, 337.4 321.4 Q 337.8 321.0, 337.8 320.4 Q 337.8 319.8, 337.4 319.4 Q 337.0 319.1, 336.3 319.1 L 335.2 319.1 L 335.2 321.7 " fill="#000000"/>
<path class="note" d="M 341.9 322.6 Q 341.9 324.0, 341.5 325.2 Q 341.1 326.4, 340.3 327.7 L 339.7 327.3 Q 340.3 326.1, 340.7 325.0 Q 341.0 323.9, 341.0 322.6 Q 341.0 321.2, 340.7 320.1 Q 340.3 319.0, 339.7 317.8 L 340.3 317.4 Q 341.1 318.7, 341.5 319.9 Q 341.9 321.1, 341.9 322.6 " fill="#000000"/>
<path class="note" d="M 380.2 271.9 Q 380.2 270.5, 380.6 269.3 Q 381.1 268.1, 381.9 266.8 L 382.5 267.2 Q 381.8 268.4, 381.5 269.5 Q 381.1 270.5, 381.1 271.9 Q 381.1 273.3, 381.5 274.4 Q 381.8 275.5, 382.5 276.7 L 381.9 277.1 Q 381.1 275.8, 380.6 274.6 Q 380.2 273.4, 380.2 271.9 " fill="#000000"/>
<path class="note" d="M 386.9 274.8 L 385.2 271.9 L 385.1 271.9 L 384.0 271.9 L 384.0 274.8 L 383.0 274.8 L 383.0 267.6 L 385.1 267.6 Q 386.4 267.6, 387.0 268.2 Q 387.6 268.7, 387.6 269.7 Q 387.6 270.5, 387.2 271.0 Q 386.9 271.5, 386.1 271.7 L 388.0 274.8 L 386.9 274.8 M 384.0 271.1 L 385.1 271.1 Q 385.8 271.1, 386.2 270.7 Q 386.6 270.4, 386.6 269.7 Q 386.6 269.1, 386.2 268.8 Q 385.9 268.5, 385.1 268.5 L 384.0 268.5 L 384.0 271.1 " fill="#000000"/>
<path class="note" d="M 390.7 271.9 Q 390.7 273.4, 390.3 274.6 Q 389.9 275.8, 389.1 277.1 L 388.5 276.7 Q 389.2 275.5, 389.5 274.4 Q 389.8 273.3, 389.8 271.9 Q 389.8 270.5, 389.5 269.5 Q 389.2 268.4, 388.5 267.2 L 389.1 266.8 Q 389.9 268.1, 390.3 269.3 Q 390.7 270.5, 390.7 271.9 " fill="#000000"/>
<path class="note" d="M 353.0 148.3 Q 353.0 146.9, 353.5 145.7 Q 353.9 144.5, 354.7 143.2 L 355.3 143.6 Q 354.6 144.8, 354.3 145.9 Q 354.0 146.9, 354.0 148.3 Q 354.0 149.7, 354.3 150.8 Q 354.6 151.9, 355.3 153.1 L 354.7 153.5 Q 353.9 152.2, 353.5 151.0 Q 353.0 149.8, 353.0 148.3 " fill="#000000"/>
<path class="note" d="M 356.1 150.1 Q 356.2 150.1, 356.5 150.3 Q 356.9 150.4, 357.2 150.5 Q 357.6 150.6, 358.0 150.6 Q 358.6 150.6, 359.0 150.3 Q 359.4 149.9, 359.4 149.4 Q 359.4 149.0, 359.2 148.7 Q 359.0 148.5, 358.7 148.3 Q 358.4 148.2, 357.9 148.1 Q 357.3 147.9, 356.9 147.7 Q 356.5 147.5, 356.2 147.1 Q 356.0 146.7, 356.0 146.1 Q 356.0 145.2, 356.6 144.6 Q 357.2 144.1, 358.4 144.1 Q 359.3 144.1, 360.2 144.5 L 360.0 145.2 Q 359.1 144.9, 358.5 144.9 Q 357.8 144.9, 357.4 145.2 Q 357.0 145.5, 357.0 146.0 Q 357.0 146.3, 357.2 146.6 Q 357.4 146.8, 357.7 146.9 Q 358.0 147.1, 358.5 147.2 Q 359.1 147.4, 359.5 147.6 Q 359.9 147.8, 360.1 148.2 Q 360.4 148.7, 360.4 149.4 Q 360.4 150.3, 359.8 150.9 Q 359.1 151.4, 358.0 151.4 Q 357.4 151.4, 356.9 151.3 Q 356.4 151.1, 355.8 150.9 L 356.1 150.1 " fill="#000000"/>
<path class="note" d="M 363.4 148.3 Q 363.4 149.8, 363.0 151.0 Q 362.6 152.2, 361.8 153.5 L 361.2 153.1 Q 361.9 151.9, 362.2 150.8 Q 362.5 149.7, 362.5 148.3 Q 362.5 146.9, 362.2 145.9 Q 361.9 144.8, 361.2 143.6 L 361.8 143.2 Q 362.6 144.5, 363.0 145.7 Q 363.4 146.9, 363.4 148.3 " fill="#000000"/>
<path class="note" d="M 342.2 235.4 Q 342.2 234.0, 342.6 232.8 Q 343.0 231.6, 343.8 230.3 L 344.4 230.7 Q 343.8 231.9, 343.4 233.0 Q 343.1 234.1, 343.1 235.4 Q 343.1 236.8, 343.4 237.9 Q 343.8 239.0, 344.4 240.2 L 343.8 240.6 Q 343.0 239.3, 342.6 238.1 Q 342.2 236.9, 342.2 235.4 " fill="#000000"/>
<path class="note" d="M 348.9 238.3 L 347.1 235.4 L 347.1 235.4 L 346.0 235.4 L 346.0 238.3 L 345.0 238.3 L 345.0 231.2 L 347.1 231.2 Q 348.3 231.2, 348.9 231.7 Q 349.6 232.3, 349.6 233.3 Q 349.6 234.0, 349.2 234.5 Q 348.8 235.1, 348.1 235.3 L 349.9 238.3 L 348.9 238.3 M 346.0 234.6 L 347.1 234.6 Q 347.8 234.6, 348.2 234.2 Q 348.6 233.9, 348.6 233.3 Q 348.6 232.6, 348.2 232.3 Q 347.8 232.0, 347.1 232.0 L 346.0 232.0 L 346.0 234.6 " fill="#000000"/>
<path class="note" d="M 352.7 235.4 Q 352.7 236.9, 352.3 238.1 Q 351.9 239.3, 351.0 240.6 L 350.5 240.2 Q 351.1 239.0, 351.5 237.9 Q 351.8 236.8, 351.8 235.4 Q 351.8 234.1, 351.5 233.0 Q 351.1 231.9, 350.5 230.7 L 351.0 230.3 Q 351.9 231.6, 352.3 232.8 Q 352.7 234.0, 352.7 235.4 " fill="#000000"/>
<path class="bond-0 atom-0 atom-1" d="M 526.7,353.5 L 545.5,344.7" style="fill:none;fill-rule:evenodd;stroke:#000000;stroke-width:2.0px;stroke-linecap:butt;stroke-linejoin:miter;stroke-opacity:1"/>
<path class="bond-0 atom-0 atom-1" d="M 545.5,344.7 L 564.4,335.9" style="fill:none;fill-rule:evenodd;stroke:#FF0000;stroke-width:2.0px;stroke-linecap:butt;stroke-linejoin:miter;stroke-opacity:1"/>
<path class="bond-1 atom-1 atom-2" d="M 573.4,323.1 L 575.2,302.4" style="fill:none;fill-rule:evenodd;stroke:#FF0000;stroke-width:2.0px;stroke-linecap:butt;stroke-linejoin:miter;stroke-opacity:1"/>
<path class="bond-1 atom-1 atom-2" d="M 575.2,302.4 L 577.0,281.6" style="fill:none;fill-rule:evenodd;stroke:#000000;stroke-width:2.0px;stroke-linecap:butt;stroke-linejoin:miter;stroke-opacity:1"/>
<path class="bond-2 atom-2 atom-3" d="M 581.0,279.7 L 563.4,267.5" style="fill:none;fill-rule:evenodd;stroke:#000000;stroke-width:2.0px;stroke-linecap:butt;stroke-linejoin:miter;stroke-opacity:1"/>
<path class="bond-2 atom-2 atom-3" d="M 563.4,267.5 L 545.9,255.2" style="fill:none;fill-rule:evenodd;stroke:#FF0000;stroke-width:2.0px;stroke-linecap:butt;stroke-linejoin:miter;stroke-opacity:1"/>
<path class="bond-2 atom-2 atom-3" d="M 576.6,286.0 L 559.1,273.7" style="fill:none;fill-rule:evenodd;stroke:#000000;stroke-width:2.0px;stroke-linecap:butt;stroke-linejoin:miter;stroke-opacity:1"/>
<path class="bond-2 atom-2 atom-3" d="M 559.1,273.7 L 541.6,261.4" style="fill:none;fill-rule:evenodd;stroke:#FF0000;stroke-width:2.0px;stroke-linecap:butt;stroke-linejoin:miter;stroke-opacity:1"/>
<path class="bond-3 atom-4 atom-2" d="M 619.5,261.4 L 619.8,261.9" style="fill:none;fill-rule:evenodd;stroke:#000000;stroke-width:1.0px;stroke-linecap:butt;stroke-linejoin:miter;stroke-opacity:1"/>
<path class="bond-3 atom-4 atom-2" d="M 616.1,262.7 L 616.6,263.7" style="fill:none;fill-rule:evenodd;stroke:#000000;stroke-width:1.0px;stroke-linecap:butt;stroke-linejoin:miter;stroke-opacity:1"/>
<path class="bond-3 atom-4 atom-2" d="M 612.7,263.9 L 613.5,265.5" style="fill:none;fill-rule:evenodd;stroke:#000000;stroke-width:1.0px;stroke-linecap:butt;stroke-linejoin:miter;stroke-opacity:1"/>
<path class="bond-3 atom-4 atom-2" d="M 609.3,265.2 L 610.3,267.3" style="fill:none;fill-rule:evenodd;stroke:#000000;stroke-width:1.0px;stroke-linecap:butt;stroke-linejoin:miter;stroke-opacity:1"/>
<path class="bond-3 atom-4 atom-2" d="M 605.9,266.5 L 607.2,269.1" style="fill:none;fill-rule:evenodd;stroke:#000000;stroke-width:1.0px;stroke-linecap:butt;stroke-linejoin:miter;stroke-opacity:1"/>
<path class="bond-3 atom-4 atom-2" d="M 602.5,267.7 L 604.0,270.9" style="fill:none;fill-rule:evenodd;stroke:#000000;stroke-width:1.0px;stroke-linecap:butt;stroke-linejoin:miter;stroke-opacity:1"/>
<path class="bond-3 atom-4 atom-2" d="M 599.1,269.0 L 600.8,272.7" style="fill:none;fill-rule:evenodd;stroke:#000000;stroke-width:1.0px;stroke-linecap:butt;stroke-linejoin:miter;stroke-opacity:1"/>
<path class="bond-3 atom-4 atom-2" d="M 595.7,270.3 L 597.7,274.5" style="fill:none;fill-rule:evenodd;stroke:#000000;stroke-width:1.0px;stroke-linecap:butt;stroke-linejoin:miter;stroke-opacity:1"/>
<path class="bond-3 atom-4 atom-2" d="M 592.3,271.5 L 594.5,276.3" style="fill:none;fill-rule:evenodd;stroke:#000000;stroke-width:1.0px;stroke-linecap:butt;stroke-linejoin:miter;stroke-opacity:1"/>
<path class="bond-3 atom-4 atom-2" d="M 588.9,272.8 L 591.4,278.1" style="fill:none;fill-rule:evenodd;stroke:#000000;stroke-width:1.0px;stroke-linecap:butt;stroke-linejoin:miter;stroke-opacity:1"/>
<path class="bond-3 atom-4 atom-2" d="M 585.5,274.1 L 588.2,279.9" style="fill:none;fill-rule:evenodd;stroke:#000000;stroke-width:1.0px;stroke-linecap:butt;stroke-linejoin:miter;stroke-opacity:1"/>
<path class="bond-3 atom-4 atom-2" d="M 582.1,275.3 L 585.1,281.7" style="fill:none;fill-rule:evenodd;stroke:#000000;stroke-width:1.0px;stroke-linecap:butt;stroke-linejoin:miter;stroke-opacity:1"/>
<path class="bond-3 atom-4 atom-2" d="M 578.7,276.6 L 581.9,283.5" style="fill:none;fill-rule:evenodd;stroke:#000000;stroke-width:1.0px;stroke-linecap:butt;stroke-linejoin:miter;stroke-opacity:1"/>
<path class="bond-4 atom-4 atom-5" d="M 622.9,260.1 L 627.3,209.6" style="fill:none;fill-rule:evenodd;stroke:#000000;stroke-width:2.0px;stroke-linecap:butt;stroke-linejoin:miter;stroke-opacity:1"/>
<path class="bond-5 atom-5 atom-6" d="M 627.3,209.6 L 673.2,188.2" style="fill:none;fill-rule:evenodd;stroke:#000000;stroke-width:2.0px;stroke-linecap:butt;stroke-linejoin:miter;stroke-opacity:1"/>
<path class="bond-6 atom-6 atom-7" d="M 673.9,184.6 L 673.2,184.5" style="fill:none;fill-rule:evenodd;stroke:#000000;stroke-width:1.0px;stroke-linecap:butt;stroke-linejoin:miter;stroke-opacity:1"/>
<path class="bond-6 atom-6 atom-7" d="M 674.6,181.0 L 673.1,180.9" style="fill:none;fill-rule:evenodd;stroke:#000000;stroke-width:1.0px;stroke-linecap:butt;stroke-linejoin:miter;stroke-opacity:1"/>
<path class="bond-6 atom-6 atom-7" d="M 675.3,177.4 L 673.0,177.2" style="fill:none;fill-rule:evenodd;stroke:#000000;stroke-width:1.0px;stroke-linecap:butt;stroke-linejoin:miter;stroke-opacity:1"/>
<path class="bond-6 atom-6 atom-7" d="M 676.0,173.8 L 673.0,173.5" style="fill:none;fill-rule:evenodd;stroke:#000000;stroke-width:1.0px;stroke-linecap:butt;stroke-linejoin:miter;stroke-opacity:1"/>
<path class="bond-6 atom-6 atom-7" d="M 676.7,170.2 L 672.9,169.9" style="fill:none;fill-rule:evenodd;stroke:#000000;stroke-width:1.0px;stroke-linecap:butt;stroke-linejoin:miter;stroke-opacity:1"/>
<path class="bond-6 atom-6 atom-7" d="M 677.4,166.6 L 672.8,166.2" style="fill:none;fill-rule:evenodd;stroke:#0000FF;stroke-width:1.0px;stroke-linecap:butt;stroke-linejoin:miter;stroke-opacity:1"/>
<path class="bond-6 atom-6 atom-7" d="M 678.1,163.0 L 672.8,162.5" style="fill:none;fill-rule:evenodd;stroke:#0000FF;stroke-width:1.0px;stroke-linecap:butt;stroke-linejoin:miter;stroke-opacity:1"/>
<path class="bond-6 atom-6 atom-7" d="M 678.8,159.4 L 672.7,158.9" style="fill:none;fill-rule:evenodd;stroke:#0000FF;stroke-width:1.0px;stroke-linecap:butt;stroke-linejoin:miter;stroke-opacity:1"/>
<path class="bond-6 atom-6 atom-7" d="M 679.5,155.8 L 672.7,155.2" style="fill:none;fill-rule:evenodd;stroke:#0000FF;stroke-width:1.0px;stroke-linecap:butt;stroke-linejoin:miter;stroke-opacity:1"/>
<path class="bond-6 atom-6 atom-7" d="M 680.2,152.2 L 672.6,151.5" style="fill:none;fill-rule:evenodd;stroke:#0000FF;stroke-width:1.0px;stroke-linecap:butt;stroke-linejoin:miter;stroke-opacity:1"/>
<path class="bond-7 atom-7 atom-8" d="M 684.7,134.4 L 704.1,125.3" style="fill:none;fill-rule:evenodd;stroke:#0000FF;stroke-width:2.0px;stroke-linecap:butt;stroke-linejoin:miter;stroke-opacity:1"/>
<path class="bond-7 atom-7 atom-8" d="M 704.1,125.3 L 723.5,116.2" style="fill:none;fill-rule:evenodd;stroke:#000000;stroke-width:2.0px;stroke-linecap:butt;stroke-linejoin:miter;stroke-opacity:1"/>
<path class="bond-8 atom-8 atom-9" d="M 723.5,116.2 L 727.9,65.7" style="fill:none;fill-rule:evenodd;stroke:#000000;stroke-width:2.0px;stroke-linecap:butt;stroke-linejoin:miter;stroke-opacity:1"/>
<path class="bond-9 atom-8 atom-10" d="M 719.6,118.1 L 737.1,130.3" style="fill:none;fill-rule:evenodd;stroke:#000000;stroke-width:2.0px;stroke-linecap:butt;stroke-linejoin:miter;stroke-opacity:1"/>
<path class="bond-9 atom-8 atom-10" d="M 737.1,130.3 L 754.6,142.6" style="fill:none;fill-rule:evenodd;stroke:#FF0000;stroke-width:2.0px;stroke-linecap:butt;stroke-linejoin:miter;stroke-opacity:1"/>
<path class="bond-9 atom-8 atom-10" d="M 723.9,111.9 L 741.4,124.1" style="fill:none;fill-rule:evenodd;stroke:#000000;stroke-width:2.0px;stroke-linecap:butt;stroke-linejoin:miter;stroke-opacity:1"/>
<path class="bond-9 atom-8 atom-10" d="M 741.4,124.1 L 759.0,136.4" style="fill:none;fill-rule:evenodd;stroke:#FF0000;stroke-width:2.0px;stroke-linecap:butt;stroke-linejoin:miter;stroke-opacity:1"/>
<path class="bond-10 atom-6 atom-11" d="M 673.2,188.2 L 714.8,217.2" style="fill:none;fill-rule:evenodd;stroke:#000000;stroke-width:2.0px;stroke-linecap:butt;stroke-linejoin:miter;stroke-opacity:1"/>
<path class="bond-11 atom-11 atom-12" d="M 714.4,221.6 L 734.2,212.3" style="fill:none;fill-rule:evenodd;stroke:#000000;stroke-width:2.0px;stroke-linecap:butt;stroke-linejoin:miter;stroke-opacity:1"/>
<path class="bond-11 atom-11 atom-12" d="M 734.2,212.3 L 754.0,203.1" style="fill:none;fill-rule:evenodd;stroke:#FF0000;stroke-width:2.0px;stroke-linecap:butt;stroke-linejoin:miter;stroke-opacity:1"/>
<path class="bond-11 atom-11 atom-12" d="M 711.2,214.7 L 731.0,205.4" style="fill:none;fill-rule:evenodd;stroke:#000000;stroke-width:2.0px;stroke-linecap:butt;stroke-linejoin:miter;stroke-opacity:1"/>
<path class="bond-11 atom-11 atom-12" d="M 731.0,205.4 L 750.8,196.2" style="fill:none;fill-rule:evenodd;stroke:#FF0000;stroke-width:2.0px;stroke-linecap:butt;stroke-linejoin:miter;stroke-opacity:1"/>
<path class="bond-12 atom-11 atom-13" d="M 714.8,217.2 L 710.4,267.7" style="fill:none;fill-rule:evenodd;stroke:#000000;stroke-width:2.0px;stroke-linecap:butt;stroke-linejoin:miter;stroke-opacity:1"/>
<path class="bond-13 atom-13 atom-14" d="M 710.4,267.7 L 664.5,289.2" style="fill:none;fill-rule:evenodd;stroke:#000000;stroke-width:2.0px;stroke-linecap:butt;stroke-linejoin:miter;stroke-opacity:1"/>
<path class="bond-14 atom-14 atom-15" d="M 661.3,290.9 L 661.1,290.5" style="fill:none;fill-rule:evenodd;stroke:#000000;stroke-width:1.0px;stroke-linecap:butt;stroke-linejoin:miter;stroke-opacity:1"/>
<path class="bond-14 atom-14 atom-15" d="M 658.1,292.7 L 657.7,291.7" style="fill:none;fill-rule:evenodd;stroke:#000000;stroke-width:1.0px;stroke-linecap:butt;stroke-linejoin:miter;stroke-opacity:1"/>
<path class="bond-14 atom-14 atom-15" d="M 655.0,294.5 L 654.3,293.0" style="fill:none;fill-rule:evenodd;stroke:#000000;stroke-width:1.0px;stroke-linecap:butt;stroke-linejoin:miter;stroke-opacity:1"/>
<path class="bond-14 atom-14 atom-15" d="M 651.8,296.3 L 650.9,294.3" style="fill:none;fill-rule:evenodd;stroke:#000000;stroke-width:1.0px;stroke-linecap:butt;stroke-linejoin:miter;stroke-opacity:1"/>
<path class="bond-14 atom-14 atom-15" d="M 648.6,298.1 L 647.5,295.6" style="fill:none;fill-rule:evenodd;stroke:#000000;stroke-width:1.0px;stroke-linecap:butt;stroke-linejoin:miter;stroke-opacity:1"/>
<path class="bond-14 atom-14 atom-15" d="M 645.5,299.8 L 644.1,296.9" style="fill:none;fill-rule:evenodd;stroke:#000000;stroke-width:1.0px;stroke-linecap:butt;stroke-linejoin:miter;stroke-opacity:1"/>
<path class="bond-14 atom-14 atom-15" d="M 642.3,301.6 L 640.7,298.2" style="fill:none;fill-rule:evenodd;stroke:#000000;stroke-width:1.0px;stroke-linecap:butt;stroke-linejoin:miter;stroke-opacity:1"/>
<path class="bond-14 atom-14 atom-15" d="M 639.2,303.4 L 637.3,299.5" style="fill:none;fill-rule:evenodd;stroke:#000000;stroke-width:1.0px;stroke-linecap:butt;stroke-linejoin:miter;stroke-opacity:1"/>
<path class="bond-14 atom-14 atom-15" d="M 636.0,305.2 L 633.9,300.7" style="fill:none;fill-rule:evenodd;stroke:#000000;stroke-width:1.0px;stroke-linecap:butt;stroke-linejoin:miter;stroke-opacity:1"/>
<path class="bond-14 atom-14 atom-15" d="M 632.8,307.0 L 630.5,302.0" style="fill:none;fill-rule:evenodd;stroke:#000000;stroke-width:1.0px;stroke-linecap:butt;stroke-linejoin:miter;stroke-opacity:1"/>
<path class="bond-14 atom-14 atom-15" d="M 629.7,308.7 L 627.1,303.3" style="fill:none;fill-rule:evenodd;stroke:#000000;stroke-width:1.0px;stroke-linecap:butt;stroke-linejoin:miter;stroke-opacity:1"/>
<path class="bond-14 atom-14 atom-15" d="M 626.5,310.5 L 623.7,304.6" style="fill:none;fill-rule:evenodd;stroke:#000000;stroke-width:1.0px;stroke-linecap:butt;stroke-linejoin:miter;stroke-opacity:1"/>
<path class="bond-14 atom-14 atom-15" d="M 623.3,312.3 L 620.3,305.9" style="fill:none;fill-rule:evenodd;stroke:#000000;stroke-width:1.0px;stroke-linecap:butt;stroke-linejoin:miter;stroke-opacity:1"/>
<path class="bond-14 atom-14 atom-15" d="M 620.2,314.1 L 616.9,307.2" style="fill:none;fill-rule:evenodd;stroke:#000000;stroke-width:1.0px;stroke-linecap:butt;stroke-linejoin:miter;stroke-opacity:1"/>
<path class="bond-15 atom-14 atom-16" d="M 664.5,289.2 L 660.1,339.7" style="fill:none;fill-rule:evenodd;stroke:#000000;stroke-width:2.0px;stroke-linecap:butt;stroke-linejoin:miter;stroke-opacity:1"/>
<path class="bond-16 atom-16 atom-17" d="M 660.1,339.7 L 701.6,368.7" style="fill:none;fill-rule:evenodd;stroke:#000000;stroke-width:2.0px;stroke-linecap:butt;stroke-linejoin:miter;stroke-opacity:1"/>
<path class="bond-17 atom-17 atom-18" d="M 701.6,368.7 L 747.6,347.2" style="fill:none;fill-rule:evenodd;stroke:#000000;stroke-width:2.0px;stroke-linecap:butt;stroke-linejoin:miter;stroke-opacity:1"/>
<path class="bond-18 atom-18 atom-19" d="M 747.6,347.2 L 789.1,376.3" style="fill:none;fill-rule:evenodd;stroke:#000000;stroke-width:2.0px;stroke-linecap:butt;stroke-linejoin:miter;stroke-opacity:1"/>
<path class="bond-19 atom-19 atom-20" d="M 785.5,373.8 L 783.6,395.6" style="fill:none;fill-rule:evenodd;stroke:#000000;stroke-width:2.0px;stroke-linecap:butt;stroke-linejoin:miter;stroke-opacity:1"/>
<path class="bond-19 atom-19 atom-20" d="M 783.6,395.6 L 781.7,417.5" style="fill:none;fill-rule:evenodd;stroke:#FF0000;stroke-width:2.0px;stroke-linecap:butt;stroke-linejoin:miter;stroke-opacity:1"/>
<path class="bond-19 atom-19 atom-20" d="M 793.1,374.4 L 791.2,396.3" style="fill:none;fill-rule:evenodd;stroke:#000000;stroke-width:2.0px;stroke-linecap:butt;stroke-linejoin:miter;stroke-opacity:1"/>
<path class="bond-19 atom-19 atom-20" d="M 791.2,396.3 L 789.3,418.2" style="fill:none;fill-rule:evenodd;stroke:#FF0000;stroke-width:2.0px;stroke-linecap:butt;stroke-linejoin:miter;stroke-opacity:1"/>
<path class="bond-20 atom-19 atom-21" d="M 789.1,376.3 L 807.9,367.5" style="fill:none;fill-rule:evenodd;stroke:#000000;stroke-width:2.0px;stroke-linecap:butt;stroke-linejoin:miter;stroke-opacity:1"/>
<path class="bond-20 atom-19 atom-21" d="M 807.9,367.5 L 826.7,358.7" style="fill:none;fill-rule:evenodd;stroke:#FF0000;stroke-width:2.0px;stroke-linecap:butt;stroke-linejoin:miter;stroke-opacity:1"/>
<path class="bond-21 atom-21 atom-22" d="M 835.8,345.9 L 837.6,325.1" style="fill:none;fill-rule:evenodd;stroke:#FF0000;stroke-width:2.0px;stroke-linecap:butt;stroke-linejoin:miter;stroke-opacity:1"/>
<path class="bond-21 atom-21 atom-22" d="M 837.6,325.1 L 839.4,304.3" style="fill:none;fill-rule:evenodd;stroke:#000000;stroke-width:2.0px;stroke-linecap:butt;stroke-linejoin:miter;stroke-opacity:1"/>
<path class="bond-22 atom-22 atom-23" d="M 839.4,304.3 L 886.3,278.0 L 885.3,282.9 Z" style="fill:#000000;fill-rule:evenodd;fill-opacity:1;stroke:#000000;stroke-width:0.5px;stroke-linecap:butt;stroke-linejoin:miter;stroke-opacity:1;"/>
<path class="bond-22 atom-22 atom-23" d="M 839.4,304.3 L 885.3,282.9 L 889.7,285.3 Z" style="fill:#000000;fill-rule:evenodd;fill-opacity:1;stroke:#000000;stroke-width:0.5px;stroke-linecap:butt;stroke-linejoin:miter;stroke-opacity:1;"/>
<path class="bond-23 atom-23 atom-24" d="M 885.3,282.9 L 894.9,233.1" style="fill:none;fill-rule:evenodd;stroke:#000000;stroke-width:2.0px;stroke-linecap:butt;stroke-linejoin:miter;stroke-opacity:1"/>
<path class="bond-24 atom-24 atom-25" d="M 894.9,233.1 L 945.2,226.9" style="fill:none;fill-rule:evenodd;stroke:#000000;stroke-width:2.0px;stroke-linecap:butt;stroke-linejoin:miter;stroke-opacity:1"/>
<path class="bond-24 atom-24 atom-25" d="M 901.4,240.0 L 940.7,235.1" style="fill:none;fill-rule:evenodd;stroke:#000000;stroke-width:2.0px;stroke-linecap:butt;stroke-linejoin:miter;stroke-opacity:1"/>
<path class="bond-25 atom-25 atom-26" d="M 945.2,226.9 L 953.9,245.4" style="fill:none;fill-rule:evenodd;stroke:#000000;stroke-width:2.0px;stroke-linecap:butt;stroke-linejoin:miter;stroke-opacity:1"/>
<path class="bond-25 atom-25 atom-26" d="M 953.9,245.4 L 962.5,263.9" style="fill:none;fill-rule:evenodd;stroke:#FF0000;stroke-width:2.0px;stroke-linecap:butt;stroke-linejoin:miter;stroke-opacity:1"/>
<path class="bond-26 atom-26 atom-27" d="M 958.4,280.5 L 944.0,294.0" style="fill:none;fill-rule:evenodd;stroke:#FF0000;stroke-width:2.0px;stroke-linecap:butt;stroke-linejoin:miter;stroke-opacity:1"/>
<path class="bond-26 atom-26 atom-27" d="M 944.0,294.0 L 929.7,307.4" style="fill:none;fill-rule:evenodd;stroke:#000000;stroke-width:2.0px;stroke-linecap:butt;stroke-linejoin:miter;stroke-opacity:1"/>
<path class="bond-27 atom-22 atom-28" d="M 839.4,304.3 L 797.8,275.3" style="fill:none;fill-rule:evenodd;stroke:#000000;stroke-width:2.0px;stroke-linecap:butt;stroke-linejoin:miter;stroke-opacity:1"/>
<path class="bond-28 atom-28 atom-29" d="M 797.8,275.3 L 751.9,296.8" style="fill:none;fill-rule:evenodd;stroke:#000000;stroke-width:2.0px;stroke-linecap:butt;stroke-linejoin:miter;stroke-opacity:1"/>
<path class="bond-29 atom-29 atom-30" d="M 748.8,298.5 L 748.5,298.0" style="fill:none;fill-rule:evenodd;stroke:#000000;stroke-width:1.0px;stroke-linecap:butt;stroke-linejoin:miter;stroke-opacity:1"/>
<path class="bond-29 atom-29 atom-30" d="M 745.6,300.3 L 745.1,299.3" style="fill:none;fill-rule:evenodd;stroke:#000000;stroke-width:1.0px;stroke-linecap:butt;stroke-linejoin:miter;stroke-opacity:1"/>
<path class="bond-29 atom-29 atom-30" d="M 742.4,302.1 L 741.7,300.6" style="fill:none;fill-rule:evenodd;stroke:#000000;stroke-width:1.0px;stroke-linecap:butt;stroke-linejoin:miter;stroke-opacity:1"/>
<path class="bond-29 atom-29 atom-30" d="M 739.3,303.9 L 738.4,301.9" style="fill:none;fill-rule:evenodd;stroke:#000000;stroke-width:1.0px;stroke-linecap:butt;stroke-linejoin:miter;stroke-opacity:1"/>
<path class="bond-29 atom-29 atom-30" d="M 736.1,305.6 L 735.0,303.2" style="fill:none;fill-rule:evenodd;stroke:#000000;stroke-width:1.0px;stroke-linecap:butt;stroke-linejoin:miter;stroke-opacity:1"/>
<path class="bond-29 atom-29 atom-30" d="M 732.9,307.4 L 731.6,304.5" style="fill:none;fill-rule:evenodd;stroke:#000000;stroke-width:1.0px;stroke-linecap:butt;stroke-linejoin:miter;stroke-opacity:1"/>
<path class="bond-29 atom-29 atom-30" d="M 729.8,309.2 L 728.2,305.8" style="fill:none;fill-rule:evenodd;stroke:#000000;stroke-width:1.0px;stroke-linecap:butt;stroke-linejoin:miter;stroke-opacity:1"/>
<path class="bond-29 atom-29 atom-30" d="M 726.6,311.0 L 724.8,307.0" style="fill:none;fill-rule:evenodd;stroke:#000000;stroke-width:1.0px;stroke-linecap:butt;stroke-linejoin:miter;stroke-opacity:1"/>
<path class="bond-29 atom-29 atom-30" d="M 723.4,312.8 L 721.4,308.3" style="fill:none;fill-rule:evenodd;stroke:#000000;stroke-width:1.0px;stroke-linecap:butt;stroke-linejoin:miter;stroke-opacity:1"/>
<path class="bond-29 atom-29 atom-30" d="M 720.3,314.5 L 718.0,309.6" style="fill:none;fill-rule:evenodd;stroke:#000000;stroke-width:1.0px;stroke-linecap:butt;stroke-linejoin:miter;stroke-opacity:1"/>
<path class="bond-29 atom-29 atom-30" d="M 717.1,316.3 L 714.6,310.9" style="fill:none;fill-rule:evenodd;stroke:#000000;stroke-width:1.0px;stroke-linecap:butt;stroke-linejoin:miter;stroke-opacity:1"/>
<path class="bond-29 atom-29 atom-30" d="M 713.9,318.1 L 711.2,312.2" style="fill:none;fill-rule:evenodd;stroke:#000000;stroke-width:1.0px;stroke-linecap:butt;stroke-linejoin:miter;stroke-opacity:1"/>
<path class="bond-29 atom-29 atom-30" d="M 710.8,319.9 L 707.8,313.5" style="fill:none;fill-rule:evenodd;stroke:#000000;stroke-width:1.0px;stroke-linecap:butt;stroke-linejoin:miter;stroke-opacity:1"/>
<path class="bond-29 atom-29 atom-30" d="M 707.6,321.7 L 704.4,314.8" style="fill:none;fill-rule:evenodd;stroke:#000000;stroke-width:1.0px;stroke-linecap:butt;stroke-linejoin:miter;stroke-opacity:1"/>
<path class="bond-30 atom-14 atom-4" d="M 664.5,289.2 L 622.9,260.1" style="fill:none;fill-rule:evenodd;stroke:#000000;stroke-width:2.0px;stroke-linecap:butt;stroke-linejoin:miter;stroke-opacity:1"/>
<path class="bond-31 atom-29 atom-18" d="M 751.9,296.8 L 747.6,347.2" style="fill:none;fill-rule:evenodd;stroke:#000000;stroke-width:2.0px;stroke-linecap:butt;stroke-linejoin:miter;stroke-opacity:1"/>
<path class="bond-32 atom-29 atom-13" d="M 751.9,296.8 L 710.4,267.7" style="fill:none;fill-rule:evenodd;stroke:#000000;stroke-width:2.0px;stroke-linecap:butt;stroke-linejoin:miter;stroke-opacity:1"/>
<path class="bond-33 atom-27 atom-23" d="M 929.7,307.4 L 885.3,282.9" style="fill:none;fill-rule:evenodd;stroke:#000000;stroke-width:2.0px;stroke-linecap:butt;stroke-linejoin:miter;stroke-opacity:1"/>
<path class="bond-33 atom-27 atom-23" d="M 928.5,298.1 L 893.8,278.9" style="fill:none;fill-rule:evenodd;stroke:#000000;stroke-width:2.0px;stroke-linecap:butt;stroke-linejoin:miter;stroke-opacity:1"/>
<path class="bond-34 atom-13 atom-31" d="M 710.4,267.7 L 745.7,247.0 L 749.0,253.9 Z" style="fill:#000000;fill-rule:evenodd;fill-opacity:1;stroke:#000000;stroke-width:0.5px;stroke-linecap:butt;stroke-linejoin:miter;stroke-opacity:1;"/>
<path class="bond-35 atom-18 atom-32" d="M 747.6,347.2 L 747.9,387.5 L 740.3,386.9 Z" style="fill:#000000;fill-rule:evenodd;fill-opacity:1;stroke:#000000;stroke-width:0.5px;stroke-linecap:butt;stroke-linejoin:miter;stroke-opacity:1;"/>
<path d="M 623.1,257.6 L 622.9,260.1 L 625.0,261.6" style="fill:none;stroke:#000000;stroke-width:2.0px;stroke-linecap:butt;stroke-linejoin:miter;stroke-opacity:1;"/>
<path d="M 627.1,212.2 L 627.3,209.6 L 629.6,208.6" style="fill:none;stroke:#000000;stroke-width:2.0px;stroke-linecap:butt;stroke-linejoin:miter;stroke-opacity:1;"/>
<path d="M 670.9,189.3 L 673.2,188.2 L 675.3,189.6" style="fill:none;stroke:#000000;stroke-width:2.0px;stroke-linecap:butt;stroke-linejoin:miter;stroke-opacity:1;"/>
<path d="M 722.6,116.7 L 723.5,116.2 L 723.7,113.7" style="fill:none;stroke:#000000;stroke-width:2.0px;stroke-linecap:butt;stroke-linejoin:miter;stroke-opacity:1;"/>
<path d="M 712.7,215.8 L 714.8,217.2 L 714.5,219.7" style="fill:none;stroke:#000000;stroke-width:2.0px;stroke-linecap:butt;stroke-linejoin:miter;stroke-opacity:1;"/>
<path d="M 660.3,337.1 L 660.1,339.7 L 662.2,341.1" style="fill:none;stroke:#000000;stroke-width:2.0px;stroke-linecap:butt;stroke-linejoin:miter;stroke-opacity:1;"/>
<path d="M 699.6,367.3 L 701.6,368.7 L 703.9,367.6" style="fill:none;stroke:#000000;stroke-width:2.0px;stroke-linecap:butt;stroke-linejoin:miter;stroke-opacity:1;"/>
<path d="M 787.0,374.8 L 789.1,376.3 L 790.0,375.8" style="fill:none;stroke:#000000;stroke-width:2.0px;stroke-linecap:butt;stroke-linejoin:miter;stroke-opacity:1;"/>
<path d="M 839.3,305.4 L 839.4,304.3 L 837.3,302.9" style="fill:none;stroke:#000000;stroke-width:2.0px;stroke-linecap:butt;stroke-linejoin:miter;stroke-opacity:1;"/>
<path d="M 885.8,280.4 L 885.3,282.9 L 887.5,284.1" style="fill:none;stroke:#000000;stroke-width:2.0px;stroke-linecap:butt;stroke-linejoin:miter;stroke-opacity:1;"/>
<path d="M 894.5,235.6 L 894.9,233.1 L 897.5,232.8" style="fill:none;stroke:#000000;stroke-width:2.0px;stroke-linecap:butt;stroke-linejoin:miter;stroke-opacity:1;"/>
<path d="M 942.7,227.2 L 945.2,226.9 L 945.7,227.8" style="fill:none;stroke:#000000;stroke-width:2.0px;stroke-linecap:butt;stroke-linejoin:miter;stroke-opacity:1;"/>
<path d="M 930.4,306.8 L 929.7,307.4 L 927.4,306.2" style="fill:none;stroke:#000000;stroke-width:2.0px;stroke-linecap:butt;stroke-linejoin:miter;stroke-opacity:1;"/>
<path d="M 799.9,276.8 L 797.8,275.3 L 795.6,276.4" style="fill:none;stroke:#000000;stroke-width:2.0px;stroke-linecap:butt;stroke-linejoin:miter;stroke-opacity:1;"/>
<path class="atom-1" d="M 566.0 332.1 Q 566.0 328.7, 567.7 326.7 Q 569.4 324.8, 572.6 324.8 Q 575.8 324.8, 577.5 326.7 Q 579.2 328.7, 579.2 332.1 Q 579.2 335.6, 577.5 337.6 Q 575.8 339.6, 572.6 339.6 Q 569.5 339.6, 567.7 337.6 Q 566.0 335.6, 566.0 332.1 M 572.6 337.9 Q 574.8 337.9, 576.0 336.5 Q 577.2 335.0, 577.2 332.1 Q 577.2 329.3, 576.0 327.9 Q 574.8 326.4, 572.6 326.4 Q 570.4 326.4, 569.2 327.9 Q 568.1 329.3, 568.1 332.1 Q 568.1 335.0, 569.2 336.5 Q 570.4 337.9, 572.6 337.9 " fill="#FF0000"/>
<path class="atom-3" d="M 528.9 252.6 Q 528.9 249.1, 530.6 247.2 Q 532.3 245.3, 535.5 245.3 Q 538.7 245.3, 540.4 247.2 Q 542.1 249.1, 542.1 252.6 Q 542.1 256.1, 540.3 258.1 Q 538.6 260.0, 535.5 260.0 Q 532.3 260.0, 530.6 258.1 Q 528.9 256.1, 528.9 252.6 M 535.5 258.4 Q 537.7 258.4, 538.8 256.9 Q 540.0 255.5, 540.0 252.6 Q 540.0 249.8, 538.8 248.3 Q 537.7 246.9, 535.5 246.9 Q 533.3 246.9, 532.1 248.3 Q 530.9 249.7, 530.9 252.6 Q 530.9 255.5, 532.1 256.9 Q 533.3 258.4, 535.5 258.4 " fill="#FF0000"/>
<path class="atom-7" d="M 658.1 130.5 L 660.0 130.5 L 660.0 136.6 L 667.4 136.6 L 667.4 130.5 L 669.3 130.5 L 669.3 144.9 L 667.4 144.9 L 667.4 138.2 L 660.0 138.2 L 660.0 144.9 L 658.1 144.9 L 658.1 130.5 " fill="#0000FF"/>
<path class="atom-7" d="M 674.4 130.5 L 679.1 138.1 Q 679.6 138.9, 680.4 140.2 Q 681.1 141.6, 681.1 141.7 L 681.1 130.5 L 683.1 130.5 L 683.1 144.9 L 681.1 144.9 L 676.0 136.5 Q 675.4 135.6, 674.8 134.5 Q 674.2 133.3, 674.0 133.0 L 674.0 144.9 L 672.2 144.9 L 672.2 130.5 L 674.4 130.5 " fill="#0000FF"/>
<path class="atom-10" d="M 758.5 145.3 Q 758.5 141.9, 760.2 139.9 Q 761.9 138.0, 765.1 138.0 Q 768.3 138.0, 770.0 139.9 Q 771.7 141.9, 771.7 145.3 Q 771.7 148.8, 769.9 150.8 Q 768.2 152.8, 765.1 152.8 Q 761.9 152.8, 760.2 150.8 Q 758.5 148.8, 758.5 145.3 M 765.1 151.1 Q 767.3 151.1, 768.4 149.7 Q 769.6 148.2, 769.6 145.3 Q 769.6 142.5, 768.4 141.1 Q 767.3 139.6, 765.1 139.6 Q 762.9 139.6, 761.7 141.1 Q 760.5 142.5, 760.5 145.3 Q 760.5 148.2, 761.7 149.7 Q 762.9 151.1, 765.1 151.1 " fill="#FF0000"/>
<path class="atom-12" d="M 754.1 195.8 Q 754.1 192.4, 755.8 190.4 Q 757.5 188.5, 760.7 188.5 Q 763.9 188.5, 765.6 190.4 Q 767.3 192.4, 767.3 195.8 Q 767.3 199.3, 765.6 201.3 Q 763.8 203.2, 760.7 203.2 Q 757.5 203.2, 755.8 201.3 Q 754.1 199.3, 754.1 195.8 M 760.7 201.6 Q 762.9 201.6, 764.1 200.2 Q 765.2 198.7, 765.2 195.8 Q 765.2 193.0, 764.1 191.6 Q 762.9 190.1, 760.7 190.1 Q 758.5 190.1, 757.3 191.5 Q 756.1 193.0, 756.1 195.8 Q 756.1 198.7, 757.3 200.2 Q 758.5 201.6, 760.7 201.6 " fill="#FF0000"/>
<path class="atom-20" d="M 778.1 426.8 Q 778.1 423.4, 779.8 421.5 Q 781.5 419.5, 784.7 419.5 Q 787.9 419.5, 789.6 421.5 Q 791.3 423.4, 791.3 426.8 Q 791.3 430.3, 789.6 432.3 Q 787.9 434.3, 784.7 434.3 Q 781.5 434.3, 779.8 432.3 Q 778.1 430.3, 778.1 426.8 M 784.7 432.6 Q 786.9 432.6, 788.1 431.2 Q 789.3 429.7, 789.3 426.8 Q 789.3 424.0, 788.1 422.6 Q 786.9 421.1, 784.7 421.1 Q 782.5 421.1, 781.3 422.6 Q 780.2 424.0, 780.2 426.8 Q 780.2 429.7, 781.3 431.2 Q 782.5 432.6, 784.7 432.6 " fill="#FF0000"/>
<path class="atom-21" d="M 828.4 354.9 Q 828.4 351.4, 830.1 349.5 Q 831.8 347.6, 835.0 347.6 Q 838.2 347.6, 839.9 349.5 Q 841.6 351.4, 841.6 354.9 Q 841.6 358.4, 839.9 360.3 Q 838.2 362.3, 835.0 362.3 Q 831.8 362.3, 830.1 360.3 Q 828.4 358.4, 828.4 354.9 M 835.0 360.7 Q 837.2 360.7, 838.4 359.2 Q 839.6 357.8, 839.6 354.9 Q 839.6 352.1, 838.4 350.6 Q 837.2 349.2, 835.0 349.2 Q 832.8 349.2, 831.6 350.6 Q 830.4 352.0, 830.4 354.9 Q 830.4 357.8, 831.6 359.2 Q 832.8 360.7, 835.0 360.7 " fill="#FF0000"/>
<path class="atom-26" d="M 960.1 272.9 Q 960.1 269.4, 961.8 267.5 Q 963.5 265.6, 966.7 265.6 Q 969.9 265.6, 971.6 267.5 Q 973.3 269.4, 973.3 272.9 Q 973.3 276.4, 971.6 278.3 Q 969.8 280.3, 966.7 280.3 Q 963.5 280.3, 961.8 278.3 Q 960.1 276.4, 960.1 272.9 M 966.7 278.7 Q 968.9 278.7, 970.1 277.2 Q 971.3 275.7, 971.3 272.9 Q 971.3 270.1, 970.1 268.6 Q 968.9 267.2, 966.7 267.2 Q 964.5 267.2, 963.3 268.6 Q 962.1 270.0, 962.1 272.9 Q 962.1 275.8, 963.3 277.2 Q 964.5 278.7, 966.7 278.7 " fill="#FF0000"/>
<path class="atom-31" d="M 750.7 239.1 L 752.6 239.1 L 752.6 245.2 L 760.0 245.2 L 760.0 239.1 L 761.9 239.1 L 761.9 253.4 L 760.0 253.4 L 760.0 246.8 L 752.6 246.8 L 752.6 253.4 L 750.7 253.4 L 750.7 239.1 " fill="#000000"/>
<path class="atom-32" d="M 737.6 390.6 L 739.5 390.6 L 739.5 396.7 L 746.8 396.7 L 746.8 390.6 L 748.8 390.6 L 748.8 404.9 L 746.8 404.9 L 746.8 398.3 L 739.5 398.3 L 739.5 404.9 L 737.6 404.9 L 737.6 390.6 " fill="#000000"/>
<path class="note" d="M 603.8 251.6 Q 603.8 250.1, 604.2 248.9 Q 604.7 247.7, 605.5 246.4 L 606.1 246.8 Q 605.4 248.0, 605.1 249.1 Q 604.7 250.2, 604.7 251.6 Q 604.7 252.9, 605.1 254.0 Q 605.4 255.1, 606.1 256.3 L 605.5 256.7 Q 604.7 255.4, 604.2 254.2 Q 603.8 253.0, 603.8 251.6 " fill="#000000"/>
<path class="note" d="M 610.5 254.5 L 608.8 251.5 L 608.7 251.5 L 607.6 251.5 L 607.6 254.5 L 606.6 254.5 L 606.6 247.3 L 608.7 247.3 Q 610.0 247.3, 610.6 247.8 Q 611.2 248.4, 611.2 249.4 Q 611.2 250.2, 610.8 250.7 Q 610.5 251.2, 609.7 251.4 L 611.6 254.5 L 610.5 254.5 M 607.6 250.7 L 608.7 250.7 Q 609.4 250.7, 609.8 250.4 Q 610.2 250.0, 610.2 249.4 Q 610.2 248.8, 609.8 248.4 Q 609.4 248.1, 608.7 248.1 L 607.6 248.1 L 607.6 250.7 " fill="#000000"/>
<path class="note" d="M 614.3 251.6 Q 614.3 253.0, 613.9 254.2 Q 613.5 255.4, 612.7 256.7 L 612.1 256.3 Q 612.8 255.1, 613.1 254.0 Q 613.4 252.9, 613.4 251.6 Q 613.4 250.2, 613.1 249.1 Q 612.8 248.0, 612.1 246.8 L 612.7 246.4 Q 613.5 247.7, 613.9 248.9 Q 614.3 250.1, 614.3 251.6 " fill="#000000"/>
<path class="note" d="M 654.2 179.6 Q 654.2 178.2, 654.6 177.0 Q 655.0 175.8, 655.8 174.5 L 656.4 174.9 Q 655.8 176.1, 655.4 177.2 Q 655.1 178.2, 655.1 179.6 Q 655.1 181.0, 655.4 182.1 Q 655.8 183.2, 656.4 184.4 L 655.8 184.8 Q 655.0 183.5, 654.6 182.3 Q 654.2 181.1, 654.2 179.6 " fill="#000000"/>
<path class="note" d="M 657.2 181.4 Q 657.3 181.4, 657.7 181.6 Q 658.0 181.7, 658.4 181.8 Q 658.7 181.9, 659.1 181.9 Q 659.8 181.9, 660.2 181.6 Q 660.6 181.2, 660.6 180.6 Q 660.6 180.3, 660.4 180.0 Q 660.2 179.8, 659.9 179.6 Q 659.6 179.5, 659.1 179.4 Q 658.4 179.2, 658.0 179.0 Q 657.7 178.8, 657.4 178.4 Q 657.1 178.0, 657.1 177.4 Q 657.1 176.5, 657.7 175.9 Q 658.3 175.4, 659.6 175.4 Q 660.4 175.4, 661.3 175.8 L 661.1 176.5 Q 660.2 176.2, 659.6 176.2 Q 658.9 176.2, 658.5 176.5 Q 658.1 176.8, 658.1 177.3 Q 658.1 177.6, 658.3 177.9 Q 658.5 178.1, 658.8 178.2 Q 659.1 178.4, 659.6 178.5 Q 660.2 178.7, 660.6 178.9 Q 661.0 179.1, 661.3 179.5 Q 661.6 179.9, 661.6 180.6 Q 661.6 181.6, 660.9 182.2 Q 660.2 182.7, 659.1 182.7 Q 658.5 182.7, 658.0 182.6 Q 657.5 182.4, 657.0 182.2 L 657.2 181.4 " fill="#000000"/>
<path class="note" d="M 664.6 179.6 Q 664.6 181.1, 664.2 182.3 Q 663.7 183.5, 662.9 184.8 L 662.3 184.4 Q 663.0 183.2, 663.3 182.1 Q 663.7 181.0, 663.7 179.6 Q 663.7 178.2, 663.3 177.2 Q 663.0 176.1, 662.3 174.9 L 662.9 174.5 Q 663.7 175.8, 664.2 177.0 Q 664.6 178.2, 664.6 179.6 " fill="#000000"/>
<path class="note" d="M 691.3 259.2 Q 691.3 257.7, 691.8 256.5 Q 692.2 255.3, 693.0 254.0 L 693.6 254.4 Q 692.9 255.6, 692.6 256.7 Q 692.3 257.8, 692.3 259.2 Q 692.3 260.5, 692.6 261.6 Q 692.9 262.7, 693.6 263.9 L 693.0 264.3 Q 692.2 263.0, 691.8 261.8 Q 691.3 260.6, 691.3 259.2 " fill="#000000"/>
<path class="note" d="M 694.4 260.9 Q 694.5 261.0, 694.8 261.1 Q 695.2 261.2, 695.5 261.3 Q 695.9 261.4, 696.3 261.4 Q 696.9 261.4, 697.3 261.1 Q 697.7 260.8, 697.7 260.2 Q 697.7 259.8, 697.5 259.5 Q 697.3 259.3, 697.0 259.2 Q 696.7 259.0, 696.2 258.9 Q 695.6 258.7, 695.2 258.5 Q 694.8 258.3, 694.5 257.9 Q 694.3 257.6, 694.3 256.9 Q 694.3 256.0, 694.9 255.4 Q 695.5 254.9, 696.7 254.9 Q 697.6 254.9, 698.5 255.3 L 698.3 256.1 Q 697.4 255.7, 696.8 255.7 Q 696.1 255.7, 695.7 256.0 Q 695.3 256.3, 695.3 256.8 Q 695.3 257.2, 695.5 257.4 Q 695.7 257.6, 696.0 257.8 Q 696.3 257.9, 696.8 258.1 Q 697.4 258.3, 697.8 258.5 Q 698.2 258.7, 698.4 259.1 Q 698.7 259.5, 698.7 260.2 Q 698.7 261.2, 698.1 261.7 Q 697.4 262.2, 696.3 262.2 Q 695.7 262.2, 695.2 262.1 Q 694.7 262.0, 694.1 261.7 L 694.4 260.9 " fill="#000000"/>
<path class="note" d="M 701.7 259.2 Q 701.7 260.6, 701.3 261.8 Q 700.9 263.0, 700.1 264.3 L 699.5 263.9 Q 700.2 262.7, 700.5 261.6 Q 700.8 260.5, 700.8 259.2 Q 700.8 257.8, 700.5 256.7 Q 700.2 255.6, 699.5 254.4 L 700.1 254.0 Q 700.9 255.3, 701.3 256.5 Q 701.7 257.7, 701.7 259.2 " fill="#000000"/>
<path class="note" d="M 673.1 300.0 Q 673.1 298.5, 673.5 297.3 Q 673.9 296.1, 674.7 294.8 L 675.3 295.2 Q 674.6 296.4, 674.3 297.5 Q 674.0 298.6, 674.0 300.0 Q 674.0 301.3, 674.3 302.4 Q 674.6 303.5, 675.3 304.7 L 674.7 305.1 Q 673.9 303.8, 673.5 302.6 Q 673.1 301.4, 673.1 300.0 " fill="#000000"/>
<path class="note" d="M 679.7 302.9 L 678.0 299.9 L 678.0 299.9 L 676.8 299.9 L 676.8 302.9 L 675.9 302.9 L 675.9 295.7 L 678.0 295.7 Q 679.2 295.7, 679.8 296.2 Q 680.4 296.8, 680.4 297.8 Q 680.4 298.6, 680.1 299.1 Q 679.7 299.6, 679.0 299.8 L 680.8 302.9 L 679.7 302.9 M 676.8 299.1 L 678.0 299.1 Q 678.7 299.1, 679.0 298.8 Q 679.4 298.4, 679.4 297.8 Q 679.4 297.2, 679.0 296.8 Q 678.7 296.5, 678.0 296.5 L 676.8 296.5 L 676.8 299.1 " fill="#000000"/>
<path class="note" d="M 683.6 300.0 Q 683.6 301.4, 683.2 302.6 Q 682.7 303.8, 681.9 305.1 L 681.3 304.7 Q 682.0 303.5, 682.3 302.4 Q 682.7 301.3, 682.7 300.0 Q 682.7 298.6, 682.3 297.5 Q 682.0 296.4, 681.3 295.2 L 681.9 294.8 Q 682.7 296.1, 683.2 297.3 Q 683.6 298.5, 683.6 300.0 " fill="#000000"/>
<path class="note" d="M 728.4 338.7 Q 728.4 337.2, 728.9 336.0 Q 729.3 334.9, 730.1 333.6 L 730.7 333.9 Q 730.0 335.1, 729.7 336.2 Q 729.4 337.3, 729.4 338.7 Q 729.4 340.1, 729.7 341.1 Q 730.0 342.2, 730.7 343.5 L 730.1 343.8 Q 729.3 342.5, 728.9 341.4 Q 728.4 340.2, 728.4 338.7 " fill="#000000"/>
<path class="note" d="M 735.1 341.6 L 733.4 338.6 L 733.4 338.6 L 732.2 338.6 L 732.2 341.6 L 731.2 341.6 L 731.2 334.4 L 733.4 334.4 Q 734.6 334.4, 735.2 335.0 Q 735.8 335.5, 735.8 336.5 Q 735.8 337.3, 735.4 337.8 Q 735.1 338.3, 734.4 338.5 L 736.2 341.6 L 735.1 341.6 M 732.2 337.8 L 733.4 337.8 Q 734.1 337.8, 734.4 337.5 Q 734.8 337.2, 734.8 336.5 Q 734.8 335.9, 734.4 335.6 Q 734.1 335.2, 733.4 335.2 L 732.2 335.2 L 732.2 337.8 " fill="#000000"/>
<path class="note" d="M 739.0 338.7 Q 739.0 340.2, 738.5 341.4 Q 738.1 342.5, 737.3 343.8 L 736.7 343.5 Q 737.4 342.2, 737.7 341.1 Q 738.1 340.1, 738.1 338.7 Q 738.1 337.3, 737.7 336.2 Q 737.4 335.1, 736.7 333.9 L 737.3 333.6 Q 738.1 334.9, 738.5 336.0 Q 739.0 337.2, 739.0 338.7 " fill="#000000"/>
<path class="note" d="M 848.0 315.1 Q 848.0 313.7, 848.5 312.5 Q 848.9 311.3, 849.7 310.0 L 850.3 310.4 Q 849.6 311.6, 849.3 312.7 Q 849.0 313.8, 849.0 315.1 Q 849.0 316.5, 849.3 317.6 Q 849.6 318.7, 850.3 319.9 L 849.7 320.3 Q 848.9 319.0, 848.5 317.8 Q 848.0 316.6, 848.0 315.1 " fill="#000000"/>
<path class="note" d="M 851.1 316.9 Q 851.2 316.9, 851.5 317.1 Q 851.8 317.2, 852.2 317.3 Q 852.6 317.4, 853.0 317.4 Q 853.6 317.4, 854.0 317.1 Q 854.4 316.7, 854.4 316.2 Q 854.4 315.8, 854.2 315.5 Q 854.0 315.3, 853.7 315.2 Q 853.4 315.0, 852.9 314.9 Q 852.3 314.7, 851.9 314.5 Q 851.5 314.3, 851.2 313.9 Q 851.0 313.5, 851.0 312.9 Q 851.0 312.0, 851.6 311.4 Q 852.2 310.9, 853.4 310.9 Q 854.2 310.9, 855.2 311.3 L 855.0 312.1 Q 854.1 311.7, 853.4 311.7 Q 852.7 311.7, 852.4 312.0 Q 852.0 312.3, 852.0 312.8 Q 852.0 313.2, 852.2 313.4 Q 852.4 313.6, 852.7 313.8 Q 853.0 313.9, 853.4 314.0 Q 854.1 314.2, 854.5 314.4 Q 854.9 314.6, 855.1 315.1 Q 855.4 315.5, 855.4 316.2 Q 855.4 317.2, 854.8 317.7 Q 854.1 318.2, 853.0 318.2 Q 852.4 318.2, 851.9 318.1 Q 851.4 318.0, 850.8 317.7 L 851.1 316.9 " fill="#000000"/>
<path class="note" d="M 858.4 315.1 Q 858.4 316.6, 858.0 317.8 Q 857.6 319.0, 856.8 320.3 L 856.2 319.9 Q 856.9 318.7, 857.2 317.6 Q 857.5 316.5, 857.5 315.1 Q 857.5 313.8, 857.2 312.7 Q 856.9 311.6, 856.2 310.4 L 856.8 310.0 Q 857.6 311.3, 858.0 312.5 Q 858.4 313.7, 858.4 315.1 " fill="#000000"/>
<path class="note" d="M 760.5 307.6 Q 760.5 306.1, 760.9 304.9 Q 761.4 303.7, 762.2 302.4 L 762.7 302.8 Q 762.1 304.0, 761.8 305.1 Q 761.4 306.2, 761.4 307.6 Q 761.4 308.9, 761.8 310.0 Q 762.1 311.1, 762.7 312.3 L 762.2 312.7 Q 761.4 311.4, 760.9 310.2 Q 760.5 309.0, 760.5 307.6 " fill="#000000"/>
<path class="note" d="M 767.2 310.4 L 765.5 307.5 L 765.4 307.5 L 764.3 307.5 L 764.3 310.4 L 763.3 310.4 L 763.3 303.3 L 765.4 303.3 Q 766.7 303.3, 767.3 303.8 Q 767.9 304.4, 767.9 305.4 Q 767.9 306.1, 767.5 306.7 Q 767.2 307.2, 766.4 307.4 L 768.2 310.4 L 767.2 310.4 M 764.3 306.7 L 765.4 306.7 Q 766.1 306.7, 766.5 306.4 Q 766.9 306.0, 766.9 305.4 Q 766.9 304.7, 766.5 304.4 Q 766.1 304.1, 765.4 304.1 L 764.3 304.1 L 764.3 306.7 " fill="#000000"/>
<path class="note" d="M 771.0 307.6 Q 771.0 309.0, 770.6 310.2 Q 770.2 311.4, 769.4 312.7 L 768.8 312.3 Q 769.5 311.1, 769.8 310.0 Q 770.1 308.9, 770.1 307.6 Q 770.1 306.2, 769.8 305.1 Q 769.5 304.0, 768.8 302.8 L 769.4 302.4 Q 770.2 303.7, 770.6 304.9 Q 771.0 306.1, 771.0 307.6 " fill="#000000"/>
</svg>